M48
; DRILL file {KiCad 8.0.8} date 2025-05-22T14:29:17-0500
; FORMAT={-:-/ absolute / metric / decimal}
; #@! TF.CreationDate,2025-05-22T14:29:17-05:00
; #@! TF.GenerationSoftware,Kicad,Pcbnew,8.0.8
; #@! TF.FileFunction,Plated,1,2,PTH
FMAT,2
METRIC
; #@! TA.AperFunction,Plated,PTH,ViaDrill
T1C0.300
; #@! TA.AperFunction,Plated,PTH,ComponentDrill
T2C1.000
; #@! TA.AperFunction,Plated,PTH,ComponentDrill
T3C1.100
; #@! TA.AperFunction,Plated,PTH,ComponentDrill
T4C1.270
; #@! TA.AperFunction,Plated,PTH,ComponentDrill
T5C1.500
; #@! TA.AperFunction,Plated,PTH,ComponentDrill
T6C1.520
; #@! TA.AperFunction,Plated,PTH,ComponentDrill
T7C1.600
; #@! TA.AperFunction,Plated,PTH,ComponentDrill
T8C2.000
; #@! TA.AperFunction,Plated,PTH,ComponentDrill
T9C2.200
; #@! TA.AperFunction,Plated,PTH,ComponentDrill
T10C2.300
; #@! TA.AperFunction,Plated,PTH,ComponentDrill
T11C2.400
; #@! TA.AperFunction,Plated,PTH,ComponentDrill
T12C5.000
%
G90
G05
T1
X134.112Y-106.172
X136.144Y-107.696
X137.16Y-93.98
X137.16Y-94.996
X137.16Y-96.012
X137.16Y-98.552
X137.16Y-99.568
X137.16Y-100.584
X138.176Y-93.98
X138.176Y-94.996
X138.176Y-96.012
X138.176Y-98.552
X138.176Y-99.568
X138.176Y-100.584
X139.192Y-93.98
X139.192Y-94.996
X139.192Y-96.012
X139.192Y-98.552
X139.192Y-99.568
X139.192Y-100.584
X152.4Y-90.17
X152.4Y-92.075
X152.4Y-95.885
X152.4Y-100.33
X152.4Y-102.235
X152.4Y-106.045
X155.575Y-117.856
X156.21Y-117.856
X156.845Y-117.856
X158.115Y-91.44
X158.115Y-101.6
X158.75Y-92.71
X158.75Y-102.87
X159.385Y-117.856
X160.02Y-117.856
X160.655Y-117.856
X163.195Y-117.856
X163.83Y-117.856
X164.465Y-117.856
X167.005Y-117.856
X167.64Y-90.17
X167.64Y-100.33
X167.64Y-117.856
X168.275Y-72.644
X168.275Y-117.856
X170.815Y-117.856
X171.45Y-117.856
X172.085Y-117.856
X174.625Y-117.856
X175.26Y-106.045
X175.26Y-117.856
X175.895Y-117.856
X177.228Y-91.376
X190.5Y-111.506
X190.5Y-115.316
X191.262Y-111.506
X191.262Y-115.316
X192.024Y-111.506
X192.024Y-115.316
X193.548Y-111.506
X193.548Y-115.316
X194.31Y-111.506
X194.31Y-115.316
X195.072Y-111.506
X195.072Y-115.316
T2
X38.1Y-88.265
X38.1Y-106.045
X53.34Y-88.265
X53.34Y-106.045
X89.535Y-65.659
X89.535Y-129.185
X92.075Y-65.659
X92.075Y-129.185
X117.475Y-65.735
X117.475Y-68.275
X117.475Y-126.645
X117.475Y-129.185
X118.535Y-121.585
X120.015Y-65.735
X120.015Y-68.275
X120.015Y-126.645
X120.015Y-129.185
X121.075Y-121.585
X122.555Y-65.735
X122.555Y-68.275
X122.555Y-126.645
X122.555Y-129.185
X123.615Y-121.585
X123.952Y-81.788
X123.952Y-113.03
X125.095Y-65.735
X125.095Y-68.275
X125.095Y-126.645
X125.095Y-129.185
X126.155Y-121.585
X127.635Y-65.735
X127.635Y-68.275
X127.635Y-73.355
X127.635Y-126.645
X127.635Y-129.185
X128.695Y-121.585
X129.032Y-81.798
X129.032Y-113.04
X130.175Y-65.735
X130.175Y-68.275
X130.175Y-73.355
X130.175Y-126.645
X130.175Y-129.185
X131.235Y-121.585
X132.715Y-65.735
X132.715Y-68.275
X132.715Y-73.355
X132.715Y-126.645
X132.715Y-129.185
X133.775Y-121.585
X135.255Y-65.735
X135.255Y-68.275
X135.255Y-73.355
X135.255Y-126.645
X135.255Y-129.185
X136.315Y-121.585
X137.795Y-65.735
X137.795Y-68.275
X137.795Y-73.355
X137.795Y-126.645
X137.795Y-129.185
X138.855Y-121.585
X140.335Y-65.735
X140.335Y-68.275
X140.335Y-73.355
X140.335Y-126.645
X140.335Y-129.185
X141.395Y-121.585
X142.875Y-65.735
X142.875Y-68.275
X142.875Y-73.355
X142.875Y-126.645
X142.875Y-129.185
X145.415Y-65.735
X145.415Y-68.275
X145.415Y-73.355
X145.415Y-121.585
X145.415Y-126.645
X145.415Y-129.185
X147.955Y-65.735
X147.955Y-68.275
X147.955Y-121.585
X147.955Y-126.645
X147.955Y-129.185
X150.495Y-65.735
X150.495Y-68.275
X150.495Y-73.355
X150.495Y-121.585
X150.495Y-126.645
X150.495Y-129.185
X153.035Y-65.735
X153.035Y-68.275
X153.035Y-73.355
X153.035Y-121.585
X153.035Y-126.645
X153.035Y-129.185
X155.575Y-65.735
X155.575Y-68.275
X155.575Y-73.355
X155.575Y-121.585
X155.575Y-126.645
X155.575Y-129.185
X158.115Y-65.735
X158.115Y-68.275
X158.115Y-73.355
X158.115Y-121.585
X158.115Y-126.645
X158.115Y-129.185
X160.655Y-65.735
X160.655Y-68.275
X160.655Y-73.355
X160.655Y-121.585
X160.655Y-126.645
X160.655Y-129.185
X163.195Y-65.735
X163.195Y-68.275
X163.195Y-73.355
X163.195Y-121.585
X163.195Y-126.645
X163.195Y-129.185
X191.765Y-102.885
X191.765Y-105.425
X191.765Y-107.965
X191.77Y-86.36
X191.77Y-88.9
X191.77Y-91.44
X194.305Y-102.885
X194.305Y-105.425
X194.305Y-107.965
X194.31Y-86.36
X194.31Y-88.9
X194.31Y-91.44
X250.21Y-86.38
X250.21Y-88.92
X250.21Y-105.43
X250.21Y-107.97
X252.75Y-86.38
X252.75Y-88.92
X252.75Y-105.43
X252.75Y-107.97
T3
X180.34Y-85.09
X180.34Y-87.63
X180.34Y-90.17
X180.34Y-104.14
X180.34Y-106.68
X180.34Y-109.22
T4
X210.82Y-62.23
X238.125Y-62.23
T6
X168.275Y-62.23
X173.355Y-62.23
T7
X147.32Y-91.44
X147.32Y-97.028
X147.32Y-102.616
X173.355Y-71.12
X184.15Y-97.155
X200.66Y-62.23
X220.98Y-62.23
X227.33Y-62.23
X248.92Y-62.23
T8
X71.12Y-76.36
X71.12Y-86.36
X71.12Y-107.95
X71.12Y-117.95
X102.235Y-76.36
X102.235Y-86.36
X102.235Y-107.95
X102.235Y-117.95
X180.975Y-118.11
X186.055Y-118.11
T9
X35.43Y-97.155
X35.43Y-115.57
X35.56Y-78.9
X50.93Y-97.155
X50.93Y-115.57
X51.06Y-78.9
T10
X207.645Y-59.055
X213.995Y-59.055
X213.995Y-65.405
X234.95Y-59.055
X234.95Y-65.405
X241.3Y-59.055
X241.3Y-65.405
T11
X207.645Y-65.405
T12
X201.295Y-83.82
X201.295Y-110.49
X243.205Y-83.82
X243.205Y-110.49
T5
G00X181.65Y-62.23
M15
G01X186.65Y-62.23
M16
G05
G00X181.65Y-132.08
M15
G01X186.65Y-132.08
M16
G05
M30
