%TF.GenerationSoftware,KiCad,Pcbnew,8.0.8*%
%TF.CreationDate,2025-05-22T14:29:20-05:00*%
%TF.ProjectId,ST2402,53543234-3032-42e6-9b69-6361645f7063,1*%
%TF.SameCoordinates,Original*%
%TF.FileFunction,Soldermask,Top*%
%TF.FilePolarity,Negative*%
%FSLAX46Y46*%
G04 Gerber Fmt 4.6, Leading zero omitted, Abs format (unit mm)*
G04 Created by KiCad (PCBNEW 8.0.8) date 2025-05-22 14:29:20*
%MOMM*%
%LPD*%
G01*
G04 APERTURE LIST*
G04 Aperture macros list*
%AMRoundRect*
0 Rectangle with rounded corners*
0 $1 Rounding radius*
0 $2 $3 $4 $5 $6 $7 $8 $9 X,Y pos of 4 corners*
0 Add a 4 corners polygon primitive as box body*
4,1,4,$2,$3,$4,$5,$6,$7,$8,$9,$2,$3,0*
0 Add four circle primitives for the rounded corners*
1,1,$1+$1,$2,$3*
1,1,$1+$1,$4,$5*
1,1,$1+$1,$6,$7*
1,1,$1+$1,$8,$9*
0 Add four rect primitives between the rounded corners*
20,1,$1+$1,$2,$3,$4,$5,0*
20,1,$1+$1,$4,$5,$6,$7,0*
20,1,$1+$1,$6,$7,$8,$9,0*
20,1,$1+$1,$8,$9,$2,$3,0*%
G04 Aperture macros list end*
%ADD10O,8.000000X5.000000*%
%ADD11C,2.800000*%
%ADD12C,2.540000*%
%ADD13C,3.810000*%
%ADD14RoundRect,0.250000X1.100000X-0.325000X1.100000X0.325000X-1.100000X0.325000X-1.100000X-0.325000X0*%
%ADD15RoundRect,0.250000X-1.100000X0.325000X-1.100000X-0.325000X1.100000X-0.325000X1.100000X0.325000X0*%
%ADD16C,2.000000*%
%ADD17RoundRect,0.250000X-0.262500X-0.450000X0.262500X-0.450000X0.262500X0.450000X-0.262500X0.450000X0*%
%ADD18R,1.700000X1.700000*%
%ADD19O,1.700000X1.700000*%
%ADD20RoundRect,0.250000X0.450000X-0.262500X0.450000X0.262500X-0.450000X0.262500X-0.450000X-0.262500X0*%
%ADD21R,2.000000X1.905000*%
%ADD22O,2.000000X1.905000*%
%ADD23C,3.200000*%
%ADD24RoundRect,0.250000X0.262500X0.450000X-0.262500X0.450000X-0.262500X-0.450000X0.262500X-0.450000X0*%
%ADD25C,8.000000*%
%ADD26RoundRect,0.150000X-0.825000X-0.150000X0.825000X-0.150000X0.825000X0.150000X-0.825000X0.150000X0*%
%ADD27RoundRect,0.250000X0.250000X0.475000X-0.250000X0.475000X-0.250000X-0.475000X0.250000X-0.475000X0*%
%ADD28C,3.000000*%
%ADD29R,3.000000X3.000000*%
%ADD30C,1.800000*%
%ADD31R,4.000000X4.000000*%
%ADD32C,4.000000*%
G04 APERTURE END LIST*
D10*
%TO.C,TP2*%
X184150000Y-132080000D03*
%TD*%
%TO.C,TP1*%
X184150000Y-62230000D03*
%TD*%
D11*
%TO.C,TP12*%
X173355000Y-71120000D03*
%TD*%
%TO.C,TP11*%
X147320000Y-102616000D03*
%TD*%
%TO.C,TP6*%
X184150000Y-97155000D03*
%TD*%
%TO.C,TP15*%
X220980000Y-62230000D03*
%TD*%
%TO.C,TP14*%
X200660000Y-62230000D03*
%TD*%
%TO.C,TP13*%
X248920000Y-62230000D03*
%TD*%
%TO.C,TP10*%
X227330000Y-62230000D03*
%TD*%
%TO.C,TP5*%
X147320000Y-97028000D03*
%TD*%
%TO.C,TP4*%
X147320000Y-91440000D03*
%TD*%
D12*
%TO.C,J19*%
X210820000Y-62230000D03*
D13*
X207645000Y-59055000D03*
X207645000Y-65405000D03*
X213995000Y-59055000D03*
X213995000Y-65405000D03*
%TD*%
D12*
%TO.C,J13*%
X238125000Y-62230000D03*
D13*
X234950000Y-59055000D03*
X234950000Y-65405000D03*
X241300000Y-59055000D03*
X241300000Y-65405000D03*
%TD*%
D14*
%TO.C,C24*%
X156210000Y-116410000D03*
X156210000Y-113460000D03*
%TD*%
D15*
%TO.C,C23*%
X156210000Y-79805000D03*
X156210000Y-82755000D03*
%TD*%
D14*
%TO.C,C22*%
X160020000Y-116410000D03*
X160020000Y-113460000D03*
%TD*%
D15*
%TO.C,C1*%
X160020000Y-79805000D03*
X160020000Y-82755000D03*
%TD*%
D16*
%TO.C,F2*%
X129032000Y-113040000D03*
X123952000Y-113030000D03*
%TD*%
D17*
%TO.C,R18*%
X153712500Y-88265000D03*
X155537500Y-88265000D03*
%TD*%
D18*
%TO.C,J11*%
X252750000Y-105430000D03*
D19*
X250210000Y-105430000D03*
X252750000Y-107970000D03*
X250210000Y-107970000D03*
%TD*%
D15*
%TO.C,C16*%
X167640000Y-79805000D03*
X167640000Y-82755000D03*
%TD*%
D20*
%TO.C,R3*%
X193818000Y-114300000D03*
X193818000Y-112475000D03*
%TD*%
D21*
%TO.C,Q1*%
X180340000Y-85090000D03*
D22*
X180340000Y-87630000D03*
X180340000Y-90170000D03*
%TD*%
D18*
%TO.C,J22*%
X191765000Y-102885000D03*
D19*
X194305000Y-102885000D03*
X191765000Y-105425000D03*
X194305000Y-105425000D03*
X191765000Y-107965000D03*
X194305000Y-107965000D03*
%TD*%
D18*
%TO.C,J2*%
X117475000Y-68275000D03*
D19*
X117475000Y-65735000D03*
X120015000Y-68275000D03*
X120015000Y-65735000D03*
X122555000Y-68275000D03*
X122555000Y-65735000D03*
X125095000Y-68275000D03*
X125095000Y-65735000D03*
X127635000Y-68275000D03*
X127635000Y-65735000D03*
X130175000Y-68275000D03*
X130175000Y-65735000D03*
X132715000Y-68275000D03*
X132715000Y-65735000D03*
X135255000Y-68275000D03*
X135255000Y-65735000D03*
X137795000Y-68275000D03*
X137795000Y-65735000D03*
X140335000Y-68275000D03*
X140335000Y-65735000D03*
X142875000Y-68275000D03*
X142875000Y-65735000D03*
X145415000Y-68275000D03*
X145415000Y-65735000D03*
X147955000Y-68275000D03*
X147955000Y-65735000D03*
X150495000Y-68275000D03*
X150495000Y-65735000D03*
X153035000Y-68275000D03*
X153035000Y-65735000D03*
X155575000Y-68275000D03*
X155575000Y-65735000D03*
X158115000Y-68275000D03*
X158115000Y-65735000D03*
X160655000Y-68275000D03*
X160655000Y-65735000D03*
X163195000Y-68275000D03*
X163195000Y-65735000D03*
%TD*%
D18*
%TO.C,J12*%
X252750000Y-86380000D03*
D19*
X250210000Y-86380000D03*
X252750000Y-88920000D03*
X250210000Y-88920000D03*
%TD*%
D23*
%TO.C,H6*%
X36830000Y-135890000D03*
%TD*%
D18*
%TO.C,J4*%
X145415000Y-73355000D03*
D19*
X142875000Y-73355000D03*
X140335000Y-73355000D03*
X137795000Y-73355000D03*
X135255000Y-73355000D03*
X132715000Y-73355000D03*
X130175000Y-73355000D03*
X127635000Y-73355000D03*
%TD*%
D24*
%TO.C,R30*%
X172720000Y-93980000D03*
X170895000Y-93980000D03*
%TD*%
D23*
%TO.C,H7*%
X111125000Y-135890000D03*
%TD*%
D25*
%TO.C,TP18*%
X243205000Y-83820000D03*
%TD*%
D26*
%TO.C,U8*%
X160785000Y-100330000D03*
X160785000Y-101600000D03*
X160785000Y-102870000D03*
X160785000Y-104140000D03*
X165735000Y-104140000D03*
X165735000Y-102870000D03*
X165735000Y-101600000D03*
X165735000Y-100330000D03*
%TD*%
D27*
%TO.C,C8*%
X155575000Y-95885000D03*
X153675000Y-95885000D03*
%TD*%
D17*
%TO.C,R21*%
X153712500Y-104140000D03*
X155537500Y-104140000D03*
%TD*%
D28*
%TO.C,J14*%
X180975000Y-118110000D03*
%TD*%
D27*
%TO.C,C3*%
X155575000Y-100330000D03*
X153675000Y-100330000D03*
%TD*%
D24*
%TO.C,R31*%
X172720000Y-104140000D03*
X170895000Y-104140000D03*
%TD*%
D29*
%TO.C,J9*%
X173355000Y-62230000D03*
D28*
X168275000Y-62230000D03*
%TD*%
D15*
%TO.C,C12*%
X163830000Y-79805000D03*
X163830000Y-82755000D03*
%TD*%
D16*
%TO.C,F1*%
X129032000Y-81798000D03*
X123952000Y-81788000D03*
%TD*%
D17*
%TO.C,R23*%
X170895000Y-102235000D03*
X172720000Y-102235000D03*
%TD*%
%TO.C,R19*%
X153712500Y-98425000D03*
X155537500Y-98425000D03*
%TD*%
%TO.C,R29*%
X170895000Y-92075000D03*
X172720000Y-92075000D03*
%TD*%
D14*
%TO.C,C19*%
X171450000Y-116410000D03*
X171450000Y-113460000D03*
%TD*%
D17*
%TO.C,R22*%
X170895000Y-100330000D03*
X172720000Y-100330000D03*
%TD*%
D30*
%TO.C,R9*%
X38100000Y-88265000D03*
X53340000Y-88265000D03*
%TD*%
D26*
%TO.C,U6*%
X160785000Y-90170000D03*
X160785000Y-91440000D03*
X160785000Y-92710000D03*
X160785000Y-93980000D03*
X165735000Y-93980000D03*
X165735000Y-92710000D03*
X165735000Y-91440000D03*
X165735000Y-90170000D03*
%TD*%
D25*
%TO.C,TP17*%
X201295000Y-110490000D03*
%TD*%
D31*
%TO.C,C14*%
X102235000Y-107950000D03*
D32*
X102235000Y-117950000D03*
%TD*%
D18*
%TO.C,J1*%
X117475000Y-129185000D03*
D19*
X117475000Y-126645000D03*
X120015000Y-129185000D03*
X120015000Y-126645000D03*
X122555000Y-129185000D03*
X122555000Y-126645000D03*
X125095000Y-129185000D03*
X125095000Y-126645000D03*
X127635000Y-129185000D03*
X127635000Y-126645000D03*
X130175000Y-129185000D03*
X130175000Y-126645000D03*
X132715000Y-129185000D03*
X132715000Y-126645000D03*
X135255000Y-129185000D03*
X135255000Y-126645000D03*
X137795000Y-129185000D03*
X137795000Y-126645000D03*
X140335000Y-129185000D03*
X140335000Y-126645000D03*
X142875000Y-129185000D03*
X142875000Y-126645000D03*
X145415000Y-129185000D03*
X145415000Y-126645000D03*
X147955000Y-129185000D03*
X147955000Y-126645000D03*
X150495000Y-129185000D03*
X150495000Y-126645000D03*
X153035000Y-129185000D03*
X153035000Y-126645000D03*
X155575000Y-129185000D03*
X155575000Y-126645000D03*
X158115000Y-129185000D03*
X158115000Y-126645000D03*
X160655000Y-129185000D03*
X160655000Y-126645000D03*
X163195000Y-129185000D03*
X163195000Y-126645000D03*
%TD*%
D17*
%TO.C,R24*%
X170895000Y-90170000D03*
X172720000Y-90170000D03*
%TD*%
D23*
%TO.C,H5*%
X36830000Y-59055000D03*
%TD*%
D31*
%TO.C,C10*%
X71120000Y-76360000D03*
D32*
X71120000Y-86360000D03*
%TD*%
D18*
%TO.C,J8*%
X92075000Y-65659000D03*
D19*
X89535000Y-65659000D03*
%TD*%
D27*
%TO.C,C7*%
X155575000Y-102235000D03*
X153675000Y-102235000D03*
%TD*%
D14*
%TO.C,C21*%
X175260000Y-116410000D03*
X175260000Y-113460000D03*
%TD*%
D18*
%TO.C,J6*%
X141395000Y-121585000D03*
D19*
X138855000Y-121585000D03*
X136315000Y-121585000D03*
X133775000Y-121585000D03*
X131235000Y-121585000D03*
X128695000Y-121585000D03*
X126155000Y-121585000D03*
X123615000Y-121585000D03*
X121075000Y-121585000D03*
X118535000Y-121585000D03*
%TD*%
D20*
%TO.C,R1*%
X189738000Y-114300000D03*
X189738000Y-112475000D03*
%TD*%
D15*
%TO.C,C20*%
X175260000Y-79805000D03*
X175260000Y-82755000D03*
%TD*%
D23*
%TO.C,H8*%
X111125000Y-59055000D03*
%TD*%
D20*
%TO.C,R4*%
X195818000Y-114300000D03*
X195818000Y-112475000D03*
%TD*%
D15*
%TO.C,C18*%
X171450000Y-79805000D03*
X171450000Y-82755000D03*
%TD*%
D28*
%TO.C,J18*%
X186055000Y-118110000D03*
%TD*%
D32*
%TO.C,J16*%
X50930000Y-97155000D03*
X35430000Y-97155000D03*
%TD*%
D23*
%TO.C,H4*%
X193675000Y-135890000D03*
%TD*%
D27*
%TO.C,C5*%
X155575000Y-92075000D03*
X153675000Y-92075000D03*
%TD*%
D23*
%TO.C,H2*%
X256540000Y-136000000D03*
%TD*%
D21*
%TO.C,Q2*%
X180340000Y-104140000D03*
D22*
X180340000Y-106680000D03*
X180340000Y-109220000D03*
%TD*%
D18*
%TO.C,J5*%
X163195000Y-73355000D03*
D19*
X160655000Y-73355000D03*
X158115000Y-73355000D03*
X155575000Y-73355000D03*
X153035000Y-73355000D03*
X150495000Y-73355000D03*
%TD*%
D25*
%TO.C,TP16*%
X201295000Y-83820000D03*
%TD*%
D30*
%TO.C,R10*%
X53340000Y-106045000D03*
X38100000Y-106045000D03*
%TD*%
D27*
%TO.C,C9*%
X155575000Y-106045000D03*
X153675000Y-106045000D03*
%TD*%
%TO.C,C2*%
X155575000Y-90170000D03*
X153675000Y-90170000D03*
%TD*%
D32*
%TO.C,J17*%
X50930000Y-115570000D03*
X35430000Y-115570000D03*
%TD*%
%TO.C,J15*%
X51060000Y-78900000D03*
X35560000Y-78900000D03*
%TD*%
D14*
%TO.C,C17*%
X167640000Y-116410000D03*
X167640000Y-113460000D03*
%TD*%
D23*
%TO.C,H3*%
X193675000Y-59055000D03*
%TD*%
D31*
%TO.C,C13*%
X71120000Y-107950000D03*
D32*
X71120000Y-117950000D03*
%TD*%
D18*
%TO.C,J7*%
X92075000Y-129185000D03*
D19*
X89535000Y-129185000D03*
%TD*%
D14*
%TO.C,C15*%
X163830000Y-116410000D03*
X163830000Y-113460000D03*
%TD*%
D23*
%TO.C,H1*%
X256540000Y-59055000D03*
%TD*%
D18*
%TO.C,J3*%
X163195000Y-121585000D03*
D19*
X160655000Y-121585000D03*
X158115000Y-121585000D03*
X155575000Y-121585000D03*
X153035000Y-121585000D03*
X150495000Y-121585000D03*
X147955000Y-121585000D03*
X145415000Y-121585000D03*
%TD*%
D17*
%TO.C,R20*%
X153712500Y-93980000D03*
X155537500Y-93980000D03*
%TD*%
D18*
%TO.C,J21*%
X191770000Y-86360000D03*
D19*
X194310000Y-86360000D03*
X191770000Y-88900000D03*
X194310000Y-88900000D03*
X191770000Y-91440000D03*
X194310000Y-91440000D03*
%TD*%
D25*
%TO.C,TP19*%
X243205000Y-110490000D03*
%TD*%
D20*
%TO.C,R2*%
X191818000Y-114300000D03*
X191818000Y-112475000D03*
%TD*%
D31*
%TO.C,C11*%
X102235000Y-76360000D03*
D32*
X102235000Y-86360000D03*
%TD*%
M02*
