%TF.GenerationSoftware,KiCad,Pcbnew,9.0.2*%
%TF.CreationDate,2025-08-05T09:14:22-05:00*%
%TF.ProjectId,ST2402,53543234-3032-42e6-9b69-6361645f7063,1*%
%TF.SameCoordinates,Original*%
%TF.FileFunction,Copper,L2,Bot*%
%TF.FilePolarity,Positive*%
%FSLAX46Y46*%
G04 Gerber Fmt 4.6, Leading zero omitted, Abs format (unit mm)*
G04 Created by KiCad (PCBNEW 9.0.2) date 2025-08-05 09:14:22*
%MOMM*%
%LPD*%
G01*
G04 APERTURE LIST*
G04 Aperture macros list*
%AMRoundRect*
0 Rectangle with rounded corners*
0 $1 Rounding radius*
0 $2 $3 $4 $5 $6 $7 $8 $9 X,Y pos of 4 corners*
0 Add a 4 corners polygon primitive as box body*
4,1,4,$2,$3,$4,$5,$6,$7,$8,$9,$2,$3,0*
0 Add four circle primitives for the rounded corners*
1,1,$1+$1,$2,$3*
1,1,$1+$1,$4,$5*
1,1,$1+$1,$6,$7*
1,1,$1+$1,$8,$9*
0 Add four rect primitives between the rounded corners*
20,1,$1+$1,$2,$3,$4,$5,0*
20,1,$1+$1,$4,$5,$6,$7,0*
20,1,$1+$1,$6,$7,$8,$9,0*
20,1,$1+$1,$8,$9,$2,$3,0*%
G04 Aperture macros list end*
%TA.AperFunction,SMDPad,CuDef*%
%ADD10RoundRect,0.250000X0.625000X-0.312500X0.625000X0.312500X-0.625000X0.312500X-0.625000X-0.312500X0*%
%TD*%
%TA.AperFunction,ComponentPad*%
%ADD11C,2.000000*%
%TD*%
%TA.AperFunction,ComponentPad*%
%ADD12O,8.000000X5.000000*%
%TD*%
%TA.AperFunction,ComponentPad*%
%ADD13R,1.700000X1.700000*%
%TD*%
%TA.AperFunction,ComponentPad*%
%ADD14O,1.700000X1.700000*%
%TD*%
%TA.AperFunction,ComponentPad*%
%ADD15R,2.000000X1.905000*%
%TD*%
%TA.AperFunction,ComponentPad*%
%ADD16O,2.000000X1.905000*%
%TD*%
%TA.AperFunction,ComponentPad*%
%ADD17C,8.000000*%
%TD*%
%TA.AperFunction,ComponentPad*%
%ADD18C,3.000000*%
%TD*%
%TA.AperFunction,ComponentPad*%
%ADD19R,3.000000X3.000000*%
%TD*%
%TA.AperFunction,ComponentPad*%
%ADD20C,2.800000*%
%TD*%
%TA.AperFunction,ComponentPad*%
%ADD21C,2.540000*%
%TD*%
%TA.AperFunction,ComponentPad*%
%ADD22C,3.810000*%
%TD*%
%TA.AperFunction,ComponentPad*%
%ADD23C,1.800000*%
%TD*%
%TA.AperFunction,ComponentPad*%
%ADD24R,4.000000X4.000000*%
%TD*%
%TA.AperFunction,ComponentPad*%
%ADD25C,4.000000*%
%TD*%
%TA.AperFunction,SMDPad,CuDef*%
%ADD26RoundRect,0.300000X-0.300000X-0.800000X0.300000X-0.800000X0.300000X0.800000X-0.300000X0.800000X0*%
%TD*%
%TA.AperFunction,SMDPad,CuDef*%
%ADD27RoundRect,0.250000X0.475000X-0.250000X0.475000X0.250000X-0.475000X0.250000X-0.475000X-0.250000X0*%
%TD*%
%TA.AperFunction,ViaPad*%
%ADD28C,0.600000*%
%TD*%
%TA.AperFunction,Conductor*%
%ADD29C,0.500000*%
%TD*%
%TA.AperFunction,Conductor*%
%ADD30C,3.000000*%
%TD*%
%TA.AperFunction,Conductor*%
%ADD31C,1.000000*%
%TD*%
%TA.AperFunction,Conductor*%
%ADD32C,0.700000*%
%TD*%
%TA.AperFunction,Conductor*%
%ADD33C,5.000000*%
%TD*%
%TA.AperFunction,Conductor*%
%ADD34C,2.000000*%
%TD*%
G04 APERTURE END LIST*
D10*
%TO.P,R8,1*%
%TO.N,Net-(J18-Pin_1)*%
X194945000Y-114850000D03*
%TO.P,R8,2*%
%TO.N,Net-(J19-In)*%
X194945000Y-111925000D03*
%TD*%
%TO.P,R7,1*%
%TO.N,Net-(J18-Pin_1)*%
X192405000Y-114850000D03*
%TO.P,R7,2*%
%TO.N,Net-(J19-In)*%
X192405000Y-111925000D03*
%TD*%
%TO.P,R6,1*%
%TO.N,Net-(J18-Pin_1)*%
X189865000Y-114850000D03*
%TO.P,R6,2*%
%TO.N,Net-(J19-In)*%
X189865000Y-111925000D03*
%TD*%
%TO.P,R5,1*%
%TO.N,Net-(J18-Pin_1)*%
X187325000Y-114850000D03*
%TO.P,R5,2*%
%TO.N,Net-(J19-In)*%
X187325000Y-111925000D03*
%TD*%
D11*
%TO.P,F2,1*%
%TO.N,Net-(Q2-S)*%
X129032000Y-113040000D03*
%TO.P,F2,2*%
%TO.N,Net-(J17-Pin_1)*%
X123952000Y-113030000D03*
%TD*%
D12*
%TO.P,TP2,1,1*%
%TO.N,Net-(J19-In)*%
X184150000Y-132080000D03*
%TD*%
D13*
%TO.P,J11,1,Pin_1*%
%TO.N,Net-(J11-Pin_1)*%
X252750000Y-105430000D03*
D14*
%TO.P,J11,2,Pin_2*%
X250210000Y-105430000D03*
%TO.P,J11,3,Pin_3*%
X252750000Y-107970000D03*
%TO.P,J11,4,Pin_4*%
X250210000Y-107970000D03*
%TD*%
D15*
%TO.P,Q1,1,G*%
%TO.N,Net-(Q1-G)*%
X180340000Y-85090000D03*
D16*
%TO.P,Q1,2,D*%
%TO.N,Net-(Q1-D)*%
X180340000Y-87630000D03*
%TO.P,Q1,3,S*%
%TO.N,FIX_A*%
X180340000Y-90170000D03*
%TD*%
D13*
%TO.P,J22,1,Pin_1*%
%TO.N,Net-(J19-In)*%
X191765000Y-102885000D03*
D14*
%TO.P,J22,2,Pin_2*%
X194305000Y-102885000D03*
%TO.P,J22,3,Pin_3*%
X191765000Y-105425000D03*
%TO.P,J22,4,Pin_4*%
X194305000Y-105425000D03*
%TO.P,J22,5,Pin_5*%
X191765000Y-107965000D03*
%TO.P,J22,6,Pin_6*%
X194305000Y-107965000D03*
%TD*%
D13*
%TO.P,J2,1,Pin_1*%
%TO.N,unconnected-(J2-Pin_1-Pad1)*%
X117475000Y-68275000D03*
D14*
%TO.P,J2,2,Pin_2*%
%TO.N,unconnected-(J2-Pin_2-Pad2)*%
X117475000Y-65735000D03*
%TO.P,J2,3,Pin_3*%
%TO.N,unconnected-(J2-Pin_3-Pad3)*%
X120015000Y-68275000D03*
%TO.P,J2,4,Pin_4*%
%TO.N,unconnected-(J2-Pin_4-Pad4)*%
X120015000Y-65735000D03*
%TO.P,J2,5,Pin_5*%
%TO.N,unconnected-(J2-Pin_5-Pad5)*%
X122555000Y-68275000D03*
%TO.P,J2,6,Pin_6*%
%TO.N,unconnected-(J2-Pin_6-Pad6)*%
X122555000Y-65735000D03*
%TO.P,J2,7,Pin_7*%
%TO.N,unconnected-(J2-Pin_7-Pad7)*%
X125095000Y-68275000D03*
%TO.P,J2,8,Pin_8*%
%TO.N,unconnected-(J2-Pin_8-Pad8)*%
X125095000Y-65735000D03*
%TO.P,J2,9,Pin_9*%
%TO.N,unconnected-(J2-Pin_9-Pad9)*%
X127635000Y-68275000D03*
%TO.P,J2,10,Pin_10*%
%TO.N,unconnected-(J2-Pin_10-Pad10)*%
X127635000Y-65735000D03*
%TO.P,J2,11,Pin_11*%
%TO.N,unconnected-(J2-Pin_11-Pad11)*%
X130175000Y-68275000D03*
%TO.P,J2,12,Pin_12*%
%TO.N,unconnected-(J2-Pin_12-Pad12)*%
X130175000Y-65735000D03*
%TO.P,J2,13,Pin_13*%
%TO.N,unconnected-(J2-Pin_13-Pad13)*%
X132715000Y-68275000D03*
%TO.P,J2,14,Pin_14*%
%TO.N,unconnected-(J2-Pin_14-Pad14)*%
X132715000Y-65735000D03*
%TO.P,J2,15,Pin_15*%
%TO.N,unconnected-(J2-Pin_15-Pad15)*%
X135255000Y-68275000D03*
%TO.P,J2,16,Pin_16*%
%TO.N,unconnected-(J2-Pin_16-Pad16)*%
X135255000Y-65735000D03*
%TO.P,J2,17,Pin_17*%
%TO.N,unconnected-(J2-Pin_17-Pad17)*%
X137795000Y-68275000D03*
%TO.P,J2,18,Pin_18*%
%TO.N,unconnected-(J2-Pin_18-Pad18)*%
X137795000Y-65735000D03*
%TO.P,J2,19,Pin_19*%
%TO.N,unconnected-(J2-Pin_19-Pad19)*%
X140335000Y-68275000D03*
%TO.P,J2,20,Pin_20*%
%TO.N,unconnected-(J2-Pin_20-Pad20)*%
X140335000Y-65735000D03*
%TO.P,J2,21,Pin_21*%
%TO.N,unconnected-(J2-Pin_21-Pad21)*%
X142875000Y-68275000D03*
%TO.P,J2,22,Pin_22*%
%TO.N,unconnected-(J2-Pin_22-Pad22)*%
X142875000Y-65735000D03*
%TO.P,J2,23,Pin_23*%
%TO.N,unconnected-(J2-Pin_23-Pad23)*%
X145415000Y-68275000D03*
%TO.P,J2,24,Pin_24*%
%TO.N,unconnected-(J2-Pin_24-Pad24)*%
X145415000Y-65735000D03*
%TO.P,J2,25,Pin_25*%
%TO.N,unconnected-(J2-Pin_25-Pad25)*%
X147955000Y-68275000D03*
%TO.P,J2,26,Pin_26*%
%TO.N,unconnected-(J2-Pin_26-Pad26)*%
X147955000Y-65735000D03*
%TO.P,J2,27,Pin_27*%
%TO.N,unconnected-(J2-Pin_27-Pad27)*%
X150495000Y-68275000D03*
%TO.P,J2,28,Pin_28*%
%TO.N,unconnected-(J2-Pin_28-Pad28)*%
X150495000Y-65735000D03*
%TO.P,J2,29,Pin_29*%
%TO.N,unconnected-(J2-Pin_29-Pad29)*%
X153035000Y-68275000D03*
%TO.P,J2,30,Pin_30*%
%TO.N,unconnected-(J2-Pin_30-Pad30)*%
X153035000Y-65735000D03*
%TO.P,J2,31,Pin_31*%
%TO.N,unconnected-(J2-Pin_31-Pad31)*%
X155575000Y-68275000D03*
%TO.P,J2,32,Pin_32*%
%TO.N,unconnected-(J2-Pin_32-Pad32)*%
X155575000Y-65735000D03*
%TO.P,J2,33,Pin_33*%
%TO.N,unconnected-(J2-Pin_33-Pad33)*%
X158115000Y-68275000D03*
%TO.P,J2,34,Pin_34*%
%TO.N,unconnected-(J2-Pin_34-Pad34)*%
X158115000Y-65735000D03*
%TO.P,J2,35,Pin_35*%
%TO.N,unconnected-(J2-Pin_35-Pad35)*%
X160655000Y-68275000D03*
%TO.P,J2,36,Pin_36*%
%TO.N,unconnected-(J2-Pin_36-Pad36)*%
X160655000Y-65735000D03*
%TO.P,J2,37,Pin_37*%
%TO.N,unconnected-(J2-Pin_37-Pad37)*%
X163195000Y-68275000D03*
%TO.P,J2,38,Pin_38*%
%TO.N,unconnected-(J2-Pin_38-Pad38)*%
X163195000Y-65735000D03*
%TD*%
D13*
%TO.P,J12,1,Pin_1*%
%TO.N,Net-(J12-Pin_1)*%
X252750000Y-86380000D03*
D14*
%TO.P,J12,2,Pin_2*%
X250210000Y-86380000D03*
%TO.P,J12,3,Pin_3*%
X252750000Y-88920000D03*
%TO.P,J12,4,Pin_4*%
X250210000Y-88920000D03*
%TD*%
D13*
%TO.P,J4,1,Pin_1*%
%TO.N,unconnected-(J4-Pin_1-Pad1)*%
X145415000Y-73355000D03*
D14*
%TO.P,J4,2,Pin_2*%
%TO.N,unconnected-(J4-Pin_2-Pad2)*%
X142875000Y-73355000D03*
%TO.P,J4,3,Pin_3*%
%TO.N,GND*%
X140335000Y-73355000D03*
%TO.P,J4,4,Pin_4*%
%TO.N,5V*%
X137795000Y-73355000D03*
%TO.P,J4,5,Pin_5*%
%TO.N,unconnected-(J4-Pin_5-Pad5)*%
X135255000Y-73355000D03*
%TO.P,J4,6,Pin_6*%
%TO.N,unconnected-(J4-Pin_6-Pad6)*%
X132715000Y-73355000D03*
%TO.P,J4,7,Pin_7*%
%TO.N,unconnected-(J4-Pin_7-Pad7)*%
X130175000Y-73355000D03*
%TO.P,J4,8,Pin_8*%
%TO.N,unconnected-(J4-Pin_8-Pad8)*%
X127635000Y-73355000D03*
%TD*%
D17*
%TO.P,TP18,1,1*%
%TO.N,Net-(J12-Pin_1)*%
X243205000Y-83820000D03*
%TD*%
D18*
%TO.P,J14,1,Pin_1*%
%TO.N,FIX_B*%
X179705000Y-118110000D03*
%TD*%
D19*
%TO.P,J9,1,Pin_1*%
%TO.N,GND*%
X173355000Y-62230000D03*
D18*
%TO.P,J9,2,Pin_2*%
%TO.N,+12V*%
X168275000Y-62230000D03*
%TD*%
D20*
%TO.P,TP6,1,1*%
%TO.N,FIX_A*%
X184150000Y-97155000D03*
%TD*%
D11*
%TO.P,F1,1*%
%TO.N,Net-(Q1-D)*%
X129032000Y-81798000D03*
%TO.P,F1,2*%
%TO.N,Net-(J15-Pin_1)*%
X123952000Y-81788000D03*
%TD*%
D21*
%TO.P,J19,1,In*%
%TO.N,Net-(J19-In)*%
X210820000Y-62230000D03*
D22*
%TO.P,J19,2,Ext*%
%TO.N,Net-(J18-Pin_1)*%
X207645000Y-59055000D03*
X207645000Y-65405000D03*
X213995000Y-59055000D03*
X213995000Y-65405000D03*
%TD*%
D23*
%TO.P,R9,1*%
%TO.N,Net-(J15-Pin_1)*%
X38100000Y-88265000D03*
%TO.P,R9,2*%
%TO.N,FIX_B*%
X53340000Y-88265000D03*
%TD*%
D21*
%TO.P,J13,1,In*%
%TO.N,Net-(J11-Pin_1)*%
X238125000Y-62230000D03*
D22*
%TO.P,J13,2,Ext*%
%TO.N,Net-(J12-Pin_1)*%
X234950000Y-59055000D03*
X234950000Y-65405000D03*
X241300000Y-59055000D03*
X241300000Y-65405000D03*
%TD*%
D17*
%TO.P,TP17,1,1*%
%TO.N,Net-(J19-In)*%
X201295000Y-110490000D03*
%TD*%
D20*
%TO.P,TP14,1,1*%
%TO.N,Net-(J19-In)*%
X200660000Y-62230000D03*
%TD*%
D24*
%TO.P,C14,1*%
%TO.N,FIX_B*%
X102235000Y-107950000D03*
D25*
%TO.P,C14,2*%
%TO.N,Net-(J17-Pin_1)*%
X102235000Y-117950000D03*
%TD*%
D13*
%TO.P,J1,1,Pin_1*%
%TO.N,unconnected-(J1-Pin_1-Pad1)*%
X117475000Y-129185000D03*
D14*
%TO.P,J1,2,Pin_2*%
%TO.N,unconnected-(J1-Pin_2-Pad2)*%
X117475000Y-126645000D03*
%TO.P,J1,3,Pin_3*%
%TO.N,unconnected-(J1-Pin_3-Pad3)*%
X120015000Y-129185000D03*
%TO.P,J1,4,Pin_4*%
%TO.N,unconnected-(J1-Pin_4-Pad4)*%
X120015000Y-126645000D03*
%TO.P,J1,5,Pin_5*%
%TO.N,unconnected-(J1-Pin_5-Pad5)*%
X122555000Y-129185000D03*
%TO.P,J1,6,Pin_6*%
%TO.N,unconnected-(J1-Pin_6-Pad6)*%
X122555000Y-126645000D03*
%TO.P,J1,7,Pin_7*%
%TO.N,unconnected-(J1-Pin_7-Pad7)*%
X125095000Y-129185000D03*
%TO.P,J1,8,Pin_8*%
%TO.N,unconnected-(J1-Pin_8-Pad8)*%
X125095000Y-126645000D03*
%TO.P,J1,9,Pin_9*%
%TO.N,unconnected-(J1-Pin_9-Pad9)*%
X127635000Y-129185000D03*
%TO.P,J1,10,Pin_10*%
%TO.N,unconnected-(J1-Pin_10-Pad10)*%
X127635000Y-126645000D03*
%TO.P,J1,11,Pin_11*%
%TO.N,unconnected-(J1-Pin_11-Pad11)*%
X130175000Y-129185000D03*
%TO.P,J1,12,Pin_12*%
%TO.N,unconnected-(J1-Pin_12-Pad12)*%
X130175000Y-126645000D03*
%TO.P,J1,13,Pin_13*%
%TO.N,unconnected-(J1-Pin_13-Pad13)*%
X132715000Y-129185000D03*
%TO.P,J1,14,Pin_14*%
%TO.N,unconnected-(J1-Pin_14-Pad14)*%
X132715000Y-126645000D03*
%TO.P,J1,15,Pin_15*%
%TO.N,unconnected-(J1-Pin_15-Pad15)*%
X135255000Y-129185000D03*
%TO.P,J1,16,Pin_16*%
%TO.N,unconnected-(J1-Pin_16-Pad16)*%
X135255000Y-126645000D03*
%TO.P,J1,17,Pin_17*%
%TO.N,unconnected-(J1-Pin_17-Pad17)*%
X137795000Y-129185000D03*
%TO.P,J1,18,Pin_18*%
%TO.N,unconnected-(J1-Pin_18-Pad18)*%
X137795000Y-126645000D03*
%TO.P,J1,19,Pin_19*%
%TO.N,unconnected-(J1-Pin_19-Pad19)*%
X140335000Y-129185000D03*
%TO.P,J1,20,Pin_20*%
%TO.N,unconnected-(J1-Pin_20-Pad20)*%
X140335000Y-126645000D03*
%TO.P,J1,21,Pin_21*%
%TO.N,unconnected-(J1-Pin_21-Pad21)*%
X142875000Y-129185000D03*
%TO.P,J1,22,Pin_22*%
%TO.N,unconnected-(J1-Pin_22-Pad22)*%
X142875000Y-126645000D03*
%TO.P,J1,23,Pin_23*%
%TO.N,unconnected-(J1-Pin_23-Pad23)*%
X145415000Y-129185000D03*
%TO.P,J1,24,Pin_24*%
%TO.N,unconnected-(J1-Pin_24-Pad24)*%
X145415000Y-126645000D03*
%TO.P,J1,25,Pin_25*%
%TO.N,unconnected-(J1-Pin_25-Pad25)*%
X147955000Y-129185000D03*
%TO.P,J1,26,Pin_26*%
%TO.N,unconnected-(J1-Pin_26-Pad26)*%
X147955000Y-126645000D03*
%TO.P,J1,27,Pin_27*%
%TO.N,unconnected-(J1-Pin_27-Pad27)*%
X150495000Y-129185000D03*
%TO.P,J1,28,Pin_28*%
%TO.N,unconnected-(J1-Pin_28-Pad28)*%
X150495000Y-126645000D03*
%TO.P,J1,29,Pin_29*%
%TO.N,unconnected-(J1-Pin_29-Pad29)*%
X153035000Y-129185000D03*
%TO.P,J1,30,Pin_30*%
%TO.N,unconnected-(J1-Pin_30-Pad30)*%
X153035000Y-126645000D03*
%TO.P,J1,31,Pin_31*%
%TO.N,unconnected-(J1-Pin_31-Pad31)*%
X155575000Y-129185000D03*
%TO.P,J1,32,Pin_32*%
%TO.N,unconnected-(J1-Pin_32-Pad32)*%
X155575000Y-126645000D03*
%TO.P,J1,33,Pin_33*%
%TO.N,unconnected-(J1-Pin_33-Pad33)*%
X158115000Y-129185000D03*
%TO.P,J1,34,Pin_34*%
%TO.N,unconnected-(J1-Pin_34-Pad34)*%
X158115000Y-126645000D03*
%TO.P,J1,35,Pin_35*%
%TO.N,unconnected-(J1-Pin_35-Pad35)*%
X160655000Y-129185000D03*
%TO.P,J1,36,Pin_36*%
%TO.N,unconnected-(J1-Pin_36-Pad36)*%
X160655000Y-126645000D03*
%TO.P,J1,37,Pin_37*%
%TO.N,unconnected-(J1-Pin_37-Pad37)*%
X163195000Y-129185000D03*
%TO.P,J1,38,Pin_38*%
%TO.N,unconnected-(J1-Pin_38-Pad38)*%
X163195000Y-126645000D03*
%TD*%
D20*
%TO.P,TP12,1,1*%
%TO.N,GND*%
X173355000Y-71120000D03*
%TD*%
D24*
%TO.P,C10,1*%
%TO.N,Net-(J15-Pin_1)*%
X71120000Y-76360000D03*
D25*
%TO.P,C10,2*%
%TO.N,FIX_B*%
X71120000Y-86360000D03*
%TD*%
D13*
%TO.P,J8,1,Pin_1*%
%TO.N,unconnected-(J8-Pin_1-Pad1)*%
X92075000Y-65659000D03*
D14*
%TO.P,J8,2,Pin_2*%
%TO.N,unconnected-(J8-Pin_2-Pad2)*%
X89535000Y-65659000D03*
%TD*%
D13*
%TO.P,J6,1,Pin_1*%
%TO.N,unconnected-(J6-Pin_1-Pad1)*%
X141395000Y-121585000D03*
D14*
%TO.P,J6,2,Pin_2*%
%TO.N,unconnected-(J6-Pin_2-Pad2)*%
X138855000Y-121585000D03*
%TO.P,J6,3,Pin_3*%
%TO.N,unconnected-(J6-Pin_3-Pad3)*%
X136315000Y-121585000D03*
%TO.P,J6,4,Pin_4*%
%TO.N,unconnected-(J6-Pin_4-Pad4)*%
X133775000Y-121585000D03*
%TO.P,J6,5,Pin_5*%
%TO.N,unconnected-(J6-Pin_5-Pad5)*%
X131235000Y-121585000D03*
%TO.P,J6,6,Pin_6*%
%TO.N,unconnected-(J6-Pin_6-Pad6)*%
X128695000Y-121585000D03*
%TO.P,J6,7,Pin_7*%
%TO.N,unconnected-(J6-Pin_7-Pad7)*%
X126155000Y-121585000D03*
%TO.P,J6,8,Pin_8*%
%TO.N,unconnected-(J6-Pin_8-Pad8)*%
X123615000Y-121585000D03*
%TO.P,J6,9,Pin_9*%
%TO.N,unconnected-(J6-Pin_9-Pad9)*%
X121075000Y-121585000D03*
%TO.P,J6,10,Pin_10*%
%TO.N,unconnected-(J6-Pin_10-Pad10)*%
X118535000Y-121585000D03*
%TD*%
D20*
%TO.P,TP5,1,1*%
%TO.N,PWM_L*%
X147320000Y-97028000D03*
%TD*%
%TO.P,TP4,1,1*%
%TO.N,PWM_U*%
X147320000Y-91440000D03*
%TD*%
D18*
%TO.P,J18,1,Pin_1*%
%TO.N,Net-(J18-Pin_1)*%
X184785000Y-118110000D03*
%TD*%
D25*
%TO.P,J16,1,Pin_1*%
%TO.N,FIX_B*%
X50930000Y-97155000D03*
X35430000Y-97155000D03*
%TD*%
D20*
%TO.P,TP11,1,1*%
%TO.N,GND*%
X147320000Y-102616000D03*
%TD*%
D15*
%TO.P,Q2,1,G*%
%TO.N,Net-(Q2-G)*%
X180340000Y-104140000D03*
D16*
%TO.P,Q2,2,D*%
%TO.N,FIX_A*%
X180340000Y-106680000D03*
%TO.P,Q2,3,S*%
%TO.N,Net-(Q2-S)*%
X180340000Y-109220000D03*
%TD*%
D13*
%TO.P,J5,1,Pin_1*%
%TO.N,unconnected-(J5-Pin_1-Pad1)*%
X163195000Y-73355000D03*
D14*
%TO.P,J5,2,Pin_2*%
%TO.N,unconnected-(J5-Pin_2-Pad2)*%
X160655000Y-73355000D03*
%TO.P,J5,3,Pin_3*%
%TO.N,unconnected-(J5-Pin_3-Pad3)*%
X158115000Y-73355000D03*
%TO.P,J5,4,Pin_4*%
%TO.N,unconnected-(J5-Pin_4-Pad4)*%
X155575000Y-73355000D03*
%TO.P,J5,5,Pin_5*%
%TO.N,unconnected-(J5-Pin_5-Pad5)*%
X153035000Y-73355000D03*
%TO.P,J5,6,Pin_6*%
%TO.N,unconnected-(J5-Pin_6-Pad6)*%
X150495000Y-73355000D03*
%TD*%
D12*
%TO.P,TP1,1,1*%
%TO.N,FIX_A*%
X184150000Y-62230000D03*
%TD*%
D17*
%TO.P,TP16,1,1*%
%TO.N,FIX_A*%
X201295000Y-83820000D03*
%TD*%
D23*
%TO.P,R10,1*%
%TO.N,FIX_B*%
X53340000Y-106045000D03*
%TO.P,R10,2*%
%TO.N,Net-(J17-Pin_1)*%
X38100000Y-106045000D03*
%TD*%
D25*
%TO.P,J17,1,Pin_1*%
%TO.N,Net-(J17-Pin_1)*%
X50930000Y-115570000D03*
X35430000Y-115570000D03*
%TD*%
%TO.P,J15,1,Pin_1*%
%TO.N,Net-(J15-Pin_1)*%
X51060000Y-78900000D03*
X35560000Y-78900000D03*
%TD*%
D20*
%TO.P,TP15,1,1*%
%TO.N,Net-(J18-Pin_1)*%
X220980000Y-62230000D03*
%TD*%
%TO.P,TP13,1,1*%
%TO.N,Net-(J12-Pin_1)*%
X248920000Y-62230000D03*
%TD*%
D24*
%TO.P,C13,1*%
%TO.N,FIX_B*%
X71120000Y-107950000D03*
D25*
%TO.P,C13,2*%
%TO.N,Net-(J17-Pin_1)*%
X71120000Y-117950000D03*
%TD*%
D13*
%TO.P,J7,1,Pin_1*%
%TO.N,unconnected-(J7-Pin_1-Pad1)*%
X92075000Y-129185000D03*
D14*
%TO.P,J7,2,Pin_2*%
%TO.N,unconnected-(J7-Pin_2-Pad2)*%
X89535000Y-129185000D03*
%TD*%
D13*
%TO.P,J3,1,Pin_1*%
%TO.N,unconnected-(J3-Pin_1-Pad1)*%
X163195000Y-121585000D03*
D14*
%TO.P,J3,2,Pin_2*%
%TO.N,unconnected-(J3-Pin_2-Pad2)*%
X160655000Y-121585000D03*
%TO.P,J3,3,Pin_3*%
%TO.N,unconnected-(J3-Pin_3-Pad3)*%
X158115000Y-121585000D03*
%TO.P,J3,4,Pin_4*%
%TO.N,unconnected-(J3-Pin_4-Pad4)*%
X155575000Y-121585000D03*
%TO.P,J3,5,Pin_5*%
%TO.N,unconnected-(J3-Pin_5-Pad5)*%
X153035000Y-121585000D03*
%TO.P,J3,6,Pin_6*%
%TO.N,PWM_L*%
X150495000Y-121585000D03*
%TO.P,J3,7,Pin_7*%
%TO.N,PWM_U*%
X147955000Y-121585000D03*
%TO.P,J3,8,Pin_8*%
%TO.N,unconnected-(J3-Pin_8-Pad8)*%
X145415000Y-121585000D03*
%TD*%
D13*
%TO.P,J21,1,Pin_1*%
%TO.N,FIX_A*%
X191770000Y-86360000D03*
D14*
%TO.P,J21,2,Pin_2*%
X194310000Y-86360000D03*
%TO.P,J21,3,Pin_3*%
X191770000Y-88900000D03*
%TO.P,J21,4,Pin_4*%
X194310000Y-88900000D03*
%TO.P,J21,5,Pin_5*%
X191770000Y-91440000D03*
%TO.P,J21,6,Pin_6*%
X194310000Y-91440000D03*
%TD*%
D17*
%TO.P,TP19,1,1*%
%TO.N,Net-(J11-Pin_1)*%
X243205000Y-110490000D03*
%TD*%
D20*
%TO.P,TP10,1,1*%
%TO.N,Net-(J11-Pin_1)*%
X227330000Y-62230000D03*
%TD*%
D24*
%TO.P,C11,1*%
%TO.N,Net-(J15-Pin_1)*%
X102235000Y-76360000D03*
D25*
%TO.P,C11,2*%
%TO.N,FIX_B*%
X102235000Y-86360000D03*
%TD*%
D26*
%TO.P,U7,1,-Vin*%
%TO.N,GND*%
X158750000Y-99255000D03*
%TO.P,U7,2,+Vin*%
%TO.N,+12V*%
X160655000Y-99255000D03*
%TO.P,U7,4,-Vout*%
%TO.N,Net-(Q2-S)*%
X166370000Y-99255000D03*
%TO.P,U7,5,+Vout*%
%TO.N,Net-(U7-+Vout)*%
X166370000Y-109855000D03*
%TO.P,U7,8,nc*%
%TO.N,unconnected-(U7-nc-Pad8)*%
X158750000Y-109855000D03*
%TD*%
D27*
%TO.P,C6,1*%
%TO.N,+12V*%
X154305000Y-87945000D03*
%TO.P,C6,2*%
%TO.N,GND*%
X154305000Y-86045000D03*
%TD*%
%TO.P,C35,1*%
%TO.N,Net-(U7-+Vout)*%
X170815000Y-102550000D03*
%TO.P,C35,2*%
%TO.N,Net-(Q2-S)*%
X170815000Y-100650000D03*
%TD*%
%TO.P,C34,1*%
%TO.N,Net-(U1-+Vout)*%
X170815000Y-87945000D03*
%TO.P,C34,2*%
%TO.N,FIX_A*%
X170815000Y-86045000D03*
%TD*%
%TO.P,C4,1*%
%TO.N,+12V*%
X154305000Y-102550000D03*
%TO.P,C4,2*%
%TO.N,GND*%
X154305000Y-100650000D03*
%TD*%
%TO.P,C36,1*%
%TO.N,Net-(U1-+Vout)*%
X172720000Y-87945000D03*
%TO.P,C36,2*%
%TO.N,FIX_A*%
X172720000Y-86045000D03*
%TD*%
D26*
%TO.P,U1,1,-Vin*%
%TO.N,GND*%
X158750000Y-84455000D03*
%TO.P,U1,2,+Vin*%
%TO.N,+12V*%
X160655000Y-84455000D03*
%TO.P,U1,4,-Vout*%
%TO.N,FIX_A*%
X166370000Y-84455000D03*
%TO.P,U1,5,+Vout*%
%TO.N,Net-(U1-+Vout)*%
X166370000Y-95055000D03*
%TO.P,U1,8,nc*%
%TO.N,unconnected-(U1-nc-Pad8)*%
X158750000Y-95055000D03*
%TD*%
D27*
%TO.P,C37,1*%
%TO.N,Net-(U7-+Vout)*%
X172720000Y-102550000D03*
%TO.P,C37,2*%
%TO.N,Net-(Q2-S)*%
X172720000Y-100650000D03*
%TD*%
D28*
%TO.N,Net-(J18-Pin_1)*%
X188214000Y-115570000D03*
X188976000Y-115570000D03*
X190500000Y-115570000D03*
X191262000Y-115570000D03*
X192024000Y-115570000D03*
X194310000Y-115570000D03*
X193548000Y-115570000D03*
X192786000Y-115570000D03*
X189738000Y-115570000D03*
%TO.N,Net-(J19-In)*%
X193548000Y-111252000D03*
X192024000Y-111252000D03*
X190500000Y-111252000D03*
X188976000Y-111252000D03*
X188214000Y-111252000D03*
X194310000Y-111252000D03*
X192786000Y-111252000D03*
X189738000Y-111252000D03*
X191262000Y-111252000D03*
%TO.N,+5V*%
X119380000Y-75565000D03*
X151130000Y-99695000D03*
X151130000Y-97155000D03*
%TO.N,GND*%
X152400000Y-90170000D03*
X158750000Y-92710000D03*
X152400000Y-92075000D03*
X152400000Y-102235000D03*
X152400000Y-95885000D03*
X158750000Y-102870000D03*
X152400000Y-100330000D03*
X152400000Y-106045000D03*
%TO.N,+12V*%
X168275000Y-72644000D03*
%TO.N,FIX_B*%
X156210000Y-117856000D03*
X139192000Y-99568000D03*
X139192000Y-93980000D03*
X163195000Y-117856000D03*
X175260000Y-117856000D03*
X139192000Y-100584000D03*
X137160000Y-94996000D03*
X160020000Y-117856000D03*
X174625000Y-117856000D03*
X138176000Y-93980000D03*
X139192000Y-94996000D03*
X138176000Y-98552000D03*
X139192000Y-96012000D03*
X171450000Y-117856000D03*
X137160000Y-98552000D03*
X138176000Y-96012000D03*
X168275000Y-117856000D03*
X156845000Y-117856000D03*
X138176000Y-94996000D03*
X160655000Y-117856000D03*
X163830000Y-117856000D03*
X137160000Y-99568000D03*
X137160000Y-96012000D03*
X175895000Y-117856000D03*
X167005000Y-117856000D03*
X137160000Y-93980000D03*
X138176000Y-99568000D03*
X172085000Y-117856000D03*
X159385000Y-117856000D03*
X139192000Y-98552000D03*
X137160000Y-100584000D03*
X138176000Y-100584000D03*
X155575000Y-117856000D03*
X164465000Y-117856000D03*
X170815000Y-117856000D03*
X167640000Y-117856000D03*
%TO.N,Net-(U1-+Vout)*%
X167640000Y-90170000D03*
%TO.N,Net-(U7-+Vout)*%
X167640000Y-100330000D03*
%TO.N,PWM_L*%
X136144000Y-107696000D03*
%TO.N,PWM_U*%
X134112000Y-106172000D03*
%TO.N,Net-(Q2-S)*%
X175260000Y-106045000D03*
%TD*%
D29*
%TO.N,Net-(J19-In)*%
X196342000Y-113322000D02*
X194945000Y-111925000D01*
X196342000Y-113538000D02*
X196342000Y-113322000D01*
X196596000Y-113792000D02*
X196342000Y-113538000D01*
X196596000Y-113919000D02*
X196596000Y-113792000D01*
X196850000Y-114173000D02*
X196596000Y-113919000D01*
X196850000Y-114300000D02*
X196850000Y-114173000D01*
X198755000Y-116205000D02*
X203835000Y-116205000D01*
X198755000Y-116205000D02*
X196850000Y-114300000D01*
%TO.N,Net-(J18-Pin_1)*%
X197993000Y-117221000D02*
X204343000Y-117221000D01*
X195326000Y-115570000D02*
X195072000Y-115316000D01*
X196342000Y-115570000D02*
X195326000Y-115570000D01*
X197993000Y-117221000D02*
X196342000Y-115570000D01*
X214122000Y-107442000D02*
X204343000Y-117221000D01*
%TO.N,Net-(J19-In)*%
X210820000Y-109220000D02*
X203835000Y-116205000D01*
X210820000Y-70485000D02*
X210820000Y-109220000D01*
D30*
%TO.N,Net-(J18-Pin_1)*%
X184785000Y-118110000D02*
X187706000Y-115570000D01*
%TO.N,Net-(J19-In)*%
X191765000Y-102885000D02*
X191770000Y-111252000D01*
X194305000Y-102885000D02*
X194310000Y-111252000D01*
X187706000Y-111252000D02*
X194564000Y-111252000D01*
%TO.N,Net-(J18-Pin_1)*%
X187706000Y-115570000D02*
X194564000Y-115570000D01*
D31*
%TO.N,FIX_A*%
X177800000Y-90170000D02*
X180340000Y-90170000D01*
X172720000Y-86045000D02*
X173929000Y-86045000D01*
X173929000Y-86045000D02*
X177800000Y-90170000D01*
D29*
%TO.N,+5V*%
X146685000Y-75565000D02*
X147955000Y-76835000D01*
X119380000Y-75565000D02*
X146685000Y-75565000D01*
X151130000Y-97155000D02*
X151130000Y-80010000D01*
X151130000Y-80010000D02*
X147955000Y-76835000D01*
%TO.N,Net-(U7-+Vout)*%
X169860000Y-102550000D02*
X170815000Y-102550000D01*
D31*
X172720000Y-106045000D02*
X172720000Y-102550000D01*
X168910000Y-109855000D02*
X172720000Y-106045000D01*
X166370000Y-109855000D02*
X168910000Y-109855000D01*
%TO.N,Net-(U1-+Vout)*%
X169105000Y-95055000D02*
X172720000Y-91440000D01*
X166370000Y-95055000D02*
X169105000Y-95055000D01*
X172720000Y-91440000D02*
X172720000Y-87945000D01*
%TO.N,Net-(U7-+Vout)*%
X172720000Y-102550000D02*
X170815000Y-102550000D01*
D29*
%TO.N,+5V*%
X151130000Y-97155000D02*
X151130000Y-99695000D01*
%TO.N,+12V*%
X158264999Y-87945000D02*
X160655000Y-90335001D01*
X160655000Y-90335001D02*
X160655000Y-99255000D01*
%TO.N,GND*%
X158115000Y-84455000D02*
X156525000Y-86045000D01*
X152720000Y-100650000D02*
X152400000Y-100330000D01*
D32*
X173355000Y-62230000D02*
X173355000Y-71120000D01*
D29*
X154305000Y-100650000D02*
X152720000Y-100650000D01*
D32*
X140335000Y-73355000D02*
X140335000Y-72390000D01*
D29*
X156525000Y-100650000D02*
X154305000Y-100650000D01*
X156525000Y-86045000D02*
X154305000Y-86045000D01*
D32*
X140335000Y-72390000D02*
X141605000Y-71120000D01*
D29*
X165735000Y-74930000D02*
X165735000Y-71120000D01*
X158750000Y-92710000D02*
X155575000Y-92710000D01*
D32*
X165735000Y-71120000D02*
X173355000Y-71120000D01*
D29*
X147320000Y-102616000D02*
X152400000Y-102616000D01*
X153350000Y-86045000D02*
X152400000Y-86995000D01*
D31*
X152400000Y-104140000D02*
X152400000Y-106045000D01*
D29*
X155575000Y-92710000D02*
X154940000Y-92075000D01*
X158750000Y-84455000D02*
X158115000Y-84455000D01*
X154305000Y-86045000D02*
X153350000Y-86045000D01*
X157920000Y-99255000D02*
X156525000Y-100650000D01*
X158750000Y-102870000D02*
X157480000Y-104140000D01*
X157480000Y-104140000D02*
X152400000Y-104140000D01*
X158750000Y-82042000D02*
X165735000Y-74930000D01*
D31*
X152400000Y-104140000D02*
X152400000Y-86995000D01*
D29*
X154940000Y-92075000D02*
X152400000Y-92075000D01*
D32*
X141605000Y-71120000D02*
X167640000Y-71120000D01*
D29*
X158750000Y-84455000D02*
X158750000Y-82042000D01*
X158750000Y-99255000D02*
X157920000Y-99255000D01*
%TO.N,+12V*%
X160655000Y-100965000D02*
X160655000Y-99255000D01*
X154305000Y-102550000D02*
X157165000Y-102550000D01*
X158264999Y-87945000D02*
X160655000Y-85554999D01*
X160655000Y-85554999D02*
X160655000Y-84455000D01*
X160655000Y-82169000D02*
X168275000Y-74295000D01*
X160020000Y-101600000D02*
X160655000Y-100965000D01*
X160655000Y-84455000D02*
X160655000Y-82169000D01*
X158115000Y-101600000D02*
X157165000Y-102550000D01*
X154305000Y-87945000D02*
X158264999Y-87945000D01*
X168275000Y-74295000D02*
X168275000Y-72644000D01*
X158115000Y-101600000D02*
X160020000Y-101600000D01*
D31*
%TO.N,FIX_A*%
X166370000Y-84455000D02*
X168115000Y-84455000D01*
X168115000Y-84455000D02*
X169705000Y-86045000D01*
X169705000Y-86045000D02*
X172720000Y-86045000D01*
X191770000Y-86360000D02*
X194310000Y-86360000D01*
D30*
X196215000Y-88900000D02*
X201295000Y-83820000D01*
X194310000Y-86360000D02*
X194310000Y-91440000D01*
X191770000Y-86360000D02*
X191770000Y-91440000D01*
X194310000Y-88900000D02*
X196215000Y-88900000D01*
D33*
%TO.N,FIX_B*%
X60325000Y-97155000D02*
X71120000Y-107950000D01*
X60325000Y-97155000D02*
X50930000Y-97155000D01*
D30*
X179070000Y-117475000D02*
X179705000Y-118110000D01*
D33*
X134620000Y-99695000D02*
X110490000Y-99695000D01*
X60325000Y-97155000D02*
X71120000Y-86360000D01*
X151447500Y-116840000D02*
X138430000Y-104775000D01*
X110765000Y-94890000D02*
X102235000Y-86360000D01*
D30*
X138430000Y-99695000D02*
X138430000Y-94890000D01*
D33*
X138430000Y-104775000D02*
X138430000Y-94890000D01*
D30*
X138430000Y-99695000D02*
X138430000Y-97997944D01*
X35430000Y-97155000D02*
X50930000Y-97155000D01*
D33*
X138430000Y-99695000D02*
X134620000Y-99695000D01*
X102235000Y-107950000D02*
X71120000Y-107950000D01*
X110490000Y-99695000D02*
X102235000Y-107950000D01*
X178435000Y-116840000D02*
X151447500Y-116840000D01*
X102235000Y-86360000D02*
X71120000Y-86360000D01*
X138430000Y-94890000D02*
X110765000Y-94890000D01*
D29*
%TO.N,Net-(J11-Pin_1)*%
X238125000Y-62230000D02*
X238125000Y-73660000D01*
X227330000Y-66675000D02*
X231140000Y-70485000D01*
X231140000Y-70485000D02*
X238142597Y-70485000D01*
X234950000Y-104140000D02*
X243205000Y-110490000D01*
D34*
X250210000Y-107970000D02*
X252750000Y-107970000D01*
D31*
X243205000Y-110490000D02*
X247015000Y-106680000D01*
X247015000Y-106680000D02*
X253365000Y-106680000D01*
D34*
X250210000Y-105430000D02*
X252750000Y-105430000D01*
D29*
X227330000Y-62230000D02*
X227330000Y-66675000D01*
X238125000Y-73660000D02*
X234950000Y-76835000D01*
X234950000Y-76835000D02*
X234950000Y-104140000D01*
D33*
%TO.N,Net-(J17-Pin_1)*%
X117588000Y-112776000D02*
X117588000Y-112917000D01*
X71120000Y-117950000D02*
X53310000Y-117950000D01*
X102235000Y-117950000D02*
X112555000Y-117950000D01*
X53310000Y-117950000D02*
X50930000Y-115570000D01*
X117588000Y-112917000D02*
X112555000Y-117950000D01*
D30*
X123825000Y-113030000D02*
X120142000Y-113030000D01*
X120142000Y-113030000D02*
X119888000Y-112776000D01*
D33*
X117588000Y-112776000D02*
X119888000Y-112776000D01*
X102235000Y-117950000D02*
X71120000Y-117950000D01*
D30*
X50930000Y-115570000D02*
X35430000Y-115570000D01*
D31*
%TO.N,Net-(J12-Pin_1)*%
X243205000Y-83820000D02*
X243205000Y-70485000D01*
X243205000Y-83820000D02*
X247015000Y-87630000D01*
X241300000Y-68580000D02*
X241300000Y-65405000D01*
X243205000Y-70485000D02*
X241300000Y-68580000D01*
D34*
X250210000Y-88920000D02*
X252750000Y-88920000D01*
D31*
X247015000Y-87630000D02*
X253365000Y-87630000D01*
X248920000Y-62230000D02*
X241300000Y-62230000D01*
D34*
X250210000Y-86380000D02*
X252750000Y-86380000D01*
D31*
X234950000Y-65405000D02*
X234950000Y-59055000D01*
X234950000Y-59055000D02*
X241300000Y-59055000D01*
X241300000Y-62230000D02*
X241300000Y-65405000D01*
X241300000Y-59055000D02*
X241300000Y-62230000D01*
D30*
%TO.N,Net-(J15-Pin_1)*%
X123952000Y-81788000D02*
X119380000Y-81788000D01*
D33*
X117348000Y-81788000D02*
X119380000Y-81788000D01*
X111920000Y-76360000D02*
X117348000Y-81788000D01*
X111920000Y-76360000D02*
X102235000Y-76360000D01*
X53600000Y-76360000D02*
X51060000Y-78900000D01*
D30*
X35560000Y-78900000D02*
X51060000Y-78900000D01*
D33*
X71120000Y-76360000D02*
X53600000Y-76360000D01*
X102235000Y-76360000D02*
X71120000Y-76360000D01*
D31*
%TO.N,Net-(J18-Pin_1)*%
X213995000Y-65405000D02*
X213995000Y-107315000D01*
X207645000Y-59055000D02*
X213995000Y-59055000D01*
X207645000Y-59055000D02*
X207645000Y-65405000D01*
X220980000Y-62230000D02*
X213995000Y-62230000D01*
X213995000Y-59055000D02*
X213995000Y-62230000D01*
X213995000Y-62230000D02*
X213995000Y-65405000D01*
D30*
%TO.N,Net-(J19-In)*%
X196230000Y-105425000D02*
X201295000Y-110490000D01*
D29*
X200660000Y-66675000D02*
X204470000Y-70485000D01*
X200660000Y-62230000D02*
X200660000Y-66675000D01*
D31*
X191765000Y-102885000D02*
X194305000Y-102885000D01*
D29*
X204470000Y-70485000D02*
X210820000Y-70485000D01*
X210820000Y-62230000D02*
X210820000Y-70485000D01*
D31*
X191765000Y-107965000D02*
X194305000Y-107965000D01*
D30*
X194305000Y-105425000D02*
X196230000Y-105425000D01*
D31*
%TO.N,Net-(U1-+Vout)*%
X169865000Y-87945000D02*
X172720000Y-87945000D01*
X167640000Y-90170000D02*
X169865000Y-87945000D01*
D29*
%TO.N,Net-(U7-+Vout)*%
X167640000Y-100330000D02*
X169860000Y-102550000D01*
%TO.N,PWM_L*%
X146258000Y-117348000D02*
X145796000Y-117348000D01*
X150495000Y-121585000D02*
X146258000Y-117348000D01*
X136144000Y-107696000D02*
X145796000Y-117348000D01*
%TO.N,PWM_U*%
X134112000Y-106172000D02*
X134112000Y-107696000D01*
X145796000Y-119426000D02*
X145796000Y-119380000D01*
X134112000Y-107696000D02*
X145796000Y-119380000D01*
X147955000Y-121585000D02*
X145796000Y-119426000D01*
D31*
%TO.N,Net-(Q2-S)*%
X172720000Y-100650000D02*
X173802000Y-100650000D01*
X169607500Y-100650000D02*
X172720000Y-100650000D01*
X168212500Y-99255000D02*
X169607500Y-100650000D01*
X173802000Y-100650000D02*
X175260000Y-102108000D01*
X175260000Y-102108000D02*
X175260000Y-106045000D01*
X166370000Y-99255000D02*
X168212500Y-99255000D01*
%TD*%
M02*
