%TF.GenerationSoftware,KiCad,Pcbnew,8.0.8*%
%TF.CreationDate,2025-01-31T18:41:33-06:00*%
%TF.ProjectId,ST2402,53543234-3032-42e6-9b69-6361645f7063,0*%
%TF.SameCoordinates,Original*%
%TF.FileFunction,Soldermask,Bot*%
%TF.FilePolarity,Negative*%
%FSLAX46Y46*%
G04 Gerber Fmt 4.6, Leading zero omitted, Abs format (unit mm)*
G04 Created by KiCad (PCBNEW 8.0.8) date 2025-01-31 18:41:33*
%MOMM*%
%LPD*%
G01*
G04 APERTURE LIST*
G04 Aperture macros list*
%AMRoundRect*
0 Rectangle with rounded corners*
0 $1 Rounding radius*
0 $2 $3 $4 $5 $6 $7 $8 $9 X,Y pos of 4 corners*
0 Add a 4 corners polygon primitive as box body*
4,1,4,$2,$3,$4,$5,$6,$7,$8,$9,$2,$3,0*
0 Add four circle primitives for the rounded corners*
1,1,$1+$1,$2,$3*
1,1,$1+$1,$4,$5*
1,1,$1+$1,$6,$7*
1,1,$1+$1,$8,$9*
0 Add four rect primitives between the rounded corners*
20,1,$1+$1,$2,$3,$4,$5,0*
20,1,$1+$1,$4,$5,$6,$7,0*
20,1,$1+$1,$6,$7,$8,$9,0*
20,1,$1+$1,$8,$9,$2,$3,0*%
G04 Aperture macros list end*
%ADD10C,2.000000*%
%ADD11R,1.700000X1.700000*%
%ADD12O,1.700000X1.700000*%
%ADD13C,2.400000*%
%ADD14R,2.000000X1.905000*%
%ADD15O,2.000000X1.905000*%
%ADD16C,3.200000*%
%ADD17C,8.000000*%
%ADD18C,3.000000*%
%ADD19R,3.000000X3.000000*%
%ADD20O,3.500000X7.000000*%
%ADD21O,1.600000X2.500000*%
%ADD22C,1.600000*%
%ADD23O,1.600000X1.600000*%
%ADD24R,4.000000X4.000000*%
%ADD25C,4.000000*%
%ADD26RoundRect,0.250000X0.450000X-0.262500X0.450000X0.262500X-0.450000X0.262500X-0.450000X-0.262500X0*%
G04 APERTURE END LIST*
D10*
%TO.C,F2*%
X165735000Y-82550000D03*
X160655000Y-82540000D03*
%TD*%
D11*
%TO.C,J11*%
X252750000Y-105430000D03*
D12*
X250210000Y-105430000D03*
X252750000Y-107970000D03*
X250210000Y-107970000D03*
%TD*%
D13*
%TO.C,C16*%
X138430000Y-79890000D03*
X138430000Y-94890000D03*
%TD*%
D10*
%TO.C,TP3*%
X147320000Y-118110000D03*
%TD*%
D14*
%TO.C,Q1*%
X180340000Y-85090000D03*
D15*
X180340000Y-87630000D03*
X180340000Y-90170000D03*
%TD*%
D11*
%TO.C,J22*%
X191765000Y-102885000D03*
D12*
X194305000Y-102885000D03*
X191765000Y-105425000D03*
X194305000Y-105425000D03*
X191765000Y-107965000D03*
X194305000Y-107965000D03*
%TD*%
D11*
%TO.C,J2*%
X117475000Y-68275000D03*
D12*
X117475000Y-65735000D03*
X120015000Y-68275000D03*
X120015000Y-65735000D03*
X122555000Y-68275000D03*
X122555000Y-65735000D03*
X125095000Y-68275000D03*
X125095000Y-65735000D03*
X127635000Y-68275000D03*
X127635000Y-65735000D03*
X130175000Y-68275000D03*
X130175000Y-65735000D03*
X132715000Y-68275000D03*
X132715000Y-65735000D03*
X135255000Y-68275000D03*
X135255000Y-65735000D03*
X137795000Y-68275000D03*
X137795000Y-65735000D03*
X140335000Y-68275000D03*
X140335000Y-65735000D03*
X142875000Y-68275000D03*
X142875000Y-65735000D03*
X145415000Y-68275000D03*
X145415000Y-65735000D03*
X147955000Y-68275000D03*
X147955000Y-65735000D03*
X150495000Y-68275000D03*
X150495000Y-65735000D03*
X153035000Y-68275000D03*
X153035000Y-65735000D03*
X155575000Y-68275000D03*
X155575000Y-65735000D03*
X158115000Y-68275000D03*
X158115000Y-65735000D03*
X160655000Y-68275000D03*
X160655000Y-65735000D03*
X163195000Y-68275000D03*
X163195000Y-65735000D03*
%TD*%
D11*
%TO.C,J12*%
X252750000Y-86380000D03*
D12*
X250210000Y-86380000D03*
X252750000Y-88920000D03*
X250210000Y-88920000D03*
%TD*%
D16*
%TO.C,H6*%
X36830000Y-135890000D03*
%TD*%
D11*
%TO.C,J4*%
X145415000Y-73355000D03*
D12*
X142875000Y-73355000D03*
X140335000Y-73355000D03*
X137795000Y-73355000D03*
X135255000Y-73355000D03*
X132715000Y-73355000D03*
X130175000Y-73355000D03*
X127635000Y-73355000D03*
%TD*%
D16*
%TO.C,H7*%
X112395000Y-135890000D03*
%TD*%
D17*
%TO.C,TP18*%
X243205000Y-87630000D03*
%TD*%
D18*
%TO.C,J14*%
X180975000Y-118110000D03*
%TD*%
D19*
%TO.C,J9*%
X179070000Y-62230000D03*
D18*
X173990000Y-62230000D03*
%TD*%
D13*
%TO.C,C12*%
X126365000Y-79890000D03*
X126365000Y-94890000D03*
%TD*%
D10*
%TO.C,TP6*%
X184150000Y-97790000D03*
%TD*%
%TO.C,F1*%
X153670000Y-82560000D03*
X148590000Y-82550000D03*
%TD*%
D20*
%TO.C,J19*%
X215900000Y-62230000D03*
D21*
X208280000Y-67310000D03*
D20*
X205740000Y-62230000D03*
D21*
X210820000Y-67310000D03*
%TD*%
D22*
%TO.C,R9*%
X38100000Y-88265000D03*
D23*
X53340000Y-88265000D03*
%TD*%
D20*
%TO.C,J13*%
X243205000Y-62230000D03*
D21*
X235585000Y-67310000D03*
D20*
X233045000Y-62230000D03*
D21*
X238125000Y-67310000D03*
%TD*%
D17*
%TO.C,TP17*%
X201295000Y-105410000D03*
%TD*%
D10*
%TO.C,TP14*%
X200660000Y-62230000D03*
%TD*%
D24*
%TO.C,C14*%
X102235000Y-107950000D03*
D25*
X102235000Y-117950000D03*
%TD*%
D11*
%TO.C,J1*%
X117475000Y-129185000D03*
D12*
X117475000Y-126645000D03*
X120015000Y-129185000D03*
X120015000Y-126645000D03*
X122555000Y-129185000D03*
X122555000Y-126645000D03*
X125095000Y-129185000D03*
X125095000Y-126645000D03*
X127635000Y-129185000D03*
X127635000Y-126645000D03*
X130175000Y-129185000D03*
X130175000Y-126645000D03*
X132715000Y-129185000D03*
X132715000Y-126645000D03*
X135255000Y-129185000D03*
X135255000Y-126645000D03*
X137795000Y-129185000D03*
X137795000Y-126645000D03*
X140335000Y-129185000D03*
X140335000Y-126645000D03*
X142875000Y-129185000D03*
X142875000Y-126645000D03*
X145415000Y-129185000D03*
X145415000Y-126645000D03*
X147955000Y-129185000D03*
X147955000Y-126645000D03*
X150495000Y-129185000D03*
X150495000Y-126645000D03*
X153035000Y-129185000D03*
X153035000Y-126645000D03*
X155575000Y-129185000D03*
X155575000Y-126645000D03*
X158115000Y-129185000D03*
X158115000Y-126645000D03*
X160655000Y-129185000D03*
X160655000Y-126645000D03*
X163195000Y-129185000D03*
X163195000Y-126645000D03*
%TD*%
D10*
%TO.C,TP12*%
X179070000Y-71120000D03*
%TD*%
D16*
%TO.C,H5*%
X36830000Y-59055000D03*
%TD*%
D24*
%TO.C,C10*%
X71120000Y-76360000D03*
D25*
X71120000Y-86360000D03*
%TD*%
D11*
%TO.C,J8*%
X92075000Y-65659000D03*
D12*
X89535000Y-65659000D03*
%TD*%
D10*
%TO.C,TP8*%
X173990000Y-71120000D03*
%TD*%
D11*
%TO.C,J6*%
X141395000Y-121585000D03*
D12*
X138855000Y-121585000D03*
X136315000Y-121585000D03*
X133775000Y-121585000D03*
X131235000Y-121585000D03*
X128695000Y-121585000D03*
X126155000Y-121585000D03*
X123615000Y-121585000D03*
X121075000Y-121585000D03*
X118535000Y-121585000D03*
%TD*%
D10*
%TO.C,TP5*%
X146050000Y-100965000D03*
%TD*%
%TO.C,TP2*%
X150495000Y-118110000D03*
%TD*%
%TO.C,TP4*%
X146050000Y-109220000D03*
%TD*%
D16*
%TO.C,H8*%
X112395000Y-59055000D03*
%TD*%
D10*
%TO.C,TP9*%
X153035000Y-89535000D03*
%TD*%
D18*
%TO.C,J18*%
X186055000Y-118110000D03*
%TD*%
D25*
%TO.C,J16*%
X50930000Y-97155000D03*
X35430000Y-97155000D03*
%TD*%
D10*
%TO.C,TP7*%
X165100000Y-89535000D03*
%TD*%
D16*
%TO.C,H4*%
X192405000Y-135890000D03*
%TD*%
%TO.C,H2*%
X256540000Y-136000000D03*
%TD*%
D10*
%TO.C,TP11*%
X160655000Y-110490000D03*
%TD*%
D14*
%TO.C,Q2*%
X180340000Y-104140000D03*
D15*
X180340000Y-106680000D03*
X180340000Y-109220000D03*
%TD*%
D11*
%TO.C,J5*%
X163195000Y-73355000D03*
D12*
X160655000Y-73355000D03*
X158115000Y-73355000D03*
X155575000Y-73355000D03*
X153035000Y-73355000D03*
X150495000Y-73355000D03*
%TD*%
D10*
%TO.C,TP1*%
X155575000Y-118110000D03*
%TD*%
D17*
%TO.C,TP16*%
X201295000Y-88900000D03*
%TD*%
D22*
%TO.C,R10*%
X53340000Y-106045000D03*
D23*
X38100000Y-106045000D03*
%TD*%
D25*
%TO.C,J17*%
X50930000Y-115570000D03*
X35430000Y-115570000D03*
%TD*%
%TO.C,J15*%
X51060000Y-78900000D03*
X35560000Y-78900000D03*
%TD*%
D10*
%TO.C,TP15*%
X220980000Y-62230000D03*
%TD*%
%TO.C,TP13*%
X248920000Y-62230000D03*
%TD*%
D13*
%TO.C,C17*%
X138430000Y-99695000D03*
X138430000Y-114695000D03*
%TD*%
D16*
%TO.C,H3*%
X192405000Y-59055000D03*
%TD*%
D24*
%TO.C,C13*%
X71120000Y-107950000D03*
D25*
X71120000Y-117950000D03*
%TD*%
D11*
%TO.C,J7*%
X92075000Y-129185000D03*
D12*
X89535000Y-129185000D03*
%TD*%
D13*
%TO.C,C15*%
X126365000Y-99695000D03*
X126365000Y-114695000D03*
%TD*%
D16*
%TO.C,H1*%
X256540000Y-59055000D03*
%TD*%
D11*
%TO.C,J3*%
X163195000Y-121585000D03*
D12*
X160655000Y-121585000D03*
X158115000Y-121585000D03*
X155575000Y-121585000D03*
X153035000Y-121585000D03*
X150495000Y-121585000D03*
X147955000Y-121585000D03*
X145415000Y-121585000D03*
%TD*%
D11*
%TO.C,J21*%
X191770000Y-86360000D03*
D12*
X194310000Y-86360000D03*
X191770000Y-88900000D03*
X194310000Y-88900000D03*
X191770000Y-91440000D03*
X194310000Y-91440000D03*
%TD*%
D17*
%TO.C,TP19*%
X243205000Y-106680000D03*
%TD*%
D10*
%TO.C,TP10*%
X227330000Y-62230000D03*
%TD*%
D24*
%TO.C,C11*%
X102235000Y-76360000D03*
D25*
X102235000Y-86360000D03*
%TD*%
D26*
%TO.C,R5*%
X189738000Y-114300000D03*
X189738000Y-112475000D03*
%TD*%
%TO.C,R6*%
X191770000Y-114300000D03*
X191770000Y-112475000D03*
%TD*%
%TO.C,R8*%
X195818000Y-114300000D03*
X195818000Y-112475000D03*
%TD*%
%TO.C,R7*%
X193802000Y-114300000D03*
X193802000Y-112475000D03*
%TD*%
M02*
