M48
; DRILL file {KiCad 8.0.8} date 2025-01-31T18:41:26-0600
; FORMAT={-:-/ absolute / inch / decimal}
; #@! TF.CreationDate,2025-01-31T18:41:26-06:00
; #@! TF.GenerationSoftware,Kicad,Pcbnew,8.0.8
; #@! TF.FileFunction,Plated,1,2,PTH
FMAT,2
INCH
; #@! TA.AperFunction,Plated,PTH,ViaDrill
T1C0.0118
; #@! TA.AperFunction,Plated,PTH,ComponentDrill
T2C0.0315
; #@! TA.AperFunction,Plated,PTH,ComponentDrill
T3C0.0350
; #@! TA.AperFunction,Plated,PTH,ViaDrill
T4C0.0394
; #@! TA.AperFunction,Plated,PTH,ComponentDrill
T5C0.0394
; #@! TA.AperFunction,Plated,PTH,ComponentDrill
T6C0.0433
; #@! TA.AperFunction,Plated,PTH,ComponentDrill
T7C0.0472
; #@! TA.AperFunction,Plated,PTH,ComponentDrill
T8C0.0598
; #@! TA.AperFunction,Plated,PTH,ComponentDrill
T9C0.0787
; #@! TA.AperFunction,Plated,PTH,ComponentDrill
T10C0.0791
; #@! TA.AperFunction,Plated,PTH,ComponentDrill
T11C0.0866
; #@! TA.AperFunction,Plated,PTH,ComponentDrill
T12C0.1969
%
G90
G05
T1
X5.625Y-3.35
X5.8Y-3.85
X5.875Y-3.65
X5.9Y-3.8
X5.94Y-3.905
X5.94Y-3.985
X5.9407Y-3.8276
X5.9407Y-4.0638
X5.9407Y-4.1425
X5.9407Y-4.2213
X6.1Y-3.985
X6.1081Y-4.3
X6.1081Y-4.3689
X6.1081Y-4.4083
X6.177Y-3.9358
X6.177Y-4.0343
X6.725Y-3.25
X6.725Y-4.625
X6.75Y-3.25
X6.75Y-4.625
X6.775Y-3.25
X6.775Y-4.625
X6.875Y-3.25
X6.875Y-4.625
X6.9Y-3.25
X6.9Y-4.625
X6.925Y-3.25
X6.925Y-4.625
X7.75Y-4.4281
X7.75Y-4.5
X7.775Y-4.4281
X7.775Y-4.5
T2
X1.5Y-3.475
X1.5Y-4.175
X2.1Y-3.475
X2.1Y-4.175
T3
X8.2Y-2.65
X8.3Y-2.65
X9.275Y-2.65
X9.375Y-2.65
T4
X9.25Y-3.025
X9.25Y-3.875
T5
X3.525Y-2.585
X3.525Y-5.086
X3.625Y-2.585
X3.625Y-5.086
X4.625Y-2.588
X4.625Y-2.688
X4.625Y-4.986
X4.625Y-5.086
X4.6667Y-4.7868
X4.725Y-2.588
X4.725Y-2.688
X4.725Y-4.986
X4.725Y-5.086
X4.7667Y-4.7868
X4.825Y-2.588
X4.825Y-2.688
X4.825Y-4.986
X4.825Y-5.086
X4.8667Y-4.7868
X4.925Y-2.588
X4.925Y-2.688
X4.925Y-4.986
X4.925Y-5.086
X4.9667Y-4.7868
X5.025Y-2.588
X5.025Y-2.688
X5.025Y-2.888
X5.025Y-4.986
X5.025Y-5.086
X5.0667Y-4.7868
X5.125Y-2.588
X5.125Y-2.688
X5.125Y-2.888
X5.125Y-4.986
X5.125Y-5.086
X5.1667Y-4.7868
X5.225Y-2.588
X5.225Y-2.688
X5.225Y-2.888
X5.225Y-4.986
X5.225Y-5.086
X5.2667Y-4.7868
X5.325Y-2.588
X5.325Y-2.688
X5.325Y-2.888
X5.325Y-4.986
X5.325Y-5.086
X5.3667Y-4.7868
X5.425Y-2.588
X5.425Y-2.688
X5.425Y-2.888
X5.425Y-4.986
X5.425Y-5.086
X5.4667Y-4.7868
X5.525Y-2.588
X5.525Y-2.688
X5.525Y-2.888
X5.525Y-4.986
X5.525Y-5.086
X5.5667Y-4.7868
X5.625Y-2.588
X5.625Y-2.688
X5.625Y-2.888
X5.625Y-4.986
X5.625Y-5.086
X5.725Y-2.588
X5.725Y-2.688
X5.725Y-2.888
X5.725Y-4.7868
X5.725Y-4.986
X5.725Y-5.086
X5.75Y-3.975
X5.75Y-4.3
X5.8Y-4.65
X5.825Y-2.588
X5.825Y-2.688
X5.825Y-4.7868
X5.825Y-4.986
X5.825Y-5.086
X5.85Y-3.25
X5.925Y-2.588
X5.925Y-2.688
X5.925Y-2.888
X5.925Y-4.65
X5.925Y-4.7868
X5.925Y-4.986
X5.925Y-5.086
X6.025Y-2.588
X6.025Y-2.688
X6.025Y-2.888
X6.025Y-3.525
X6.025Y-4.7868
X6.025Y-4.986
X6.025Y-5.086
X6.05Y-3.2504
X6.125Y-2.588
X6.125Y-2.688
X6.125Y-2.888
X6.125Y-4.65
X6.125Y-4.7868
X6.125Y-4.986
X6.125Y-5.086
X6.225Y-2.588
X6.225Y-2.688
X6.225Y-2.888
X6.225Y-4.7868
X6.225Y-4.986
X6.225Y-5.086
X6.325Y-2.588
X6.325Y-2.688
X6.325Y-2.888
X6.325Y-3.2496
X6.325Y-4.35
X6.325Y-4.7868
X6.325Y-4.986
X6.325Y-5.086
X6.425Y-2.588
X6.425Y-2.688
X6.425Y-2.888
X6.425Y-4.7868
X6.425Y-4.986
X6.425Y-5.086
X6.5Y-3.525
X6.525Y-3.25
X6.85Y-2.8
X7.05Y-2.8
X7.25Y-3.85
X7.5498Y-4.0506
X7.5498Y-4.1506
X7.5498Y-4.2506
X7.55Y-3.4
X7.55Y-3.5
X7.55Y-3.6
X7.6498Y-4.0506
X7.6498Y-4.1506
X7.6498Y-4.2506
X7.65Y-3.4
X7.65Y-3.5
X7.65Y-3.6
X7.9Y-2.45
X8.7Y-2.45
X8.95Y-2.45
X9.8Y-2.45
X9.8508Y-3.4008
X9.8508Y-3.5008
X9.8508Y-4.1508
X9.8508Y-4.2508
X9.9508Y-3.4008
X9.9508Y-3.5008
X9.9508Y-4.1508
X9.9508Y-4.2508
T6
X7.1Y-3.35
X7.1Y-3.45
X7.1Y-3.55
X7.1Y-4.1
X7.1Y-4.2
X7.1Y-4.3
T7
X4.975Y-3.1453
X4.975Y-3.7358
X4.975Y-3.925
X4.975Y-4.5156
X5.45Y-3.1453
X5.45Y-3.7358
X5.45Y-3.925
X5.45Y-4.5156
T8
X6.85Y-2.45
X7.05Y-2.45
T9
X2.8Y-3.0063
X2.8Y-3.4
X2.8Y-4.25
X2.8Y-4.6437
X4.025Y-3.0063
X4.025Y-3.4
X4.025Y-4.25
X4.025Y-4.6437
X7.125Y-4.65
X7.325Y-4.65
T10
X8.1Y-2.45
X8.5Y-2.45
X9.175Y-2.45
X9.575Y-2.45
T11
X1.3949Y-3.825
X1.3949Y-4.55
X1.4Y-3.1063
X2.0051Y-3.825
X2.0051Y-4.55
X2.0102Y-3.1063
T12
X7.925Y-3.5
X7.925Y-4.15
X9.575Y-3.45
X9.575Y-4.2
M30
