%TF.GenerationSoftware,KiCad,Pcbnew,8.0.8*%
%TF.CreationDate,2025-01-31T18:41:33-06:00*%
%TF.ProjectId,ST2402,53543234-3032-42e6-9b69-6361645f7063,0*%
%TF.SameCoordinates,Original*%
%TF.FileFunction,Legend,Bot*%
%TF.FilePolarity,Positive*%
%FSLAX46Y46*%
G04 Gerber Fmt 4.6, Leading zero omitted, Abs format (unit mm)*
G04 Created by KiCad (PCBNEW 8.0.8) date 2025-01-31 18:41:33*
%MOMM*%
%LPD*%
G01*
G04 APERTURE LIST*
%ADD10C,0.150000*%
%ADD11C,0.120000*%
G04 APERTURE END LIST*
D10*
X190319819Y-116038333D02*
X189843628Y-115705000D01*
X190319819Y-115466905D02*
X189319819Y-115466905D01*
X189319819Y-115466905D02*
X189319819Y-115847857D01*
X189319819Y-115847857D02*
X189367438Y-115943095D01*
X189367438Y-115943095D02*
X189415057Y-115990714D01*
X189415057Y-115990714D02*
X189510295Y-116038333D01*
X189510295Y-116038333D02*
X189653152Y-116038333D01*
X189653152Y-116038333D02*
X189748390Y-115990714D01*
X189748390Y-115990714D02*
X189796009Y-115943095D01*
X189796009Y-115943095D02*
X189843628Y-115847857D01*
X189843628Y-115847857D02*
X189843628Y-115466905D01*
X189319819Y-116943095D02*
X189319819Y-116466905D01*
X189319819Y-116466905D02*
X189796009Y-116419286D01*
X189796009Y-116419286D02*
X189748390Y-116466905D01*
X189748390Y-116466905D02*
X189700771Y-116562143D01*
X189700771Y-116562143D02*
X189700771Y-116800238D01*
X189700771Y-116800238D02*
X189748390Y-116895476D01*
X189748390Y-116895476D02*
X189796009Y-116943095D01*
X189796009Y-116943095D02*
X189891247Y-116990714D01*
X189891247Y-116990714D02*
X190129342Y-116990714D01*
X190129342Y-116990714D02*
X190224580Y-116943095D01*
X190224580Y-116943095D02*
X190272200Y-116895476D01*
X190272200Y-116895476D02*
X190319819Y-116800238D01*
X190319819Y-116800238D02*
X190319819Y-116562143D01*
X190319819Y-116562143D02*
X190272200Y-116466905D01*
X190272200Y-116466905D02*
X190224580Y-116419286D01*
X192224819Y-116038333D02*
X191748628Y-115705000D01*
X192224819Y-115466905D02*
X191224819Y-115466905D01*
X191224819Y-115466905D02*
X191224819Y-115847857D01*
X191224819Y-115847857D02*
X191272438Y-115943095D01*
X191272438Y-115943095D02*
X191320057Y-115990714D01*
X191320057Y-115990714D02*
X191415295Y-116038333D01*
X191415295Y-116038333D02*
X191558152Y-116038333D01*
X191558152Y-116038333D02*
X191653390Y-115990714D01*
X191653390Y-115990714D02*
X191701009Y-115943095D01*
X191701009Y-115943095D02*
X191748628Y-115847857D01*
X191748628Y-115847857D02*
X191748628Y-115466905D01*
X191224819Y-116895476D02*
X191224819Y-116705000D01*
X191224819Y-116705000D02*
X191272438Y-116609762D01*
X191272438Y-116609762D02*
X191320057Y-116562143D01*
X191320057Y-116562143D02*
X191462914Y-116466905D01*
X191462914Y-116466905D02*
X191653390Y-116419286D01*
X191653390Y-116419286D02*
X192034342Y-116419286D01*
X192034342Y-116419286D02*
X192129580Y-116466905D01*
X192129580Y-116466905D02*
X192177200Y-116514524D01*
X192177200Y-116514524D02*
X192224819Y-116609762D01*
X192224819Y-116609762D02*
X192224819Y-116800238D01*
X192224819Y-116800238D02*
X192177200Y-116895476D01*
X192177200Y-116895476D02*
X192129580Y-116943095D01*
X192129580Y-116943095D02*
X192034342Y-116990714D01*
X192034342Y-116990714D02*
X191796247Y-116990714D01*
X191796247Y-116990714D02*
X191701009Y-116943095D01*
X191701009Y-116943095D02*
X191653390Y-116895476D01*
X191653390Y-116895476D02*
X191605771Y-116800238D01*
X191605771Y-116800238D02*
X191605771Y-116609762D01*
X191605771Y-116609762D02*
X191653390Y-116514524D01*
X191653390Y-116514524D02*
X191701009Y-116466905D01*
X191701009Y-116466905D02*
X191796247Y-116419286D01*
X196669819Y-116038333D02*
X196193628Y-115705000D01*
X196669819Y-115466905D02*
X195669819Y-115466905D01*
X195669819Y-115466905D02*
X195669819Y-115847857D01*
X195669819Y-115847857D02*
X195717438Y-115943095D01*
X195717438Y-115943095D02*
X195765057Y-115990714D01*
X195765057Y-115990714D02*
X195860295Y-116038333D01*
X195860295Y-116038333D02*
X196003152Y-116038333D01*
X196003152Y-116038333D02*
X196098390Y-115990714D01*
X196098390Y-115990714D02*
X196146009Y-115943095D01*
X196146009Y-115943095D02*
X196193628Y-115847857D01*
X196193628Y-115847857D02*
X196193628Y-115466905D01*
X196098390Y-116609762D02*
X196050771Y-116514524D01*
X196050771Y-116514524D02*
X196003152Y-116466905D01*
X196003152Y-116466905D02*
X195907914Y-116419286D01*
X195907914Y-116419286D02*
X195860295Y-116419286D01*
X195860295Y-116419286D02*
X195765057Y-116466905D01*
X195765057Y-116466905D02*
X195717438Y-116514524D01*
X195717438Y-116514524D02*
X195669819Y-116609762D01*
X195669819Y-116609762D02*
X195669819Y-116800238D01*
X195669819Y-116800238D02*
X195717438Y-116895476D01*
X195717438Y-116895476D02*
X195765057Y-116943095D01*
X195765057Y-116943095D02*
X195860295Y-116990714D01*
X195860295Y-116990714D02*
X195907914Y-116990714D01*
X195907914Y-116990714D02*
X196003152Y-116943095D01*
X196003152Y-116943095D02*
X196050771Y-116895476D01*
X196050771Y-116895476D02*
X196098390Y-116800238D01*
X196098390Y-116800238D02*
X196098390Y-116609762D01*
X196098390Y-116609762D02*
X196146009Y-116514524D01*
X196146009Y-116514524D02*
X196193628Y-116466905D01*
X196193628Y-116466905D02*
X196288866Y-116419286D01*
X196288866Y-116419286D02*
X196479342Y-116419286D01*
X196479342Y-116419286D02*
X196574580Y-116466905D01*
X196574580Y-116466905D02*
X196622200Y-116514524D01*
X196622200Y-116514524D02*
X196669819Y-116609762D01*
X196669819Y-116609762D02*
X196669819Y-116800238D01*
X196669819Y-116800238D02*
X196622200Y-116895476D01*
X196622200Y-116895476D02*
X196574580Y-116943095D01*
X196574580Y-116943095D02*
X196479342Y-116990714D01*
X196479342Y-116990714D02*
X196288866Y-116990714D01*
X196288866Y-116990714D02*
X196193628Y-116943095D01*
X196193628Y-116943095D02*
X196146009Y-116895476D01*
X196146009Y-116895476D02*
X196098390Y-116800238D01*
X194764819Y-116038333D02*
X194288628Y-115705000D01*
X194764819Y-115466905D02*
X193764819Y-115466905D01*
X193764819Y-115466905D02*
X193764819Y-115847857D01*
X193764819Y-115847857D02*
X193812438Y-115943095D01*
X193812438Y-115943095D02*
X193860057Y-115990714D01*
X193860057Y-115990714D02*
X193955295Y-116038333D01*
X193955295Y-116038333D02*
X194098152Y-116038333D01*
X194098152Y-116038333D02*
X194193390Y-115990714D01*
X194193390Y-115990714D02*
X194241009Y-115943095D01*
X194241009Y-115943095D02*
X194288628Y-115847857D01*
X194288628Y-115847857D02*
X194288628Y-115466905D01*
X193764819Y-116371667D02*
X193764819Y-117038333D01*
X193764819Y-117038333D02*
X194764819Y-116609762D01*
D11*
%TO.C,R5*%
X189003000Y-113160436D02*
X189003000Y-113614564D01*
X190473000Y-113160436D02*
X190473000Y-113614564D01*
%TO.C,R6*%
X191035000Y-113160436D02*
X191035000Y-113614564D01*
X192505000Y-113160436D02*
X192505000Y-113614564D01*
%TO.C,R8*%
X195083000Y-113160436D02*
X195083000Y-113614564D01*
X196553000Y-113160436D02*
X196553000Y-113614564D01*
%TO.C,R7*%
X193067000Y-113160436D02*
X193067000Y-113614564D01*
X194537000Y-113160436D02*
X194537000Y-113614564D01*
%TD*%
M02*
