%TF.GenerationSoftware,KiCad,Pcbnew,8.0.8*%
%TF.CreationDate,2025-01-31T18:41:33-06:00*%
%TF.ProjectId,ST2402,53543234-3032-42e6-9b69-6361645f7063,0*%
%TF.SameCoordinates,Original*%
%TF.FileFunction,Copper,L1,Top*%
%TF.FilePolarity,Positive*%
%FSLAX46Y46*%
G04 Gerber Fmt 4.6, Leading zero omitted, Abs format (unit mm)*
G04 Created by KiCad (PCBNEW 8.0.8) date 2025-01-31 18:41:33*
%MOMM*%
%LPD*%
G01*
G04 APERTURE LIST*
G04 Aperture macros list*
%AMRoundRect*
0 Rectangle with rounded corners*
0 $1 Rounding radius*
0 $2 $3 $4 $5 $6 $7 $8 $9 X,Y pos of 4 corners*
0 Add a 4 corners polygon primitive as box body*
4,1,4,$2,$3,$4,$5,$6,$7,$8,$9,$2,$3,0*
0 Add four circle primitives for the rounded corners*
1,1,$1+$1,$2,$3*
1,1,$1+$1,$4,$5*
1,1,$1+$1,$6,$7*
1,1,$1+$1,$8,$9*
0 Add four rect primitives between the rounded corners*
20,1,$1+$1,$2,$3,$4,$5,0*
20,1,$1+$1,$4,$5,$6,$7,0*
20,1,$1+$1,$6,$7,$8,$9,0*
20,1,$1+$1,$8,$9,$2,$3,0*%
G04 Aperture macros list end*
%TA.AperFunction,ComponentPad*%
%ADD10C,2.000000*%
%TD*%
%TA.AperFunction,SMDPad,CuDef*%
%ADD11RoundRect,0.250000X-0.262500X-0.450000X0.262500X-0.450000X0.262500X0.450000X-0.262500X0.450000X0*%
%TD*%
%TA.AperFunction,ComponentPad*%
%ADD12R,1.700000X1.700000*%
%TD*%
%TA.AperFunction,ComponentPad*%
%ADD13O,1.700000X1.700000*%
%TD*%
%TA.AperFunction,ComponentPad*%
%ADD14C,2.400000*%
%TD*%
%TA.AperFunction,SMDPad,CuDef*%
%ADD15RoundRect,0.250000X0.450000X-0.262500X0.450000X0.262500X-0.450000X0.262500X-0.450000X-0.262500X0*%
%TD*%
%TA.AperFunction,ComponentPad*%
%ADD16R,2.000000X1.905000*%
%TD*%
%TA.AperFunction,ComponentPad*%
%ADD17O,2.000000X1.905000*%
%TD*%
%TA.AperFunction,ComponentPad*%
%ADD18C,8.000000*%
%TD*%
%TA.AperFunction,SMDPad,CuDef*%
%ADD19RoundRect,0.250000X-0.250000X-0.475000X0.250000X-0.475000X0.250000X0.475000X-0.250000X0.475000X0*%
%TD*%
%TA.AperFunction,ComponentPad*%
%ADD20C,3.000000*%
%TD*%
%TA.AperFunction,SMDPad,CuDef*%
%ADD21RoundRect,0.250000X0.250000X0.475000X-0.250000X0.475000X-0.250000X-0.475000X0.250000X-0.475000X0*%
%TD*%
%TA.AperFunction,ComponentPad*%
%ADD22R,3.000000X3.000000*%
%TD*%
%TA.AperFunction,SMDPad,CuDef*%
%ADD23RoundRect,0.250000X0.262500X0.450000X-0.262500X0.450000X-0.262500X-0.450000X0.262500X-0.450000X0*%
%TD*%
%TA.AperFunction,SMDPad,CuDef*%
%ADD24RoundRect,0.250000X1.100000X-0.325000X1.100000X0.325000X-1.100000X0.325000X-1.100000X-0.325000X0*%
%TD*%
%TA.AperFunction,ComponentPad*%
%ADD25O,3.500000X7.000000*%
%TD*%
%TA.AperFunction,ComponentPad*%
%ADD26O,1.600000X2.500000*%
%TD*%
%TA.AperFunction,ComponentPad*%
%ADD27C,1.600000*%
%TD*%
%TA.AperFunction,ComponentPad*%
%ADD28O,1.600000X1.600000*%
%TD*%
%TA.AperFunction,SMDPad,CuDef*%
%ADD29RoundRect,0.250000X-1.000000X-0.650000X1.000000X-0.650000X1.000000X0.650000X-1.000000X0.650000X0*%
%TD*%
%TA.AperFunction,SMDPad,CuDef*%
%ADD30RoundRect,0.150000X-0.825000X-0.150000X0.825000X-0.150000X0.825000X0.150000X-0.825000X0.150000X0*%
%TD*%
%TA.AperFunction,ComponentPad*%
%ADD31R,4.000000X4.000000*%
%TD*%
%TA.AperFunction,ComponentPad*%
%ADD32C,4.000000*%
%TD*%
%TA.AperFunction,SMDPad,CuDef*%
%ADD33RoundRect,0.250000X1.000000X0.650000X-1.000000X0.650000X-1.000000X-0.650000X1.000000X-0.650000X0*%
%TD*%
%TA.AperFunction,SMDPad,CuDef*%
%ADD34RoundRect,0.250000X0.325000X0.650000X-0.325000X0.650000X-0.325000X-0.650000X0.325000X-0.650000X0*%
%TD*%
%TA.AperFunction,SMDPad,CuDef*%
%ADD35RoundRect,0.250000X-1.100000X0.325000X-1.100000X-0.325000X1.100000X-0.325000X1.100000X0.325000X0*%
%TD*%
%TA.AperFunction,SMDPad,CuDef*%
%ADD36RoundRect,0.250000X-0.325000X-0.650000X0.325000X-0.650000X0.325000X0.650000X-0.325000X0.650000X0*%
%TD*%
%TA.AperFunction,SMDPad,CuDef*%
%ADD37RoundRect,0.250000X-0.312500X-0.625000X0.312500X-0.625000X0.312500X0.625000X-0.312500X0.625000X0*%
%TD*%
%TA.AperFunction,ViaPad*%
%ADD38C,0.600000*%
%TD*%
%TA.AperFunction,ViaPad*%
%ADD39C,2.000000*%
%TD*%
%TA.AperFunction,Conductor*%
%ADD40C,0.500000*%
%TD*%
%TA.AperFunction,Conductor*%
%ADD41C,3.000000*%
%TD*%
%TA.AperFunction,Conductor*%
%ADD42C,5.000000*%
%TD*%
%TA.AperFunction,Conductor*%
%ADD43C,0.700000*%
%TD*%
%TA.AperFunction,Conductor*%
%ADD44C,2.000000*%
%TD*%
%TA.AperFunction,Conductor*%
%ADD45C,0.400000*%
%TD*%
%TA.AperFunction,Conductor*%
%ADD46C,1.000000*%
%TD*%
G04 APERTURE END LIST*
D10*
%TO.P,F2,1*%
%TO.N,FIX_B*%
X165735000Y-82550000D03*
%TO.P,F2,2*%
%TO.N,Net-(J16-Pin_1)*%
X160655000Y-82540000D03*
%TD*%
D11*
%TO.P,R18,1*%
%TO.N,5V*%
X152070000Y-99220000D03*
%TO.P,R18,2*%
%TO.N,SD*%
X153895000Y-99220000D03*
%TD*%
D12*
%TO.P,J11,1,Pin_1*%
%TO.N,Net-(J11-Pin_1)*%
X252750000Y-105430000D03*
D13*
%TO.P,J11,2,Pin_2*%
X250210000Y-105430000D03*
%TO.P,J11,3,Pin_3*%
X252750000Y-107970000D03*
%TO.P,J11,4,Pin_4*%
X250210000Y-107970000D03*
%TD*%
D14*
%TO.P,C16,1*%
%TO.N,Net-(J15-Pin_1)*%
X138430000Y-79890000D03*
%TO.P,C16,2*%
%TO.N,Net-(J16-Pin_1)*%
X138430000Y-94890000D03*
%TD*%
D15*
%TO.P,R3,1*%
%TO.N,Net-(J18-Pin_1)*%
X193818000Y-114300000D03*
%TO.P,R3,2*%
%TO.N,Net-(J19-In)*%
X193818000Y-112475000D03*
%TD*%
D10*
%TO.P,TP3,1,1*%
%TO.N,PWM*%
X147320000Y-118110000D03*
%TD*%
D16*
%TO.P,Q1,1,G*%
%TO.N,Net-(D1-A)*%
X180340000Y-85090000D03*
D17*
%TO.P,Q1,2,D*%
%TO.N,Net-(Q1-D)*%
X180340000Y-87630000D03*
%TO.P,Q1,3,S*%
%TO.N,FIX_A*%
X180340000Y-90170000D03*
%TD*%
D12*
%TO.P,J22,1,Pin_1*%
%TO.N,Net-(J19-In)*%
X191765000Y-102885000D03*
D13*
%TO.P,J22,2,Pin_2*%
X194305000Y-102885000D03*
%TO.P,J22,3,Pin_3*%
X191765000Y-105425000D03*
%TO.P,J22,4,Pin_4*%
X194305000Y-105425000D03*
%TO.P,J22,5,Pin_5*%
X191765000Y-107965000D03*
%TO.P,J22,6,Pin_6*%
X194305000Y-107965000D03*
%TD*%
D12*
%TO.P,J2,1,Pin_1*%
%TO.N,unconnected-(J2-Pin_1-Pad1)*%
X117475000Y-68275000D03*
D13*
%TO.P,J2,2,Pin_2*%
%TO.N,unconnected-(J2-Pin_2-Pad2)*%
X117475000Y-65735000D03*
%TO.P,J2,3,Pin_3*%
%TO.N,unconnected-(J2-Pin_3-Pad3)*%
X120015000Y-68275000D03*
%TO.P,J2,4,Pin_4*%
%TO.N,unconnected-(J2-Pin_4-Pad4)*%
X120015000Y-65735000D03*
%TO.P,J2,5,Pin_5*%
%TO.N,unconnected-(J2-Pin_5-Pad5)*%
X122555000Y-68275000D03*
%TO.P,J2,6,Pin_6*%
%TO.N,unconnected-(J2-Pin_6-Pad6)*%
X122555000Y-65735000D03*
%TO.P,J2,7,Pin_7*%
%TO.N,unconnected-(J2-Pin_7-Pad7)*%
X125095000Y-68275000D03*
%TO.P,J2,8,Pin_8*%
%TO.N,unconnected-(J2-Pin_8-Pad8)*%
X125095000Y-65735000D03*
%TO.P,J2,9,Pin_9*%
%TO.N,unconnected-(J2-Pin_9-Pad9)*%
X127635000Y-68275000D03*
%TO.P,J2,10,Pin_10*%
%TO.N,unconnected-(J2-Pin_10-Pad10)*%
X127635000Y-65735000D03*
%TO.P,J2,11,Pin_11*%
%TO.N,unconnected-(J2-Pin_11-Pad11)*%
X130175000Y-68275000D03*
%TO.P,J2,12,Pin_12*%
%TO.N,unconnected-(J2-Pin_12-Pad12)*%
X130175000Y-65735000D03*
%TO.P,J2,13,Pin_13*%
%TO.N,unconnected-(J2-Pin_13-Pad13)*%
X132715000Y-68275000D03*
%TO.P,J2,14,Pin_14*%
%TO.N,unconnected-(J2-Pin_14-Pad14)*%
X132715000Y-65735000D03*
%TO.P,J2,15,Pin_15*%
%TO.N,unconnected-(J2-Pin_15-Pad15)*%
X135255000Y-68275000D03*
%TO.P,J2,16,Pin_16*%
%TO.N,unconnected-(J2-Pin_16-Pad16)*%
X135255000Y-65735000D03*
%TO.P,J2,17,Pin_17*%
%TO.N,unconnected-(J2-Pin_17-Pad17)*%
X137795000Y-68275000D03*
%TO.P,J2,18,Pin_18*%
%TO.N,unconnected-(J2-Pin_18-Pad18)*%
X137795000Y-65735000D03*
%TO.P,J2,19,Pin_19*%
%TO.N,unconnected-(J2-Pin_19-Pad19)*%
X140335000Y-68275000D03*
%TO.P,J2,20,Pin_20*%
%TO.N,unconnected-(J2-Pin_20-Pad20)*%
X140335000Y-65735000D03*
%TO.P,J2,21,Pin_21*%
%TO.N,unconnected-(J2-Pin_21-Pad21)*%
X142875000Y-68275000D03*
%TO.P,J2,22,Pin_22*%
%TO.N,unconnected-(J2-Pin_22-Pad22)*%
X142875000Y-65735000D03*
%TO.P,J2,23,Pin_23*%
%TO.N,unconnected-(J2-Pin_23-Pad23)*%
X145415000Y-68275000D03*
%TO.P,J2,24,Pin_24*%
%TO.N,unconnected-(J2-Pin_24-Pad24)*%
X145415000Y-65735000D03*
%TO.P,J2,25,Pin_25*%
%TO.N,unconnected-(J2-Pin_25-Pad25)*%
X147955000Y-68275000D03*
%TO.P,J2,26,Pin_26*%
%TO.N,unconnected-(J2-Pin_26-Pad26)*%
X147955000Y-65735000D03*
%TO.P,J2,27,Pin_27*%
%TO.N,unconnected-(J2-Pin_27-Pad27)*%
X150495000Y-68275000D03*
%TO.P,J2,28,Pin_28*%
%TO.N,unconnected-(J2-Pin_28-Pad28)*%
X150495000Y-65735000D03*
%TO.P,J2,29,Pin_29*%
%TO.N,unconnected-(J2-Pin_29-Pad29)*%
X153035000Y-68275000D03*
%TO.P,J2,30,Pin_30*%
%TO.N,unconnected-(J2-Pin_30-Pad30)*%
X153035000Y-65735000D03*
%TO.P,J2,31,Pin_31*%
%TO.N,unconnected-(J2-Pin_31-Pad31)*%
X155575000Y-68275000D03*
%TO.P,J2,32,Pin_32*%
%TO.N,unconnected-(J2-Pin_32-Pad32)*%
X155575000Y-65735000D03*
%TO.P,J2,33,Pin_33*%
%TO.N,unconnected-(J2-Pin_33-Pad33)*%
X158115000Y-68275000D03*
%TO.P,J2,34,Pin_34*%
%TO.N,unconnected-(J2-Pin_34-Pad34)*%
X158115000Y-65735000D03*
%TO.P,J2,35,Pin_35*%
%TO.N,unconnected-(J2-Pin_35-Pad35)*%
X160655000Y-68275000D03*
%TO.P,J2,36,Pin_36*%
%TO.N,unconnected-(J2-Pin_36-Pad36)*%
X160655000Y-65735000D03*
%TO.P,J2,37,Pin_37*%
%TO.N,unconnected-(J2-Pin_37-Pad37)*%
X163195000Y-68275000D03*
%TO.P,J2,38,Pin_38*%
%TO.N,unconnected-(J2-Pin_38-Pad38)*%
X163195000Y-65735000D03*
%TD*%
D12*
%TO.P,J12,1,Pin_1*%
%TO.N,Net-(J12-Pin_1)*%
X252750000Y-86380000D03*
D13*
%TO.P,J12,2,Pin_2*%
X250210000Y-86380000D03*
%TO.P,J12,3,Pin_3*%
X252750000Y-88920000D03*
%TO.P,J12,4,Pin_4*%
X250210000Y-88920000D03*
%TD*%
D12*
%TO.P,J4,1,Pin_1*%
%TO.N,unconnected-(J4-Pin_1-Pad1)*%
X145415000Y-73355000D03*
D13*
%TO.P,J4,2,Pin_2*%
%TO.N,unconnected-(J4-Pin_2-Pad2)*%
X142875000Y-73355000D03*
%TO.P,J4,3,Pin_3*%
%TO.N,GND*%
X140335000Y-73355000D03*
%TO.P,J4,4,Pin_4*%
%TO.N,5V*%
X137795000Y-73355000D03*
%TO.P,J4,5,Pin_5*%
%TO.N,unconnected-(J4-Pin_5-Pad5)*%
X135255000Y-73355000D03*
%TO.P,J4,6,Pin_6*%
%TO.N,unconnected-(J4-Pin_6-Pad6)*%
X132715000Y-73355000D03*
%TO.P,J4,7,Pin_7*%
%TO.N,unconnected-(J4-Pin_7-Pad7)*%
X130175000Y-73355000D03*
%TO.P,J4,8,Pin_8*%
%TO.N,unconnected-(J4-Pin_8-Pad8)*%
X127635000Y-73355000D03*
%TD*%
D18*
%TO.P,TP18,1,1*%
%TO.N,Net-(J12-Pin_1)*%
X243205000Y-87630000D03*
%TD*%
D19*
%TO.P,C8,1*%
%TO.N,Net-(D1-A)*%
X171995000Y-96425000D03*
%TO.P,C8,2*%
%TO.N,FIX_A*%
X173895000Y-96425000D03*
%TD*%
D11*
%TO.P,R21,1*%
%TO.N,Net-(U1-HVG)*%
X168055000Y-94425000D03*
%TO.P,R21,2*%
%TO.N,Net-(D1-K)*%
X169880000Y-94425000D03*
%TD*%
D20*
%TO.P,J14,1,Pin_1*%
%TO.N,FIX_B*%
X180975000Y-118110000D03*
%TD*%
D21*
%TO.P,C3,1*%
%TO.N,Net-(J9-Pin_2)*%
X153895000Y-107220000D03*
%TO.P,C3,2*%
%TO.N,GND*%
X151995000Y-107220000D03*
%TD*%
D22*
%TO.P,J9,1,Pin_1*%
%TO.N,GND*%
X179070000Y-62230000D03*
D20*
%TO.P,J9,2,Pin_2*%
%TO.N,Net-(J9-Pin_2)*%
X173990000Y-62230000D03*
%TD*%
D14*
%TO.P,C12,1*%
%TO.N,Net-(J15-Pin_1)*%
X126365000Y-79890000D03*
%TO.P,C12,2*%
%TO.N,Net-(J16-Pin_1)*%
X126365000Y-94890000D03*
%TD*%
D19*
%TO.P,C6,1*%
%TO.N,SD*%
X151995000Y-101220000D03*
%TO.P,C6,2*%
%TO.N,GND*%
X153895000Y-101220000D03*
%TD*%
D10*
%TO.P,TP6,1,1*%
%TO.N,FIX_A*%
X184150000Y-97790000D03*
%TD*%
D21*
%TO.P,C1,1*%
%TO.N,Net-(U1-IN)*%
X153895000Y-97220000D03*
%TO.P,C1,2*%
%TO.N,GND*%
X151995000Y-97220000D03*
%TD*%
D10*
%TO.P,F1,1*%
%TO.N,Net-(Q1-D)*%
X153670000Y-82560000D03*
%TO.P,F1,2*%
%TO.N,Net-(J15-Pin_1)*%
X148590000Y-82550000D03*
%TD*%
D11*
%TO.P,R23,1*%
%TO.N,Net-(U1-HVG)*%
X168055000Y-96425000D03*
%TO.P,R23,2*%
%TO.N,Net-(D1-A)*%
X169880000Y-96425000D03*
%TD*%
D23*
%TO.P,R19,1*%
%TO.N,Net-(U1-DT)*%
X153895000Y-103220000D03*
%TO.P,R19,2*%
%TO.N,GND*%
X152070000Y-103220000D03*
%TD*%
D24*
%TO.P,C19,1*%
%TO.N,FIX_B*%
X171450000Y-116410000D03*
%TO.P,C19,2*%
%TO.N,GND*%
X171450000Y-113460000D03*
%TD*%
D25*
%TO.P,J19,2,Ext*%
%TO.N,Net-(J18-Pin_1)*%
X215900000Y-62230000D03*
D26*
X208280000Y-67310000D03*
D25*
X205740000Y-62230000D03*
D26*
%TO.P,J19,1,In*%
%TO.N,Net-(J19-In)*%
X210820000Y-67310000D03*
%TD*%
D23*
%TO.P,R22,1*%
%TO.N,Net-(D2-K)*%
X169895000Y-107220000D03*
%TO.P,R22,2*%
%TO.N,Net-(U1-LVG)*%
X168070000Y-107220000D03*
%TD*%
D27*
%TO.P,R9,1*%
%TO.N,Net-(J15-Pin_1)*%
X38100000Y-88265000D03*
D28*
%TO.P,R9,2*%
%TO.N,Net-(J16-Pin_1)*%
X53340000Y-88265000D03*
%TD*%
D19*
%TO.P,C4,1*%
%TO.N,Net-(J9-Pin_2)*%
X151995000Y-109220000D03*
%TO.P,C4,2*%
%TO.N,GND*%
X153895000Y-109220000D03*
%TD*%
D29*
%TO.P,D2,1,K*%
%TO.N,Net-(D2-K)*%
X168895000Y-104220000D03*
%TO.P,D2,2,A*%
%TO.N,Net-(D2-A)*%
X172895000Y-104220000D03*
%TD*%
D25*
%TO.P,J13,2,Ext*%
%TO.N,Net-(J12-Pin_1)*%
X243205000Y-62230000D03*
D26*
X235585000Y-67310000D03*
D25*
X233045000Y-62230000D03*
D26*
%TO.P,J13,1,In*%
%TO.N,Net-(J11-Pin_1)*%
X238125000Y-67310000D03*
%TD*%
D18*
%TO.P,TP17,1,1*%
%TO.N,Net-(J19-In)*%
X201295000Y-105410000D03*
%TD*%
D30*
%TO.P,U1,1,IN*%
%TO.N,Net-(U1-IN)*%
X158420000Y-97410000D03*
%TO.P,U1,2,~{SD}*%
%TO.N,SD*%
X158420000Y-98680000D03*
%TO.P,U1,3,SGND*%
%TO.N,GND*%
X158420000Y-99950000D03*
%TO.P,U1,4,DT*%
%TO.N,Net-(U1-DT)*%
X158420000Y-101220000D03*
%TO.P,U1,5,PGND*%
%TO.N,GND*%
X158420000Y-102490000D03*
%TO.P,U1,6,LVG*%
%TO.N,Net-(U1-LVG)*%
X158420000Y-103760000D03*
%TO.P,U1,7,VCC*%
%TO.N,Net-(J9-Pin_2)*%
X158420000Y-105030000D03*
%TO.P,U1,8,NC*%
%TO.N,unconnected-(U1-NC-Pad8)*%
X163370000Y-105030000D03*
%TO.P,U1,9,NC*%
%TO.N,unconnected-(U1-NC-Pad9)*%
X163370000Y-103760000D03*
%TO.P,U1,10,NC*%
%TO.N,unconnected-(U1-NC-Pad10)*%
X163370000Y-102490000D03*
%TO.P,U1,11,OUT*%
%TO.N,FIX_A*%
X163370000Y-101220000D03*
%TO.P,U1,12,HVG*%
%TO.N,Net-(U1-HVG)*%
X163370000Y-99950000D03*
%TO.P,U1,13,BOOT*%
%TO.N,Net-(D3-K)*%
X163370000Y-98680000D03*
%TO.P,U1,14,NC*%
%TO.N,unconnected-(U1-NC-Pad14)*%
X163370000Y-97410000D03*
%TD*%
D10*
%TO.P,TP14,1,1*%
%TO.N,Net-(J19-In)*%
X200660000Y-62230000D03*
%TD*%
D31*
%TO.P,C14,1*%
%TO.N,Net-(J16-Pin_1)*%
X102235000Y-107950000D03*
D32*
%TO.P,C14,2*%
%TO.N,GND*%
X102235000Y-117950000D03*
%TD*%
D12*
%TO.P,J1,1,Pin_1*%
%TO.N,unconnected-(J1-Pin_1-Pad1)*%
X117475000Y-129185000D03*
D13*
%TO.P,J1,2,Pin_2*%
%TO.N,unconnected-(J1-Pin_2-Pad2)*%
X117475000Y-126645000D03*
%TO.P,J1,3,Pin_3*%
%TO.N,unconnected-(J1-Pin_3-Pad3)*%
X120015000Y-129185000D03*
%TO.P,J1,4,Pin_4*%
%TO.N,unconnected-(J1-Pin_4-Pad4)*%
X120015000Y-126645000D03*
%TO.P,J1,5,Pin_5*%
%TO.N,unconnected-(J1-Pin_5-Pad5)*%
X122555000Y-129185000D03*
%TO.P,J1,6,Pin_6*%
%TO.N,unconnected-(J1-Pin_6-Pad6)*%
X122555000Y-126645000D03*
%TO.P,J1,7,Pin_7*%
%TO.N,unconnected-(J1-Pin_7-Pad7)*%
X125095000Y-129185000D03*
%TO.P,J1,8,Pin_8*%
%TO.N,unconnected-(J1-Pin_8-Pad8)*%
X125095000Y-126645000D03*
%TO.P,J1,9,Pin_9*%
%TO.N,unconnected-(J1-Pin_9-Pad9)*%
X127635000Y-129185000D03*
%TO.P,J1,10,Pin_10*%
%TO.N,unconnected-(J1-Pin_10-Pad10)*%
X127635000Y-126645000D03*
%TO.P,J1,11,Pin_11*%
%TO.N,unconnected-(J1-Pin_11-Pad11)*%
X130175000Y-129185000D03*
%TO.P,J1,12,Pin_12*%
%TO.N,unconnected-(J1-Pin_12-Pad12)*%
X130175000Y-126645000D03*
%TO.P,J1,13,Pin_13*%
%TO.N,unconnected-(J1-Pin_13-Pad13)*%
X132715000Y-129185000D03*
%TO.P,J1,14,Pin_14*%
%TO.N,unconnected-(J1-Pin_14-Pad14)*%
X132715000Y-126645000D03*
%TO.P,J1,15,Pin_15*%
%TO.N,unconnected-(J1-Pin_15-Pad15)*%
X135255000Y-129185000D03*
%TO.P,J1,16,Pin_16*%
%TO.N,unconnected-(J1-Pin_16-Pad16)*%
X135255000Y-126645000D03*
%TO.P,J1,17,Pin_17*%
%TO.N,unconnected-(J1-Pin_17-Pad17)*%
X137795000Y-129185000D03*
%TO.P,J1,18,Pin_18*%
%TO.N,unconnected-(J1-Pin_18-Pad18)*%
X137795000Y-126645000D03*
%TO.P,J1,19,Pin_19*%
%TO.N,unconnected-(J1-Pin_19-Pad19)*%
X140335000Y-129185000D03*
%TO.P,J1,20,Pin_20*%
%TO.N,unconnected-(J1-Pin_20-Pad20)*%
X140335000Y-126645000D03*
%TO.P,J1,21,Pin_21*%
%TO.N,unconnected-(J1-Pin_21-Pad21)*%
X142875000Y-129185000D03*
%TO.P,J1,22,Pin_22*%
%TO.N,unconnected-(J1-Pin_22-Pad22)*%
X142875000Y-126645000D03*
%TO.P,J1,23,Pin_23*%
%TO.N,unconnected-(J1-Pin_23-Pad23)*%
X145415000Y-129185000D03*
%TO.P,J1,24,Pin_24*%
%TO.N,unconnected-(J1-Pin_24-Pad24)*%
X145415000Y-126645000D03*
%TO.P,J1,25,Pin_25*%
%TO.N,unconnected-(J1-Pin_25-Pad25)*%
X147955000Y-129185000D03*
%TO.P,J1,26,Pin_26*%
%TO.N,unconnected-(J1-Pin_26-Pad26)*%
X147955000Y-126645000D03*
%TO.P,J1,27,Pin_27*%
%TO.N,unconnected-(J1-Pin_27-Pad27)*%
X150495000Y-129185000D03*
%TO.P,J1,28,Pin_28*%
%TO.N,unconnected-(J1-Pin_28-Pad28)*%
X150495000Y-126645000D03*
%TO.P,J1,29,Pin_29*%
%TO.N,unconnected-(J1-Pin_29-Pad29)*%
X153035000Y-129185000D03*
%TO.P,J1,30,Pin_30*%
%TO.N,unconnected-(J1-Pin_30-Pad30)*%
X153035000Y-126645000D03*
%TO.P,J1,31,Pin_31*%
%TO.N,unconnected-(J1-Pin_31-Pad31)*%
X155575000Y-129185000D03*
%TO.P,J1,32,Pin_32*%
%TO.N,unconnected-(J1-Pin_32-Pad32)*%
X155575000Y-126645000D03*
%TO.P,J1,33,Pin_33*%
%TO.N,unconnected-(J1-Pin_33-Pad33)*%
X158115000Y-129185000D03*
%TO.P,J1,34,Pin_34*%
%TO.N,unconnected-(J1-Pin_34-Pad34)*%
X158115000Y-126645000D03*
%TO.P,J1,35,Pin_35*%
%TO.N,unconnected-(J1-Pin_35-Pad35)*%
X160655000Y-129185000D03*
%TO.P,J1,36,Pin_36*%
%TO.N,unconnected-(J1-Pin_36-Pad36)*%
X160655000Y-126645000D03*
%TO.P,J1,37,Pin_37*%
%TO.N,unconnected-(J1-Pin_37-Pad37)*%
X163195000Y-129185000D03*
%TO.P,J1,38,Pin_38*%
%TO.N,unconnected-(J1-Pin_38-Pad38)*%
X163195000Y-126645000D03*
%TD*%
D11*
%TO.P,R24,1*%
%TO.N,Net-(U1-LVG)*%
X168070000Y-109220000D03*
%TO.P,R24,2*%
%TO.N,Net-(D2-A)*%
X169895000Y-109220000D03*
%TD*%
D33*
%TO.P,D3,1,K*%
%TO.N,Net-(D3-K)*%
X160115000Y-92075000D03*
%TO.P,D3,2,A*%
%TO.N,Net-(D3-A)*%
X156115000Y-92075000D03*
%TD*%
D10*
%TO.P,TP12,1,1*%
%TO.N,GND*%
X179070000Y-71120000D03*
%TD*%
D31*
%TO.P,C10,1*%
%TO.N,Net-(J15-Pin_1)*%
X71120000Y-76360000D03*
D32*
%TO.P,C10,2*%
%TO.N,Net-(J16-Pin_1)*%
X71120000Y-86360000D03*
%TD*%
D12*
%TO.P,J8,1,Pin_1*%
%TO.N,unconnected-(J8-Pin_1-Pad1)*%
X92075000Y-65659000D03*
D13*
%TO.P,J8,2,Pin_2*%
%TO.N,unconnected-(J8-Pin_2-Pad2)*%
X89535000Y-65659000D03*
%TD*%
D34*
%TO.P,C7,1*%
%TO.N,Net-(D3-K)*%
X165940000Y-92710000D03*
%TO.P,C7,2*%
%TO.N,FIX_A*%
X162990000Y-92710000D03*
%TD*%
D10*
%TO.P,TP8,1,1*%
%TO.N,Net-(J9-Pin_2)*%
X173990000Y-71120000D03*
%TD*%
D24*
%TO.P,C21,1*%
%TO.N,FIX_B*%
X175260000Y-116410000D03*
%TO.P,C21,2*%
%TO.N,GND*%
X175260000Y-113460000D03*
%TD*%
D12*
%TO.P,J6,1,Pin_1*%
%TO.N,unconnected-(J6-Pin_1-Pad1)*%
X141395000Y-121585000D03*
D13*
%TO.P,J6,2,Pin_2*%
%TO.N,unconnected-(J6-Pin_2-Pad2)*%
X138855000Y-121585000D03*
%TO.P,J6,3,Pin_3*%
%TO.N,unconnected-(J6-Pin_3-Pad3)*%
X136315000Y-121585000D03*
%TO.P,J6,4,Pin_4*%
%TO.N,unconnected-(J6-Pin_4-Pad4)*%
X133775000Y-121585000D03*
%TO.P,J6,5,Pin_5*%
%TO.N,unconnected-(J6-Pin_5-Pad5)*%
X131235000Y-121585000D03*
%TO.P,J6,6,Pin_6*%
%TO.N,unconnected-(J6-Pin_6-Pad6)*%
X128695000Y-121585000D03*
%TO.P,J6,7,Pin_7*%
%TO.N,unconnected-(J6-Pin_7-Pad7)*%
X126155000Y-121585000D03*
%TO.P,J6,8,Pin_8*%
%TO.N,unconnected-(J6-Pin_8-Pad8)*%
X123615000Y-121585000D03*
%TO.P,J6,9,Pin_9*%
%TO.N,unconnected-(J6-Pin_9-Pad9)*%
X121075000Y-121585000D03*
%TO.P,J6,10,Pin_10*%
%TO.N,unconnected-(J6-Pin_10-Pad10)*%
X118535000Y-121585000D03*
%TD*%
D10*
%TO.P,TP5,1,1*%
%TO.N,SD*%
X146050000Y-100965000D03*
%TD*%
%TO.P,TP2,1,1*%
%TO.N,Net-(J3-Pin_6)*%
X150495000Y-118110000D03*
%TD*%
D15*
%TO.P,R1,1*%
%TO.N,Net-(J18-Pin_1)*%
X189738000Y-114300000D03*
%TO.P,R1,2*%
%TO.N,Net-(J19-In)*%
X189738000Y-112475000D03*
%TD*%
D10*
%TO.P,TP4,1,1*%
%TO.N,PWM*%
X146050000Y-109220000D03*
%TD*%
D35*
%TO.P,C20,1*%
%TO.N,Net-(Q1-D)*%
X175260000Y-78535000D03*
%TO.P,C20,2*%
%TO.N,FIX_B*%
X175260000Y-81485000D03*
%TD*%
D10*
%TO.P,TP9,1,1*%
%TO.N,Net-(U1-IN)*%
X153035000Y-89535000D03*
%TD*%
D15*
%TO.P,R4,1*%
%TO.N,Net-(J18-Pin_1)*%
X195818000Y-114300000D03*
%TO.P,R4,2*%
%TO.N,Net-(J19-In)*%
X195818000Y-112475000D03*
%TD*%
D35*
%TO.P,C18,1*%
%TO.N,Net-(Q1-D)*%
X171450000Y-78535000D03*
%TO.P,C18,2*%
%TO.N,FIX_B*%
X171450000Y-81485000D03*
%TD*%
D20*
%TO.P,J18,1,Pin_1*%
%TO.N,Net-(J18-Pin_1)*%
X186055000Y-118110000D03*
%TD*%
D32*
%TO.P,J16,1,Pin_1*%
%TO.N,Net-(J16-Pin_1)*%
X50930000Y-97155000D03*
X35430000Y-97155000D03*
%TD*%
D23*
%TO.P,R17,1*%
%TO.N,Net-(U1-IN)*%
X153895000Y-95220000D03*
%TO.P,R17,2*%
%TO.N,PWM*%
X152070000Y-95220000D03*
%TD*%
D10*
%TO.P,TP7,1,1*%
%TO.N,Net-(D3-K)*%
X165100000Y-89535000D03*
%TD*%
D21*
%TO.P,C5,1*%
%TO.N,Net-(U1-DT)*%
X153895000Y-105220000D03*
%TO.P,C5,2*%
%TO.N,GND*%
X151995000Y-105220000D03*
%TD*%
D10*
%TO.P,TP11,1,1*%
%TO.N,GND*%
X160655000Y-110490000D03*
%TD*%
D16*
%TO.P,Q2,1,G*%
%TO.N,Net-(D2-A)*%
X180340000Y-104140000D03*
D17*
%TO.P,Q2,2,D*%
%TO.N,FIX_A*%
X180340000Y-106680000D03*
%TO.P,Q2,3,S*%
%TO.N,GND*%
X180340000Y-109220000D03*
%TD*%
D12*
%TO.P,J5,1,Pin_1*%
%TO.N,unconnected-(J5-Pin_1-Pad1)*%
X163195000Y-73355000D03*
D13*
%TO.P,J5,2,Pin_2*%
%TO.N,unconnected-(J5-Pin_2-Pad2)*%
X160655000Y-73355000D03*
%TO.P,J5,3,Pin_3*%
%TO.N,unconnected-(J5-Pin_3-Pad3)*%
X158115000Y-73355000D03*
%TO.P,J5,4,Pin_4*%
%TO.N,unconnected-(J5-Pin_4-Pad4)*%
X155575000Y-73355000D03*
%TO.P,J5,5,Pin_5*%
%TO.N,unconnected-(J5-Pin_5-Pad5)*%
X153035000Y-73355000D03*
%TO.P,J5,6,Pin_6*%
%TO.N,unconnected-(J5-Pin_6-Pad6)*%
X150495000Y-73355000D03*
%TD*%
D10*
%TO.P,TP1,1,1*%
%TO.N,SD*%
X155575000Y-118110000D03*
%TD*%
D18*
%TO.P,TP16,1,1*%
%TO.N,FIX_A*%
X201295000Y-88900000D03*
%TD*%
D27*
%TO.P,R10,1*%
%TO.N,Net-(J16-Pin_1)*%
X53340000Y-106045000D03*
D28*
%TO.P,R10,2*%
%TO.N,GND*%
X38100000Y-106045000D03*
%TD*%
D29*
%TO.P,D1,1,K*%
%TO.N,Net-(D1-K)*%
X168880000Y-91425000D03*
%TO.P,D1,2,A*%
%TO.N,Net-(D1-A)*%
X172880000Y-91425000D03*
%TD*%
D19*
%TO.P,C9,1*%
%TO.N,Net-(D2-A)*%
X171995000Y-109220000D03*
%TO.P,C9,2*%
%TO.N,GND*%
X173895000Y-109220000D03*
%TD*%
D36*
%TO.P,C2,1*%
%TO.N,Net-(J9-Pin_2)*%
X150920000Y-111470000D03*
%TO.P,C2,2*%
%TO.N,GND*%
X153870000Y-111470000D03*
%TD*%
D32*
%TO.P,J17,1,Pin_1*%
%TO.N,GND*%
X50930000Y-115570000D03*
X35430000Y-115570000D03*
%TD*%
%TO.P,J15,1,Pin_1*%
%TO.N,Net-(J15-Pin_1)*%
X51060000Y-78900000D03*
X35560000Y-78900000D03*
%TD*%
D10*
%TO.P,TP15,1,1*%
%TO.N,Net-(J18-Pin_1)*%
X220980000Y-62230000D03*
%TD*%
%TO.P,TP13,1,1*%
%TO.N,Net-(J12-Pin_1)*%
X248920000Y-62230000D03*
%TD*%
D14*
%TO.P,C17,1*%
%TO.N,Net-(J16-Pin_1)*%
X138430000Y-99695000D03*
%TO.P,C17,2*%
%TO.N,GND*%
X138430000Y-114695000D03*
%TD*%
D31*
%TO.P,C13,1*%
%TO.N,Net-(J16-Pin_1)*%
X71120000Y-107950000D03*
D32*
%TO.P,C13,2*%
%TO.N,GND*%
X71120000Y-117950000D03*
%TD*%
D12*
%TO.P,J7,1,Pin_1*%
%TO.N,unconnected-(J7-Pin_1-Pad1)*%
X92075000Y-129185000D03*
D13*
%TO.P,J7,2,Pin_2*%
%TO.N,unconnected-(J7-Pin_2-Pad2)*%
X89535000Y-129185000D03*
%TD*%
D14*
%TO.P,C15,1*%
%TO.N,Net-(J16-Pin_1)*%
X126365000Y-99695000D03*
%TO.P,C15,2*%
%TO.N,GND*%
X126365000Y-114695000D03*
%TD*%
D12*
%TO.P,J3,1,Pin_1*%
%TO.N,unconnected-(J3-Pin_1-Pad1)*%
X163195000Y-121585000D03*
D13*
%TO.P,J3,2,Pin_2*%
%TO.N,unconnected-(J3-Pin_2-Pad2)*%
X160655000Y-121585000D03*
%TO.P,J3,3,Pin_3*%
%TO.N,unconnected-(J3-Pin_3-Pad3)*%
X158115000Y-121585000D03*
%TO.P,J3,4,Pin_4*%
%TO.N,SD*%
X155575000Y-121585000D03*
%TO.P,J3,5,Pin_5*%
%TO.N,unconnected-(J3-Pin_5-Pad5)*%
X153035000Y-121585000D03*
%TO.P,J3,6,Pin_6*%
%TO.N,Net-(J3-Pin_6)*%
X150495000Y-121585000D03*
%TO.P,J3,7,Pin_7*%
%TO.N,PWM*%
X147955000Y-121585000D03*
%TO.P,J3,8,Pin_8*%
%TO.N,unconnected-(J3-Pin_8-Pad8)*%
X145415000Y-121585000D03*
%TD*%
D37*
%TO.P,R20,1*%
%TO.N,Net-(J9-Pin_2)*%
X150302500Y-92710000D03*
%TO.P,R20,2*%
%TO.N,Net-(D3-A)*%
X153227500Y-92710000D03*
%TD*%
D12*
%TO.P,J21,1,Pin_1*%
%TO.N,FIX_A*%
X191770000Y-86360000D03*
D13*
%TO.P,J21,2,Pin_2*%
X194310000Y-86360000D03*
%TO.P,J21,3,Pin_3*%
X191770000Y-88900000D03*
%TO.P,J21,4,Pin_4*%
X194310000Y-88900000D03*
%TO.P,J21,5,Pin_5*%
X191770000Y-91440000D03*
%TO.P,J21,6,Pin_6*%
X194310000Y-91440000D03*
%TD*%
D18*
%TO.P,TP19,1,1*%
%TO.N,Net-(J11-Pin_1)*%
X243205000Y-106680000D03*
%TD*%
D10*
%TO.P,TP10,1,1*%
%TO.N,Net-(J11-Pin_1)*%
X227330000Y-62230000D03*
%TD*%
D15*
%TO.P,R2,1*%
%TO.N,Net-(J18-Pin_1)*%
X191818000Y-114300000D03*
%TO.P,R2,2*%
%TO.N,Net-(J19-In)*%
X191818000Y-112475000D03*
%TD*%
D31*
%TO.P,C11,1*%
%TO.N,Net-(J15-Pin_1)*%
X102235000Y-76360000D03*
D32*
%TO.P,C11,2*%
%TO.N,Net-(J16-Pin_1)*%
X102235000Y-86360000D03*
%TD*%
D38*
%TO.N,5V*%
X150876000Y-99187000D03*
X147320000Y-97790000D03*
X142875000Y-85090000D03*
%TO.N,GND*%
X150895000Y-105220000D03*
X155145000Y-109220000D03*
X156895000Y-102470000D03*
X150895000Y-103220000D03*
X150895000Y-107220000D03*
X150895000Y-97220000D03*
X155145000Y-111970000D03*
X156895000Y-99970000D03*
X155145000Y-110970000D03*
X154940000Y-101220000D03*
%TO.N,Net-(J9-Pin_2)*%
X149225000Y-92710000D03*
X149860000Y-96520000D03*
%TO.N,SD*%
X150876000Y-101219000D03*
%TO.N,FIX_B*%
X170815000Y-82550000D03*
X175260000Y-117475000D03*
X175260000Y-82550000D03*
X174625000Y-117475000D03*
X175895000Y-82550000D03*
X171450000Y-117475000D03*
X175895000Y-117475000D03*
X174625000Y-82550000D03*
X172085000Y-117475000D03*
X171450000Y-82550000D03*
X172085000Y-82550000D03*
X170815000Y-117475000D03*
D39*
%TO.N,Net-(J11-Pin_1)*%
X234950000Y-98425000D03*
X234950000Y-76835000D03*
D38*
%TO.N,Net-(J18-Pin_1)*%
X197485000Y-114300000D03*
X196850000Y-114300000D03*
%TO.N,Net-(J19-In)*%
X197485000Y-112475000D03*
X196850000Y-112475000D03*
%TD*%
D40*
%TO.N,5V*%
X152037000Y-99187000D02*
X152070000Y-99220000D01*
X150876000Y-99187000D02*
X152037000Y-99187000D01*
X142875000Y-93345000D02*
X147320000Y-97790000D01*
X142875000Y-85090000D02*
X142875000Y-93345000D01*
%TO.N,GND*%
X150895000Y-107220000D02*
X151995000Y-107220000D01*
D41*
X35430000Y-115570000D02*
X38100000Y-115570000D01*
D42*
X126365000Y-114695000D02*
X138430000Y-114695000D01*
D40*
X155145000Y-110970000D02*
X155145000Y-114730000D01*
D41*
X138430000Y-114935000D02*
X154940000Y-114935000D01*
D40*
X156895000Y-99970000D02*
X158400000Y-99970000D01*
X154370000Y-110970000D02*
X153870000Y-111470000D01*
D43*
X175260000Y-109855000D02*
X175260000Y-113030000D01*
D40*
X155145000Y-111970000D02*
X154370000Y-111970000D01*
X155145000Y-114730000D02*
X154940000Y-114935000D01*
D43*
X38100000Y-106045000D02*
X38100000Y-115570000D01*
D42*
X71120000Y-117950000D02*
X53310000Y-117950000D01*
D40*
X158400000Y-99970000D02*
X158420000Y-99950000D01*
D42*
X111285000Y-117950000D02*
X102235000Y-117950000D01*
X114540000Y-114695000D02*
X111285000Y-117950000D01*
D41*
X154940000Y-114935000D02*
X167640000Y-114935000D01*
D42*
X102235000Y-117950000D02*
X71120000Y-117950000D01*
D40*
X158400000Y-102470000D02*
X158420000Y-102490000D01*
X154370000Y-111970000D02*
X153870000Y-111470000D01*
X150895000Y-103220000D02*
X152070000Y-103220000D01*
D41*
X167640000Y-114935000D02*
X170180000Y-112395000D01*
X170180000Y-112395000D02*
X179070000Y-112395000D01*
X179070000Y-112395000D02*
X180340000Y-111125000D01*
D43*
X173895000Y-109220000D02*
X174625000Y-109220000D01*
D40*
X150895000Y-97220000D02*
X151995000Y-97220000D01*
D44*
X180340000Y-111125000D02*
X180340000Y-109220000D01*
D42*
X53310000Y-117950000D02*
X50930000Y-115570000D01*
D41*
X38100000Y-115570000D02*
X50930000Y-115570000D01*
D40*
X156895000Y-102470000D02*
X158400000Y-102470000D01*
X155145000Y-110970000D02*
X154370000Y-110970000D01*
X150895000Y-105220000D02*
X151995000Y-105220000D01*
X155145000Y-109220000D02*
X153895000Y-109220000D01*
D43*
X174625000Y-109220000D02*
X175260000Y-109855000D01*
D45*
X154940000Y-101220000D02*
X153895000Y-101220000D01*
D42*
X126365000Y-114695000D02*
X114540000Y-114695000D01*
D45*
%TO.N,Net-(U1-IN)*%
X151765000Y-93345000D02*
X152540000Y-94120000D01*
D40*
X153895000Y-95220000D02*
X153895000Y-97220000D01*
D45*
X152540000Y-94120000D02*
X152795000Y-94120000D01*
X153035000Y-89535000D02*
X151765000Y-90805000D01*
D40*
X158420000Y-97410000D02*
X156085000Y-97410000D01*
X155895000Y-97220000D02*
X153895000Y-97220000D01*
D45*
X152795000Y-94120000D02*
X153895000Y-95220000D01*
D40*
X156085000Y-97410000D02*
X155895000Y-97220000D01*
D45*
X151765000Y-90805000D02*
X151765000Y-93345000D01*
D40*
%TO.N,Net-(J9-Pin_2)*%
X151130000Y-78740000D02*
X154305000Y-75565000D01*
X150302500Y-92710000D02*
X150302500Y-89727500D01*
X149860000Y-99060000D02*
X149860000Y-107585000D01*
X150920000Y-111470000D02*
X150920000Y-110295000D01*
X151130000Y-88900000D02*
X151130000Y-78740000D01*
X151995000Y-109120000D02*
X153895000Y-107220000D01*
X173990000Y-71120000D02*
X173990000Y-62230000D01*
X150302500Y-92710000D02*
X149225000Y-92710000D01*
X149860000Y-96520000D02*
X149860000Y-99060000D01*
D43*
X150302500Y-92710000D02*
X150075000Y-92710000D01*
D40*
X149860000Y-107585000D02*
X151495000Y-109220000D01*
X150920000Y-110295000D02*
X151995000Y-109220000D01*
X154305000Y-75565000D02*
X169545000Y-75565000D01*
X154895000Y-107470000D02*
X154370000Y-107470000D01*
X158420000Y-105030000D02*
X157335000Y-105030000D01*
X150302500Y-89727500D02*
X151130000Y-88900000D01*
X169545000Y-75565000D02*
X173990000Y-71120000D01*
X157335000Y-105030000D02*
X154895000Y-107470000D01*
%TO.N,Net-(U1-DT)*%
X154895000Y-103220000D02*
X153895000Y-103220000D01*
X156895000Y-101220000D02*
X154895000Y-103220000D01*
X153895000Y-103220000D02*
X153895000Y-105220000D01*
X158420000Y-101220000D02*
X156895000Y-101220000D01*
%TO.N,SD*%
X153895000Y-99320000D02*
X151995000Y-101220000D01*
X158420000Y-98680000D02*
X156435000Y-98680000D01*
D45*
X151994000Y-101219000D02*
X151995000Y-101220000D01*
D40*
X156435000Y-98680000D02*
X155895000Y-99220000D01*
X153895000Y-99220000D02*
X153895000Y-99320000D01*
X155565000Y-121890000D02*
X155575000Y-121900000D01*
D45*
X150876000Y-101219000D02*
X151994000Y-101219000D01*
D40*
X155895000Y-99220000D02*
X153895000Y-99220000D01*
%TO.N,Net-(D3-K)*%
X165100000Y-90805000D02*
X165100000Y-89535000D01*
X163370000Y-98680000D02*
X164344999Y-98680000D01*
X164344999Y-98680000D02*
X165940000Y-97084999D01*
X160115000Y-92075000D02*
X160655000Y-92075000D01*
X165940000Y-97084999D02*
X165940000Y-92710000D01*
X165100000Y-90805000D02*
X165940000Y-91645000D01*
X160655000Y-92075000D02*
X161925000Y-90805000D01*
X161925000Y-90805000D02*
X165100000Y-90805000D01*
X165940000Y-91645000D02*
X165940000Y-92710000D01*
D43*
%TO.N,Net-(D1-A)*%
X172880000Y-89755000D02*
X177545000Y-85090000D01*
D40*
X172880000Y-93410000D02*
X172895000Y-93425000D01*
X169880000Y-96425000D02*
X171995000Y-96425000D01*
X171995000Y-96425000D02*
X171995000Y-94325000D01*
X172880000Y-93410000D02*
X172880000Y-91425000D01*
D43*
X177545000Y-85090000D02*
X180340000Y-85090000D01*
D40*
X171995000Y-94325000D02*
X172895000Y-93425000D01*
D43*
X172880000Y-91425000D02*
X172880000Y-89755000D01*
D40*
%TO.N,Net-(D2-A)*%
X171995000Y-107120000D02*
X172895000Y-106220000D01*
X169895000Y-109220000D02*
X171995000Y-109220000D01*
D43*
X179705000Y-104140000D02*
X179625000Y-104220000D01*
D40*
X172895000Y-104220000D02*
X172895000Y-106220000D01*
X171995000Y-109220000D02*
X171995000Y-107120000D01*
D43*
X179625000Y-104220000D02*
X172895000Y-104220000D01*
X180340000Y-104140000D02*
X179705000Y-104140000D01*
D40*
%TO.N,Net-(D1-K)*%
X169880000Y-93410000D02*
X169880000Y-94425000D01*
X168880000Y-91425000D02*
X168880000Y-92410000D01*
X168880000Y-92410000D02*
X169880000Y-93410000D01*
%TO.N,Net-(D2-K)*%
X168895000Y-104220000D02*
X168895000Y-105220000D01*
X169895000Y-106220000D02*
X169895000Y-107220000D01*
X168895000Y-105220000D02*
X169895000Y-106220000D01*
%TO.N,Net-(D3-A)*%
X154940000Y-92075000D02*
X154305000Y-92710000D01*
X153227500Y-92710000D02*
X154305000Y-92710000D01*
X156115000Y-92075000D02*
X154940000Y-92075000D01*
D45*
%TO.N,FIX_A*%
X176910000Y-101220000D02*
X181927500Y-96202500D01*
D43*
X175260000Y-96425000D02*
X178530000Y-96425000D01*
D45*
X161290000Y-100330000D02*
X161290000Y-95885000D01*
D46*
X194310000Y-86360000D02*
X194310000Y-91440000D01*
D41*
X201168000Y-88900000D02*
X194310000Y-88900000D01*
X184150000Y-98425000D02*
X191135000Y-91440000D01*
D46*
X191770000Y-86360000D02*
X194310000Y-86360000D01*
D41*
X184150000Y-104775000D02*
X184150000Y-98425000D01*
D44*
X180340000Y-90170000D02*
X180340000Y-94615000D01*
D45*
X162990000Y-94185000D02*
X162990000Y-92710000D01*
D44*
X180340000Y-106680000D02*
X182245000Y-106680000D01*
D43*
X173895000Y-96425000D02*
X175260000Y-96425000D01*
D45*
X163370000Y-101220000D02*
X162180000Y-101220000D01*
D41*
X181927500Y-96202500D02*
X184150000Y-98425000D01*
X180340000Y-94615000D02*
X181927500Y-96202500D01*
D44*
X182245000Y-106680000D02*
X184150000Y-104775000D01*
D45*
X162180000Y-101220000D02*
X161290000Y-100330000D01*
D46*
X194310000Y-91440000D02*
X191770000Y-91440000D01*
D45*
X163370000Y-101220000D02*
X176910000Y-101220000D01*
D41*
X191135000Y-91440000D02*
X191770000Y-91440000D01*
D45*
X161290000Y-95885000D02*
X162990000Y-94185000D01*
D41*
X194310000Y-88900000D02*
X191770000Y-88900000D01*
D46*
X191770000Y-86360000D02*
X191770000Y-91440000D01*
D43*
X178530000Y-96425000D02*
X180340000Y-94615000D01*
D44*
%TO.N,FIX_B*%
X175260000Y-117475000D02*
X174625000Y-117475000D01*
D46*
X170815000Y-82550000D02*
X170815000Y-82120000D01*
X174625000Y-82120000D02*
X175260000Y-81485000D01*
X174625000Y-82550000D02*
X174625000Y-82120000D01*
X175895000Y-82120000D02*
X175260000Y-81485000D01*
D44*
X171450000Y-117475000D02*
X170815000Y-117475000D01*
D46*
X172085000Y-82550000D02*
X172085000Y-82120000D01*
D44*
X172085000Y-117475000D02*
X171450000Y-117475000D01*
D46*
X171450000Y-82550000D02*
X171450000Y-81485000D01*
X175895000Y-82550000D02*
X175895000Y-82120000D01*
X172085000Y-82120000D02*
X171450000Y-81485000D01*
D44*
X175895000Y-117475000D02*
X175260000Y-117475000D01*
X174625000Y-117475000D02*
X172720000Y-117475000D01*
X178435000Y-118110000D02*
X177800000Y-117475000D01*
X177800000Y-117475000D02*
X175895000Y-117475000D01*
D46*
X175260000Y-82550000D02*
X175260000Y-81485000D01*
D44*
X180975000Y-118110000D02*
X178435000Y-118110000D01*
D46*
X170815000Y-82120000D02*
X171450000Y-81485000D01*
D40*
%TO.N,Net-(J11-Pin_1)*%
X243332000Y-106680000D02*
X248920000Y-106680000D01*
X248920000Y-106680000D02*
X248960000Y-106680000D01*
X250210000Y-107970000D02*
X252750000Y-107970000D01*
X248960000Y-106680000D02*
X250210000Y-105430000D01*
X248920000Y-106680000D02*
X250210000Y-107970000D01*
X250210000Y-105430000D02*
X252750000Y-105430000D01*
%TO.N,PWM*%
X148590000Y-95885000D02*
X148590000Y-106680000D01*
X148590000Y-106680000D02*
X146050000Y-109220000D01*
X149225000Y-95220000D02*
X148590000Y-95885000D01*
X152070000Y-95220000D02*
X149225000Y-95220000D01*
%TO.N,Net-(U1-HVG)*%
X168055000Y-99060000D02*
X168055000Y-96425000D01*
X167165000Y-99950000D02*
X168055000Y-99060000D01*
X168055000Y-96425000D02*
X168055000Y-94425000D01*
X163370000Y-99950000D02*
X167165000Y-99950000D01*
%TO.N,Net-(U1-LVG)*%
X160645000Y-105970000D02*
X160645000Y-104720000D01*
X163895000Y-109220000D02*
X168070000Y-109220000D01*
X159685000Y-103760000D02*
X158420000Y-103760000D01*
X168070000Y-107220000D02*
X168070000Y-109220000D01*
X160645000Y-104720000D02*
X159685000Y-103760000D01*
X163895000Y-109220000D02*
X160645000Y-105970000D01*
D41*
%TO.N,Net-(J16-Pin_1)*%
X60325000Y-97155000D02*
X71120000Y-86360000D01*
D42*
X110765000Y-94890000D02*
X102235000Y-86360000D01*
X102235000Y-86360000D02*
X71120000Y-86360000D01*
D41*
X35430000Y-97155000D02*
X50930000Y-97155000D01*
D42*
X126365000Y-99695000D02*
X138430000Y-99695000D01*
X126365000Y-94890000D02*
X110765000Y-94890000D01*
X110490000Y-99695000D02*
X102235000Y-107950000D01*
X126365000Y-99695000D02*
X110490000Y-99695000D01*
D41*
X60325000Y-97155000D02*
X71120000Y-107950000D01*
D42*
X102235000Y-107950000D02*
X71120000Y-107950000D01*
D41*
X50930000Y-97155000D02*
X60325000Y-97155000D01*
D43*
X53340000Y-88265000D02*
X53340000Y-97155000D01*
D42*
X126365000Y-94890000D02*
X138430000Y-94890000D01*
D43*
X53340000Y-106045000D02*
X53340000Y-97155000D01*
D40*
%TO.N,Net-(J12-Pin_1)*%
X250210000Y-86380000D02*
X252750000Y-86380000D01*
X250210000Y-88920000D02*
X252750000Y-88920000D01*
X243205000Y-87630000D02*
X248960000Y-87630000D01*
X248960000Y-87630000D02*
X248960000Y-87670000D01*
X248960000Y-87670000D02*
X250210000Y-88920000D01*
X248960000Y-87630000D02*
X250210000Y-86380000D01*
D41*
%TO.N,Net-(J15-Pin_1)*%
X35560000Y-78900000D02*
X38100000Y-78900000D01*
X38100000Y-78900000D02*
X51060000Y-78900000D01*
D42*
X71120000Y-76360000D02*
X53600000Y-76360000D01*
X102235000Y-76360000D02*
X71120000Y-76360000D01*
D41*
X146057000Y-79890000D02*
X148590000Y-82423000D01*
D42*
X115450000Y-79890000D02*
X126365000Y-79890000D01*
X102235000Y-76360000D02*
X111920000Y-76360000D01*
X53600000Y-76360000D02*
X51060000Y-78900000D01*
X138430000Y-79890000D02*
X145676000Y-79890000D01*
X111920000Y-76360000D02*
X115450000Y-79890000D01*
X126365000Y-79890000D02*
X138430000Y-79890000D01*
D43*
X38100000Y-88265000D02*
X38100000Y-78900000D01*
D40*
%TO.N,Net-(J18-Pin_1)*%
X196850000Y-114300000D02*
X197485000Y-114300000D01*
X195818000Y-114300000D02*
X196850000Y-114300000D01*
D44*
X193040000Y-116205000D02*
X191135000Y-118110000D01*
D46*
X195818000Y-114300000D02*
X193040000Y-114300000D01*
X193040000Y-114300000D02*
X189738000Y-114300000D01*
X186055000Y-118110000D02*
X189865000Y-118110000D01*
X193040000Y-114300000D02*
X193040000Y-116205000D01*
X189865000Y-118110000D02*
X190500000Y-118110000D01*
D44*
X191135000Y-118110000D02*
X186055000Y-118110000D01*
D40*
%TO.N,Net-(J3-Pin_6)*%
X150485000Y-121890000D02*
X150495000Y-121900000D01*
D46*
%TO.N,Net-(J19-In)*%
X194310000Y-112475000D02*
X195818000Y-112475000D01*
X194305000Y-102885000D02*
X194305000Y-112470000D01*
X191765000Y-107965000D02*
X194305000Y-107965000D01*
X191765000Y-112422000D02*
X191818000Y-112475000D01*
D41*
X191765000Y-105425000D02*
X201153000Y-105425000D01*
D40*
X195818000Y-112475000D02*
X196850000Y-112475000D01*
D46*
X194305000Y-112470000D02*
X194310000Y-112475000D01*
X191765000Y-102885000D02*
X191765000Y-112422000D01*
D40*
X196850000Y-112475000D02*
X197485000Y-112475000D01*
D41*
X201153000Y-105425000D02*
X201168000Y-105410000D01*
D46*
X191765000Y-102885000D02*
X194305000Y-102885000D01*
X189738000Y-112475000D02*
X194310000Y-112475000D01*
D40*
%TO.N,unconnected-(J6-Pin_3-Pad3)*%
X136515000Y-121700000D02*
X136315000Y-121900000D01*
%TO.N,unconnected-(J6-Pin_4-Pad4)*%
X133340000Y-121465000D02*
X133775000Y-121900000D01*
D44*
%TO.N,Net-(Q1-D)*%
X182880000Y-87630000D02*
X184150000Y-86360000D01*
D41*
X158125000Y-78105000D02*
X153670000Y-82560000D01*
D44*
X180340000Y-87630000D02*
X182880000Y-87630000D01*
D46*
X180340000Y-87630000D02*
X182245000Y-87630000D01*
D41*
X184150000Y-86360000D02*
X184150000Y-80010000D01*
X181610000Y-78105000D02*
X158125000Y-78105000D01*
X184150000Y-80010000D02*
X181610000Y-78105000D01*
%TD*%
M02*
