%TF.GenerationSoftware,KiCad,Pcbnew,8.0.8*%
%TF.CreationDate,2025-01-31T18:41:33-06:00*%
%TF.ProjectId,ST2402,53543234-3032-42e6-9b69-6361645f7063,0*%
%TF.SameCoordinates,Original*%
%TF.FileFunction,Copper,L2,Bot*%
%TF.FilePolarity,Positive*%
%FSLAX46Y46*%
G04 Gerber Fmt 4.6, Leading zero omitted, Abs format (unit mm)*
G04 Created by KiCad (PCBNEW 8.0.8) date 2025-01-31 18:41:33*
%MOMM*%
%LPD*%
G01*
G04 APERTURE LIST*
G04 Aperture macros list*
%AMRoundRect*
0 Rectangle with rounded corners*
0 $1 Rounding radius*
0 $2 $3 $4 $5 $6 $7 $8 $9 X,Y pos of 4 corners*
0 Add a 4 corners polygon primitive as box body*
4,1,4,$2,$3,$4,$5,$6,$7,$8,$9,$2,$3,0*
0 Add four circle primitives for the rounded corners*
1,1,$1+$1,$2,$3*
1,1,$1+$1,$4,$5*
1,1,$1+$1,$6,$7*
1,1,$1+$1,$8,$9*
0 Add four rect primitives between the rounded corners*
20,1,$1+$1,$2,$3,$4,$5,0*
20,1,$1+$1,$4,$5,$6,$7,0*
20,1,$1+$1,$6,$7,$8,$9,0*
20,1,$1+$1,$8,$9,$2,$3,0*%
G04 Aperture macros list end*
%TA.AperFunction,ComponentPad*%
%ADD10C,2.000000*%
%TD*%
%TA.AperFunction,ComponentPad*%
%ADD11R,1.700000X1.700000*%
%TD*%
%TA.AperFunction,ComponentPad*%
%ADD12O,1.700000X1.700000*%
%TD*%
%TA.AperFunction,ComponentPad*%
%ADD13C,2.400000*%
%TD*%
%TA.AperFunction,ComponentPad*%
%ADD14R,2.000000X1.905000*%
%TD*%
%TA.AperFunction,ComponentPad*%
%ADD15O,2.000000X1.905000*%
%TD*%
%TA.AperFunction,ComponentPad*%
%ADD16C,8.000000*%
%TD*%
%TA.AperFunction,ComponentPad*%
%ADD17C,3.000000*%
%TD*%
%TA.AperFunction,ComponentPad*%
%ADD18R,3.000000X3.000000*%
%TD*%
%TA.AperFunction,ComponentPad*%
%ADD19O,3.500000X7.000000*%
%TD*%
%TA.AperFunction,ComponentPad*%
%ADD20O,1.600000X2.500000*%
%TD*%
%TA.AperFunction,ComponentPad*%
%ADD21C,1.600000*%
%TD*%
%TA.AperFunction,ComponentPad*%
%ADD22O,1.600000X1.600000*%
%TD*%
%TA.AperFunction,ComponentPad*%
%ADD23R,4.000000X4.000000*%
%TD*%
%TA.AperFunction,ComponentPad*%
%ADD24C,4.000000*%
%TD*%
%TA.AperFunction,SMDPad,CuDef*%
%ADD25RoundRect,0.250000X0.450000X-0.262500X0.450000X0.262500X-0.450000X0.262500X-0.450000X-0.262500X0*%
%TD*%
%TA.AperFunction,ViaPad*%
%ADD26C,0.600000*%
%TD*%
%TA.AperFunction,ViaPad*%
%ADD27C,2.000000*%
%TD*%
%TA.AperFunction,Conductor*%
%ADD28C,0.500000*%
%TD*%
%TA.AperFunction,Conductor*%
%ADD29C,0.700000*%
%TD*%
%TA.AperFunction,Conductor*%
%ADD30C,5.000000*%
%TD*%
%TA.AperFunction,Conductor*%
%ADD31C,0.400000*%
%TD*%
%TA.AperFunction,Conductor*%
%ADD32C,3.000000*%
%TD*%
%TA.AperFunction,Conductor*%
%ADD33C,1.000000*%
%TD*%
%TA.AperFunction,Conductor*%
%ADD34C,2.000000*%
%TD*%
G04 APERTURE END LIST*
D10*
%TO.P,F2,1*%
%TO.N,FIX_B*%
X165735000Y-82550000D03*
%TO.P,F2,2*%
%TO.N,Net-(J16-Pin_1)*%
X160655000Y-82540000D03*
%TD*%
D11*
%TO.P,J11,1,Pin_1*%
%TO.N,Net-(J11-Pin_1)*%
X252750000Y-105430000D03*
D12*
%TO.P,J11,2,Pin_2*%
X250210000Y-105430000D03*
%TO.P,J11,3,Pin_3*%
X252750000Y-107970000D03*
%TO.P,J11,4,Pin_4*%
X250210000Y-107970000D03*
%TD*%
D13*
%TO.P,C16,1*%
%TO.N,Net-(J15-Pin_1)*%
X138430000Y-79890000D03*
%TO.P,C16,2*%
%TO.N,Net-(J16-Pin_1)*%
X138430000Y-94890000D03*
%TD*%
D10*
%TO.P,TP3,1,1*%
%TO.N,PWM*%
X147320000Y-118110000D03*
%TD*%
D14*
%TO.P,Q1,1,G*%
%TO.N,Net-(D1-A)*%
X180340000Y-85090000D03*
D15*
%TO.P,Q1,2,D*%
%TO.N,Net-(Q1-D)*%
X180340000Y-87630000D03*
%TO.P,Q1,3,S*%
%TO.N,FIX_A*%
X180340000Y-90170000D03*
%TD*%
D11*
%TO.P,J22,1,Pin_1*%
%TO.N,Net-(J19-In)*%
X191765000Y-102885000D03*
D12*
%TO.P,J22,2,Pin_2*%
X194305000Y-102885000D03*
%TO.P,J22,3,Pin_3*%
X191765000Y-105425000D03*
%TO.P,J22,4,Pin_4*%
X194305000Y-105425000D03*
%TO.P,J22,5,Pin_5*%
X191765000Y-107965000D03*
%TO.P,J22,6,Pin_6*%
X194305000Y-107965000D03*
%TD*%
D11*
%TO.P,J2,1,Pin_1*%
%TO.N,unconnected-(J2-Pin_1-Pad1)*%
X117475000Y-68275000D03*
D12*
%TO.P,J2,2,Pin_2*%
%TO.N,unconnected-(J2-Pin_2-Pad2)*%
X117475000Y-65735000D03*
%TO.P,J2,3,Pin_3*%
%TO.N,unconnected-(J2-Pin_3-Pad3)*%
X120015000Y-68275000D03*
%TO.P,J2,4,Pin_4*%
%TO.N,unconnected-(J2-Pin_4-Pad4)*%
X120015000Y-65735000D03*
%TO.P,J2,5,Pin_5*%
%TO.N,unconnected-(J2-Pin_5-Pad5)*%
X122555000Y-68275000D03*
%TO.P,J2,6,Pin_6*%
%TO.N,unconnected-(J2-Pin_6-Pad6)*%
X122555000Y-65735000D03*
%TO.P,J2,7,Pin_7*%
%TO.N,unconnected-(J2-Pin_7-Pad7)*%
X125095000Y-68275000D03*
%TO.P,J2,8,Pin_8*%
%TO.N,unconnected-(J2-Pin_8-Pad8)*%
X125095000Y-65735000D03*
%TO.P,J2,9,Pin_9*%
%TO.N,unconnected-(J2-Pin_9-Pad9)*%
X127635000Y-68275000D03*
%TO.P,J2,10,Pin_10*%
%TO.N,unconnected-(J2-Pin_10-Pad10)*%
X127635000Y-65735000D03*
%TO.P,J2,11,Pin_11*%
%TO.N,unconnected-(J2-Pin_11-Pad11)*%
X130175000Y-68275000D03*
%TO.P,J2,12,Pin_12*%
%TO.N,unconnected-(J2-Pin_12-Pad12)*%
X130175000Y-65735000D03*
%TO.P,J2,13,Pin_13*%
%TO.N,unconnected-(J2-Pin_13-Pad13)*%
X132715000Y-68275000D03*
%TO.P,J2,14,Pin_14*%
%TO.N,unconnected-(J2-Pin_14-Pad14)*%
X132715000Y-65735000D03*
%TO.P,J2,15,Pin_15*%
%TO.N,unconnected-(J2-Pin_15-Pad15)*%
X135255000Y-68275000D03*
%TO.P,J2,16,Pin_16*%
%TO.N,unconnected-(J2-Pin_16-Pad16)*%
X135255000Y-65735000D03*
%TO.P,J2,17,Pin_17*%
%TO.N,unconnected-(J2-Pin_17-Pad17)*%
X137795000Y-68275000D03*
%TO.P,J2,18,Pin_18*%
%TO.N,unconnected-(J2-Pin_18-Pad18)*%
X137795000Y-65735000D03*
%TO.P,J2,19,Pin_19*%
%TO.N,unconnected-(J2-Pin_19-Pad19)*%
X140335000Y-68275000D03*
%TO.P,J2,20,Pin_20*%
%TO.N,unconnected-(J2-Pin_20-Pad20)*%
X140335000Y-65735000D03*
%TO.P,J2,21,Pin_21*%
%TO.N,unconnected-(J2-Pin_21-Pad21)*%
X142875000Y-68275000D03*
%TO.P,J2,22,Pin_22*%
%TO.N,unconnected-(J2-Pin_22-Pad22)*%
X142875000Y-65735000D03*
%TO.P,J2,23,Pin_23*%
%TO.N,unconnected-(J2-Pin_23-Pad23)*%
X145415000Y-68275000D03*
%TO.P,J2,24,Pin_24*%
%TO.N,unconnected-(J2-Pin_24-Pad24)*%
X145415000Y-65735000D03*
%TO.P,J2,25,Pin_25*%
%TO.N,unconnected-(J2-Pin_25-Pad25)*%
X147955000Y-68275000D03*
%TO.P,J2,26,Pin_26*%
%TO.N,unconnected-(J2-Pin_26-Pad26)*%
X147955000Y-65735000D03*
%TO.P,J2,27,Pin_27*%
%TO.N,unconnected-(J2-Pin_27-Pad27)*%
X150495000Y-68275000D03*
%TO.P,J2,28,Pin_28*%
%TO.N,unconnected-(J2-Pin_28-Pad28)*%
X150495000Y-65735000D03*
%TO.P,J2,29,Pin_29*%
%TO.N,unconnected-(J2-Pin_29-Pad29)*%
X153035000Y-68275000D03*
%TO.P,J2,30,Pin_30*%
%TO.N,unconnected-(J2-Pin_30-Pad30)*%
X153035000Y-65735000D03*
%TO.P,J2,31,Pin_31*%
%TO.N,unconnected-(J2-Pin_31-Pad31)*%
X155575000Y-68275000D03*
%TO.P,J2,32,Pin_32*%
%TO.N,unconnected-(J2-Pin_32-Pad32)*%
X155575000Y-65735000D03*
%TO.P,J2,33,Pin_33*%
%TO.N,unconnected-(J2-Pin_33-Pad33)*%
X158115000Y-68275000D03*
%TO.P,J2,34,Pin_34*%
%TO.N,unconnected-(J2-Pin_34-Pad34)*%
X158115000Y-65735000D03*
%TO.P,J2,35,Pin_35*%
%TO.N,unconnected-(J2-Pin_35-Pad35)*%
X160655000Y-68275000D03*
%TO.P,J2,36,Pin_36*%
%TO.N,unconnected-(J2-Pin_36-Pad36)*%
X160655000Y-65735000D03*
%TO.P,J2,37,Pin_37*%
%TO.N,unconnected-(J2-Pin_37-Pad37)*%
X163195000Y-68275000D03*
%TO.P,J2,38,Pin_38*%
%TO.N,unconnected-(J2-Pin_38-Pad38)*%
X163195000Y-65735000D03*
%TD*%
D11*
%TO.P,J12,1,Pin_1*%
%TO.N,Net-(J12-Pin_1)*%
X252750000Y-86380000D03*
D12*
%TO.P,J12,2,Pin_2*%
X250210000Y-86380000D03*
%TO.P,J12,3,Pin_3*%
X252750000Y-88920000D03*
%TO.P,J12,4,Pin_4*%
X250210000Y-88920000D03*
%TD*%
D11*
%TO.P,J4,1,Pin_1*%
%TO.N,unconnected-(J4-Pin_1-Pad1)*%
X145415000Y-73355000D03*
D12*
%TO.P,J4,2,Pin_2*%
%TO.N,unconnected-(J4-Pin_2-Pad2)*%
X142875000Y-73355000D03*
%TO.P,J4,3,Pin_3*%
%TO.N,GND*%
X140335000Y-73355000D03*
%TO.P,J4,4,Pin_4*%
%TO.N,5V*%
X137795000Y-73355000D03*
%TO.P,J4,5,Pin_5*%
%TO.N,unconnected-(J4-Pin_5-Pad5)*%
X135255000Y-73355000D03*
%TO.P,J4,6,Pin_6*%
%TO.N,unconnected-(J4-Pin_6-Pad6)*%
X132715000Y-73355000D03*
%TO.P,J4,7,Pin_7*%
%TO.N,unconnected-(J4-Pin_7-Pad7)*%
X130175000Y-73355000D03*
%TO.P,J4,8,Pin_8*%
%TO.N,unconnected-(J4-Pin_8-Pad8)*%
X127635000Y-73355000D03*
%TD*%
D16*
%TO.P,TP18,1,1*%
%TO.N,Net-(J12-Pin_1)*%
X243205000Y-87630000D03*
%TD*%
D17*
%TO.P,J14,1,Pin_1*%
%TO.N,FIX_B*%
X180975000Y-118110000D03*
%TD*%
D18*
%TO.P,J9,1,Pin_1*%
%TO.N,GND*%
X179070000Y-62230000D03*
D17*
%TO.P,J9,2,Pin_2*%
%TO.N,Net-(J9-Pin_2)*%
X173990000Y-62230000D03*
%TD*%
D13*
%TO.P,C12,1*%
%TO.N,Net-(J15-Pin_1)*%
X126365000Y-79890000D03*
%TO.P,C12,2*%
%TO.N,Net-(J16-Pin_1)*%
X126365000Y-94890000D03*
%TD*%
D10*
%TO.P,TP6,1,1*%
%TO.N,FIX_A*%
X184150000Y-97790000D03*
%TD*%
%TO.P,F1,1*%
%TO.N,Net-(Q1-D)*%
X153670000Y-82560000D03*
%TO.P,F1,2*%
%TO.N,Net-(J15-Pin_1)*%
X148590000Y-82550000D03*
%TD*%
D19*
%TO.P,J19,2,Ext*%
%TO.N,Net-(J18-Pin_1)*%
X215900000Y-62230000D03*
D20*
X208280000Y-67310000D03*
D19*
X205740000Y-62230000D03*
D20*
%TO.P,J19,1,In*%
%TO.N,Net-(J19-In)*%
X210820000Y-67310000D03*
%TD*%
D21*
%TO.P,R9,1*%
%TO.N,Net-(J15-Pin_1)*%
X38100000Y-88265000D03*
D22*
%TO.P,R9,2*%
%TO.N,Net-(J16-Pin_1)*%
X53340000Y-88265000D03*
%TD*%
D19*
%TO.P,J13,2,Ext*%
%TO.N,Net-(J12-Pin_1)*%
X243205000Y-62230000D03*
D20*
X235585000Y-67310000D03*
D19*
X233045000Y-62230000D03*
D20*
%TO.P,J13,1,In*%
%TO.N,Net-(J11-Pin_1)*%
X238125000Y-67310000D03*
%TD*%
D16*
%TO.P,TP17,1,1*%
%TO.N,Net-(J19-In)*%
X201295000Y-105410000D03*
%TD*%
D10*
%TO.P,TP14,1,1*%
%TO.N,Net-(J19-In)*%
X200660000Y-62230000D03*
%TD*%
D23*
%TO.P,C14,1*%
%TO.N,Net-(J16-Pin_1)*%
X102235000Y-107950000D03*
D24*
%TO.P,C14,2*%
%TO.N,GND*%
X102235000Y-117950000D03*
%TD*%
D11*
%TO.P,J1,1,Pin_1*%
%TO.N,unconnected-(J1-Pin_1-Pad1)*%
X117475000Y-129185000D03*
D12*
%TO.P,J1,2,Pin_2*%
%TO.N,unconnected-(J1-Pin_2-Pad2)*%
X117475000Y-126645000D03*
%TO.P,J1,3,Pin_3*%
%TO.N,unconnected-(J1-Pin_3-Pad3)*%
X120015000Y-129185000D03*
%TO.P,J1,4,Pin_4*%
%TO.N,unconnected-(J1-Pin_4-Pad4)*%
X120015000Y-126645000D03*
%TO.P,J1,5,Pin_5*%
%TO.N,unconnected-(J1-Pin_5-Pad5)*%
X122555000Y-129185000D03*
%TO.P,J1,6,Pin_6*%
%TO.N,unconnected-(J1-Pin_6-Pad6)*%
X122555000Y-126645000D03*
%TO.P,J1,7,Pin_7*%
%TO.N,unconnected-(J1-Pin_7-Pad7)*%
X125095000Y-129185000D03*
%TO.P,J1,8,Pin_8*%
%TO.N,unconnected-(J1-Pin_8-Pad8)*%
X125095000Y-126645000D03*
%TO.P,J1,9,Pin_9*%
%TO.N,unconnected-(J1-Pin_9-Pad9)*%
X127635000Y-129185000D03*
%TO.P,J1,10,Pin_10*%
%TO.N,unconnected-(J1-Pin_10-Pad10)*%
X127635000Y-126645000D03*
%TO.P,J1,11,Pin_11*%
%TO.N,unconnected-(J1-Pin_11-Pad11)*%
X130175000Y-129185000D03*
%TO.P,J1,12,Pin_12*%
%TO.N,unconnected-(J1-Pin_12-Pad12)*%
X130175000Y-126645000D03*
%TO.P,J1,13,Pin_13*%
%TO.N,unconnected-(J1-Pin_13-Pad13)*%
X132715000Y-129185000D03*
%TO.P,J1,14,Pin_14*%
%TO.N,unconnected-(J1-Pin_14-Pad14)*%
X132715000Y-126645000D03*
%TO.P,J1,15,Pin_15*%
%TO.N,unconnected-(J1-Pin_15-Pad15)*%
X135255000Y-129185000D03*
%TO.P,J1,16,Pin_16*%
%TO.N,unconnected-(J1-Pin_16-Pad16)*%
X135255000Y-126645000D03*
%TO.P,J1,17,Pin_17*%
%TO.N,unconnected-(J1-Pin_17-Pad17)*%
X137795000Y-129185000D03*
%TO.P,J1,18,Pin_18*%
%TO.N,unconnected-(J1-Pin_18-Pad18)*%
X137795000Y-126645000D03*
%TO.P,J1,19,Pin_19*%
%TO.N,unconnected-(J1-Pin_19-Pad19)*%
X140335000Y-129185000D03*
%TO.P,J1,20,Pin_20*%
%TO.N,unconnected-(J1-Pin_20-Pad20)*%
X140335000Y-126645000D03*
%TO.P,J1,21,Pin_21*%
%TO.N,unconnected-(J1-Pin_21-Pad21)*%
X142875000Y-129185000D03*
%TO.P,J1,22,Pin_22*%
%TO.N,unconnected-(J1-Pin_22-Pad22)*%
X142875000Y-126645000D03*
%TO.P,J1,23,Pin_23*%
%TO.N,unconnected-(J1-Pin_23-Pad23)*%
X145415000Y-129185000D03*
%TO.P,J1,24,Pin_24*%
%TO.N,unconnected-(J1-Pin_24-Pad24)*%
X145415000Y-126645000D03*
%TO.P,J1,25,Pin_25*%
%TO.N,unconnected-(J1-Pin_25-Pad25)*%
X147955000Y-129185000D03*
%TO.P,J1,26,Pin_26*%
%TO.N,unconnected-(J1-Pin_26-Pad26)*%
X147955000Y-126645000D03*
%TO.P,J1,27,Pin_27*%
%TO.N,unconnected-(J1-Pin_27-Pad27)*%
X150495000Y-129185000D03*
%TO.P,J1,28,Pin_28*%
%TO.N,unconnected-(J1-Pin_28-Pad28)*%
X150495000Y-126645000D03*
%TO.P,J1,29,Pin_29*%
%TO.N,unconnected-(J1-Pin_29-Pad29)*%
X153035000Y-129185000D03*
%TO.P,J1,30,Pin_30*%
%TO.N,unconnected-(J1-Pin_30-Pad30)*%
X153035000Y-126645000D03*
%TO.P,J1,31,Pin_31*%
%TO.N,unconnected-(J1-Pin_31-Pad31)*%
X155575000Y-129185000D03*
%TO.P,J1,32,Pin_32*%
%TO.N,unconnected-(J1-Pin_32-Pad32)*%
X155575000Y-126645000D03*
%TO.P,J1,33,Pin_33*%
%TO.N,unconnected-(J1-Pin_33-Pad33)*%
X158115000Y-129185000D03*
%TO.P,J1,34,Pin_34*%
%TO.N,unconnected-(J1-Pin_34-Pad34)*%
X158115000Y-126645000D03*
%TO.P,J1,35,Pin_35*%
%TO.N,unconnected-(J1-Pin_35-Pad35)*%
X160655000Y-129185000D03*
%TO.P,J1,36,Pin_36*%
%TO.N,unconnected-(J1-Pin_36-Pad36)*%
X160655000Y-126645000D03*
%TO.P,J1,37,Pin_37*%
%TO.N,unconnected-(J1-Pin_37-Pad37)*%
X163195000Y-129185000D03*
%TO.P,J1,38,Pin_38*%
%TO.N,unconnected-(J1-Pin_38-Pad38)*%
X163195000Y-126645000D03*
%TD*%
D10*
%TO.P,TP12,1,1*%
%TO.N,GND*%
X179070000Y-71120000D03*
%TD*%
D23*
%TO.P,C10,1*%
%TO.N,Net-(J15-Pin_1)*%
X71120000Y-76360000D03*
D24*
%TO.P,C10,2*%
%TO.N,Net-(J16-Pin_1)*%
X71120000Y-86360000D03*
%TD*%
D11*
%TO.P,J8,1,Pin_1*%
%TO.N,unconnected-(J8-Pin_1-Pad1)*%
X92075000Y-65659000D03*
D12*
%TO.P,J8,2,Pin_2*%
%TO.N,unconnected-(J8-Pin_2-Pad2)*%
X89535000Y-65659000D03*
%TD*%
D10*
%TO.P,TP8,1,1*%
%TO.N,Net-(J9-Pin_2)*%
X173990000Y-71120000D03*
%TD*%
D11*
%TO.P,J6,1,Pin_1*%
%TO.N,unconnected-(J6-Pin_1-Pad1)*%
X141395000Y-121585000D03*
D12*
%TO.P,J6,2,Pin_2*%
%TO.N,unconnected-(J6-Pin_2-Pad2)*%
X138855000Y-121585000D03*
%TO.P,J6,3,Pin_3*%
%TO.N,unconnected-(J6-Pin_3-Pad3)*%
X136315000Y-121585000D03*
%TO.P,J6,4,Pin_4*%
%TO.N,unconnected-(J6-Pin_4-Pad4)*%
X133775000Y-121585000D03*
%TO.P,J6,5,Pin_5*%
%TO.N,unconnected-(J6-Pin_5-Pad5)*%
X131235000Y-121585000D03*
%TO.P,J6,6,Pin_6*%
%TO.N,unconnected-(J6-Pin_6-Pad6)*%
X128695000Y-121585000D03*
%TO.P,J6,7,Pin_7*%
%TO.N,unconnected-(J6-Pin_7-Pad7)*%
X126155000Y-121585000D03*
%TO.P,J6,8,Pin_8*%
%TO.N,unconnected-(J6-Pin_8-Pad8)*%
X123615000Y-121585000D03*
%TO.P,J6,9,Pin_9*%
%TO.N,unconnected-(J6-Pin_9-Pad9)*%
X121075000Y-121585000D03*
%TO.P,J6,10,Pin_10*%
%TO.N,unconnected-(J6-Pin_10-Pad10)*%
X118535000Y-121585000D03*
%TD*%
D10*
%TO.P,TP5,1,1*%
%TO.N,SD*%
X146050000Y-100965000D03*
%TD*%
%TO.P,TP2,1,1*%
%TO.N,Net-(J3-Pin_6)*%
X150495000Y-118110000D03*
%TD*%
%TO.P,TP4,1,1*%
%TO.N,PWM*%
X146050000Y-109220000D03*
%TD*%
%TO.P,TP9,1,1*%
%TO.N,Net-(U1-IN)*%
X153035000Y-89535000D03*
%TD*%
D17*
%TO.P,J18,1,Pin_1*%
%TO.N,Net-(J18-Pin_1)*%
X186055000Y-118110000D03*
%TD*%
D24*
%TO.P,J16,1,Pin_1*%
%TO.N,Net-(J16-Pin_1)*%
X50930000Y-97155000D03*
X35430000Y-97155000D03*
%TD*%
D10*
%TO.P,TP7,1,1*%
%TO.N,Net-(D3-K)*%
X165100000Y-89535000D03*
%TD*%
%TO.P,TP11,1,1*%
%TO.N,GND*%
X160655000Y-110490000D03*
%TD*%
D14*
%TO.P,Q2,1,G*%
%TO.N,Net-(D2-A)*%
X180340000Y-104140000D03*
D15*
%TO.P,Q2,2,D*%
%TO.N,FIX_A*%
X180340000Y-106680000D03*
%TO.P,Q2,3,S*%
%TO.N,GND*%
X180340000Y-109220000D03*
%TD*%
D11*
%TO.P,J5,1,Pin_1*%
%TO.N,unconnected-(J5-Pin_1-Pad1)*%
X163195000Y-73355000D03*
D12*
%TO.P,J5,2,Pin_2*%
%TO.N,unconnected-(J5-Pin_2-Pad2)*%
X160655000Y-73355000D03*
%TO.P,J5,3,Pin_3*%
%TO.N,unconnected-(J5-Pin_3-Pad3)*%
X158115000Y-73355000D03*
%TO.P,J5,4,Pin_4*%
%TO.N,unconnected-(J5-Pin_4-Pad4)*%
X155575000Y-73355000D03*
%TO.P,J5,5,Pin_5*%
%TO.N,unconnected-(J5-Pin_5-Pad5)*%
X153035000Y-73355000D03*
%TO.P,J5,6,Pin_6*%
%TO.N,unconnected-(J5-Pin_6-Pad6)*%
X150495000Y-73355000D03*
%TD*%
D10*
%TO.P,TP1,1,1*%
%TO.N,SD*%
X155575000Y-118110000D03*
%TD*%
D16*
%TO.P,TP16,1,1*%
%TO.N,FIX_A*%
X201295000Y-88900000D03*
%TD*%
D21*
%TO.P,R10,1*%
%TO.N,Net-(J16-Pin_1)*%
X53340000Y-106045000D03*
D22*
%TO.P,R10,2*%
%TO.N,GND*%
X38100000Y-106045000D03*
%TD*%
D24*
%TO.P,J17,1,Pin_1*%
%TO.N,GND*%
X50930000Y-115570000D03*
X35430000Y-115570000D03*
%TD*%
%TO.P,J15,1,Pin_1*%
%TO.N,Net-(J15-Pin_1)*%
X51060000Y-78900000D03*
X35560000Y-78900000D03*
%TD*%
D10*
%TO.P,TP15,1,1*%
%TO.N,Net-(J18-Pin_1)*%
X220980000Y-62230000D03*
%TD*%
%TO.P,TP13,1,1*%
%TO.N,Net-(J12-Pin_1)*%
X248920000Y-62230000D03*
%TD*%
D13*
%TO.P,C17,1*%
%TO.N,Net-(J16-Pin_1)*%
X138430000Y-99695000D03*
%TO.P,C17,2*%
%TO.N,GND*%
X138430000Y-114695000D03*
%TD*%
D23*
%TO.P,C13,1*%
%TO.N,Net-(J16-Pin_1)*%
X71120000Y-107950000D03*
D24*
%TO.P,C13,2*%
%TO.N,GND*%
X71120000Y-117950000D03*
%TD*%
D11*
%TO.P,J7,1,Pin_1*%
%TO.N,unconnected-(J7-Pin_1-Pad1)*%
X92075000Y-129185000D03*
D12*
%TO.P,J7,2,Pin_2*%
%TO.N,unconnected-(J7-Pin_2-Pad2)*%
X89535000Y-129185000D03*
%TD*%
D13*
%TO.P,C15,1*%
%TO.N,Net-(J16-Pin_1)*%
X126365000Y-99695000D03*
%TO.P,C15,2*%
%TO.N,GND*%
X126365000Y-114695000D03*
%TD*%
D11*
%TO.P,J3,1,Pin_1*%
%TO.N,unconnected-(J3-Pin_1-Pad1)*%
X163195000Y-121585000D03*
D12*
%TO.P,J3,2,Pin_2*%
%TO.N,unconnected-(J3-Pin_2-Pad2)*%
X160655000Y-121585000D03*
%TO.P,J3,3,Pin_3*%
%TO.N,unconnected-(J3-Pin_3-Pad3)*%
X158115000Y-121585000D03*
%TO.P,J3,4,Pin_4*%
%TO.N,SD*%
X155575000Y-121585000D03*
%TO.P,J3,5,Pin_5*%
%TO.N,unconnected-(J3-Pin_5-Pad5)*%
X153035000Y-121585000D03*
%TO.P,J3,6,Pin_6*%
%TO.N,Net-(J3-Pin_6)*%
X150495000Y-121585000D03*
%TO.P,J3,7,Pin_7*%
%TO.N,PWM*%
X147955000Y-121585000D03*
%TO.P,J3,8,Pin_8*%
%TO.N,unconnected-(J3-Pin_8-Pad8)*%
X145415000Y-121585000D03*
%TD*%
D11*
%TO.P,J21,1,Pin_1*%
%TO.N,FIX_A*%
X191770000Y-86360000D03*
D12*
%TO.P,J21,2,Pin_2*%
X194310000Y-86360000D03*
%TO.P,J21,3,Pin_3*%
X191770000Y-88900000D03*
%TO.P,J21,4,Pin_4*%
X194310000Y-88900000D03*
%TO.P,J21,5,Pin_5*%
X191770000Y-91440000D03*
%TO.P,J21,6,Pin_6*%
X194310000Y-91440000D03*
%TD*%
D16*
%TO.P,TP19,1,1*%
%TO.N,Net-(J11-Pin_1)*%
X243205000Y-106680000D03*
%TD*%
D10*
%TO.P,TP10,1,1*%
%TO.N,Net-(J11-Pin_1)*%
X227330000Y-62230000D03*
%TD*%
D23*
%TO.P,C11,1*%
%TO.N,Net-(J15-Pin_1)*%
X102235000Y-76360000D03*
D24*
%TO.P,C11,2*%
%TO.N,Net-(J16-Pin_1)*%
X102235000Y-86360000D03*
%TD*%
D25*
%TO.P,R5,1*%
%TO.N,Net-(J18-Pin_1)*%
X189738000Y-114300000D03*
%TO.P,R5,2*%
%TO.N,Net-(J19-In)*%
X189738000Y-112475000D03*
%TD*%
%TO.P,R6,1*%
%TO.N,Net-(J18-Pin_1)*%
X191770000Y-114300000D03*
%TO.P,R6,2*%
%TO.N,Net-(J19-In)*%
X191770000Y-112475000D03*
%TD*%
%TO.P,R8,1*%
%TO.N,Net-(J18-Pin_1)*%
X195818000Y-114300000D03*
%TO.P,R8,2*%
%TO.N,Net-(J19-In)*%
X195818000Y-112475000D03*
%TD*%
%TO.P,R7,1*%
%TO.N,Net-(J18-Pin_1)*%
X193802000Y-114300000D03*
%TO.P,R7,2*%
%TO.N,Net-(J19-In)*%
X193802000Y-112475000D03*
%TD*%
D26*
%TO.N,5V*%
X150876000Y-99187000D03*
X147320000Y-97790000D03*
X142875000Y-85090000D03*
%TO.N,GND*%
X150895000Y-105220000D03*
X155145000Y-109220000D03*
X156895000Y-102470000D03*
X150895000Y-103220000D03*
X150895000Y-107220000D03*
X150895000Y-97220000D03*
X155145000Y-111970000D03*
X156895000Y-99970000D03*
X155145000Y-110970000D03*
X154940000Y-101220000D03*
%TO.N,Net-(J9-Pin_2)*%
X149225000Y-92710000D03*
X149860000Y-96520000D03*
%TO.N,SD*%
X150876000Y-101219000D03*
%TO.N,FIX_B*%
X170815000Y-82550000D03*
X175260000Y-117475000D03*
X175260000Y-82550000D03*
X174625000Y-117475000D03*
X175895000Y-82550000D03*
X171450000Y-117475000D03*
X175895000Y-117475000D03*
X174625000Y-82550000D03*
X172085000Y-117475000D03*
X171450000Y-82550000D03*
X172085000Y-82550000D03*
X170815000Y-117475000D03*
D27*
%TO.N,Net-(J11-Pin_1)*%
X234950000Y-98425000D03*
X234950000Y-76835000D03*
D26*
%TO.N,Net-(J18-Pin_1)*%
X197485000Y-114300000D03*
X196850000Y-114300000D03*
%TO.N,Net-(J19-In)*%
X197485000Y-112475000D03*
X196850000Y-112475000D03*
%TD*%
D28*
%TO.N,5V*%
X150876000Y-99187000D02*
X148717000Y-99187000D01*
X148717000Y-99187000D02*
X147320000Y-97790000D01*
X142875000Y-79375000D02*
X142875000Y-85090000D01*
X137795000Y-73355000D02*
X137795000Y-74295000D01*
X137795000Y-74295000D02*
X142875000Y-79375000D01*
%TO.N,GND*%
X150895000Y-107220000D02*
X153885000Y-107220000D01*
D29*
X179070000Y-71120000D02*
X173990000Y-76200000D01*
D28*
X156895000Y-99970000D02*
X156895000Y-100965000D01*
D29*
X179070000Y-62230000D02*
X179070000Y-71120000D01*
D30*
X112555000Y-117950000D02*
X115810000Y-114695000D01*
D29*
X140335000Y-74930000D02*
X141605000Y-76200000D01*
X140335000Y-73355000D02*
X140335000Y-74930000D01*
D28*
X156895000Y-103505000D02*
X156895000Y-105410000D01*
X156895000Y-100965000D02*
X156895000Y-102470000D01*
X156895000Y-102470000D02*
X156895000Y-103505000D01*
X154080000Y-97155000D02*
X156895000Y-99970000D01*
X153885000Y-107220000D02*
X155145000Y-108480000D01*
X156405000Y-107220000D02*
X156895000Y-106730000D01*
D30*
X71120000Y-117950000D02*
X53310000Y-117950000D01*
D28*
X151700000Y-97220000D02*
X151765000Y-97155000D01*
X150895000Y-105220000D02*
X156705000Y-105220000D01*
D30*
X102235000Y-117950000D02*
X112555000Y-117950000D01*
D31*
X154940000Y-101220000D02*
X156640000Y-101220000D01*
D28*
X156705000Y-105220000D02*
X156895000Y-105410000D01*
D29*
X163195000Y-94615000D02*
X157840000Y-99970000D01*
D28*
X155145000Y-108480000D02*
X156895000Y-106730000D01*
D29*
X163195000Y-76200000D02*
X163195000Y-94615000D01*
D28*
X151765000Y-97155000D02*
X154080000Y-97155000D01*
D31*
X156640000Y-101220000D02*
X156895000Y-100965000D01*
D29*
X163195000Y-76200000D02*
X173990000Y-76200000D01*
D28*
X156895000Y-106730000D02*
X160655000Y-110490000D01*
D30*
X53310000Y-117950000D02*
X50930000Y-115570000D01*
D28*
X156610000Y-103220000D02*
X156895000Y-103505000D01*
D29*
X157840000Y-99970000D02*
X156895000Y-99970000D01*
D28*
X150895000Y-103220000D02*
X156610000Y-103220000D01*
X155145000Y-111970000D02*
X155145000Y-108480000D01*
X156895000Y-105410000D02*
X156895000Y-106730000D01*
X150895000Y-97220000D02*
X151700000Y-97220000D01*
D30*
X102235000Y-117950000D02*
X71120000Y-117950000D01*
D32*
X50930000Y-115570000D02*
X35430000Y-115570000D01*
D30*
X115810000Y-114695000D02*
X138430000Y-114695000D01*
D29*
X141605000Y-76200000D02*
X163195000Y-76200000D01*
D28*
%TO.N,Net-(J9-Pin_2)*%
X149225000Y-92710000D02*
X149225000Y-95885000D01*
X149225000Y-95885000D02*
X149860000Y-96520000D01*
%TO.N,SD*%
X155575000Y-118110000D02*
X155565000Y-121636000D01*
X149098000Y-109093000D02*
X155575000Y-115570000D01*
X155575000Y-115570000D02*
X155575000Y-118110000D01*
X150876000Y-101219000D02*
X148844000Y-101219000D01*
X148844000Y-108839000D02*
X149098000Y-109093000D01*
X148844000Y-101219000D02*
X148590000Y-100965000D01*
X148590000Y-100965000D02*
X146050000Y-100965000D01*
X148844000Y-101219000D02*
X148844000Y-108839000D01*
D32*
%TO.N,FIX_A*%
X191770000Y-88900000D02*
X201168000Y-88900000D01*
D33*
X191770000Y-91440000D02*
X194310000Y-91440000D01*
X191770000Y-86360000D02*
X194310000Y-86360000D01*
X194310000Y-86360000D02*
X194310000Y-91440000D01*
X191770000Y-86360000D02*
X191770000Y-91440000D01*
D32*
%TO.N,FIX_B*%
X180340000Y-117475000D02*
X180975000Y-118110000D01*
D33*
X170815000Y-82550000D02*
X168275000Y-85090000D01*
X174625000Y-82550000D02*
X175260000Y-82550000D01*
D32*
X172085000Y-117475000D02*
X180340000Y-117475000D01*
D33*
X174625000Y-82550000D02*
X172085000Y-82550000D01*
D32*
X165735000Y-82550000D02*
X172085000Y-88900000D01*
D33*
X172085000Y-82550000D02*
X170815000Y-82550000D01*
D32*
X172085000Y-88900000D02*
X172085000Y-117475000D01*
D33*
X175260000Y-82550000D02*
X175895000Y-82550000D01*
D28*
%TO.N,Net-(J11-Pin_1)*%
X248960000Y-106720000D02*
X250210000Y-107970000D01*
X248960000Y-106680000D02*
X248960000Y-106720000D01*
X227330000Y-66675000D02*
X231140000Y-70485000D01*
X238125000Y-67310000D02*
X238125000Y-73660000D01*
X243332000Y-106680000D02*
X248960000Y-106680000D01*
X234950000Y-98425000D02*
X243332000Y-106680000D01*
X231140000Y-70485000D02*
X238142597Y-70485000D01*
X250210000Y-107970000D02*
X252750000Y-107970000D01*
X238125000Y-73660000D02*
X234950000Y-76835000D01*
X248960000Y-106680000D02*
X250210000Y-105430000D01*
X234950000Y-76835000D02*
X234950000Y-98425000D01*
X250210000Y-105430000D02*
X252750000Y-105430000D01*
X227330000Y-62230000D02*
X227330000Y-66675000D01*
%TO.N,PWM*%
X146050000Y-109220000D02*
X146050000Y-111125000D01*
X147310000Y-121255000D02*
X147955000Y-121900000D01*
X147320000Y-118110000D02*
X147310000Y-121255000D01*
X146050000Y-111125000D02*
X147320000Y-112395000D01*
X147320000Y-112395000D02*
X147320000Y-118110000D01*
D30*
%TO.N,Net-(J16-Pin_1)*%
X60325000Y-97155000D02*
X71120000Y-107950000D01*
X60325000Y-97155000D02*
X50930000Y-97155000D01*
X138430000Y-99695000D02*
X110490000Y-99695000D01*
X60325000Y-97155000D02*
X71120000Y-86360000D01*
D32*
X146485000Y-86835000D02*
X156360000Y-86835000D01*
D30*
X110765000Y-94890000D02*
X102235000Y-86360000D01*
D32*
X156360000Y-86835000D02*
X160655000Y-82540000D01*
X138430000Y-99695000D02*
X138430000Y-94890000D01*
X138430000Y-99695000D02*
X138430000Y-97997944D01*
X35430000Y-97155000D02*
X50930000Y-97155000D01*
D30*
X102235000Y-107950000D02*
X71120000Y-107950000D01*
X110490000Y-99695000D02*
X102235000Y-107950000D01*
X102235000Y-86360000D02*
X71120000Y-86360000D01*
X138430000Y-94890000D02*
X110765000Y-94890000D01*
D32*
X138430000Y-94890000D02*
X146485000Y-86835000D01*
D33*
%TO.N,Net-(J12-Pin_1)*%
X233045000Y-62230000D02*
X243205000Y-62230000D01*
X233045000Y-66675000D02*
X233045000Y-62230000D01*
D28*
X248960000Y-87630000D02*
X250210000Y-86380000D01*
X243205000Y-87630000D02*
X248920000Y-87630000D01*
X248920000Y-87630000D02*
X250210000Y-88920000D01*
D29*
X248920000Y-62230000D02*
X243185000Y-62230000D01*
D33*
X233680000Y-67310000D02*
X233045000Y-66675000D01*
D28*
X243205000Y-62230000D02*
X243185000Y-87610000D01*
D33*
X235585000Y-67310000D02*
X233680000Y-67310000D01*
D28*
X250210000Y-88920000D02*
X252750000Y-88920000D01*
X250210000Y-86380000D02*
X252750000Y-86380000D01*
X248920000Y-87630000D02*
X248960000Y-87630000D01*
X243185000Y-84860000D02*
X243205000Y-62230000D01*
D30*
%TO.N,Net-(J15-Pin_1)*%
X111920000Y-76360000D02*
X115450000Y-79890000D01*
X102235000Y-76360000D02*
X111920000Y-76360000D01*
X53600000Y-76360000D02*
X51060000Y-78900000D01*
X115450000Y-79890000D02*
X138430000Y-79890000D01*
D32*
X35560000Y-78900000D02*
X51060000Y-78900000D01*
D30*
X71120000Y-76360000D02*
X53600000Y-76360000D01*
X102235000Y-76360000D02*
X71120000Y-76360000D01*
D33*
%TO.N,Net-(J18-Pin_1)*%
X193040000Y-114300000D02*
X193040000Y-116205000D01*
X189738000Y-114300000D02*
X195818000Y-114300000D01*
D28*
X215845000Y-103687000D02*
X215900000Y-62540000D01*
X205232000Y-114300000D02*
X215845000Y-103687000D01*
D34*
X186055000Y-118110000D02*
X191135000Y-118110000D01*
D28*
X196850000Y-114300000D02*
X205232000Y-114300000D01*
D33*
X205740000Y-66675000D02*
X205740000Y-62540000D01*
D34*
X193040000Y-116205000D02*
X191135000Y-118110000D01*
D33*
X205740000Y-62540000D02*
X215900000Y-62540000D01*
X208280000Y-67620000D02*
X206685000Y-67620000D01*
X206685000Y-67620000D02*
X205740000Y-66675000D01*
D29*
X220980000Y-62230000D02*
X215845000Y-62230000D01*
D28*
%TO.N,Net-(J3-Pin_6)*%
X150495000Y-118110000D02*
X150485000Y-121636000D01*
D33*
%TO.N,Net-(J19-In)*%
X191765000Y-112470000D02*
X191770000Y-112475000D01*
X189738000Y-112475000D02*
X195818000Y-112475000D01*
D28*
X204470000Y-70485000D02*
X210820000Y-70485000D01*
X204644000Y-112475000D02*
X210820000Y-106299000D01*
D33*
X194305000Y-102885000D02*
X194305000Y-112470000D01*
D32*
X201153000Y-105425000D02*
X201168000Y-105410000D01*
D28*
X200660000Y-66675000D02*
X204470000Y-70485000D01*
D33*
X191765000Y-102885000D02*
X194305000Y-102885000D01*
X191765000Y-102885000D02*
X191765000Y-112470000D01*
D28*
X200660000Y-62230000D02*
X200660000Y-66675000D01*
D32*
X191765000Y-105425000D02*
X201153000Y-105425000D01*
D28*
X196850000Y-112475000D02*
X204644000Y-112475000D01*
D33*
X194305000Y-112470000D02*
X194310000Y-112475000D01*
X191765000Y-107965000D02*
X194305000Y-107965000D01*
D28*
X210820000Y-70485000D02*
X210820000Y-67310000D01*
X210820000Y-106299000D02*
X210820000Y-70485000D01*
%TD*%
%TA.AperFunction,Conductor*%
%TO.N,GND*%
G36*
X165115677Y-93364685D02*
G01*
X165136319Y-93381319D01*
X166333681Y-94578681D01*
X166367166Y-94640004D01*
X166370000Y-94666362D01*
X166370000Y-111708638D01*
X166350315Y-111775677D01*
X166333681Y-111796319D01*
X165136319Y-112993681D01*
X165074996Y-113027166D01*
X165048638Y-113030000D01*
X154230599Y-113030000D01*
X154163560Y-113010315D01*
X154141444Y-112992183D01*
X151722661Y-110489994D01*
X159149859Y-110489994D01*
X159149859Y-110490005D01*
X159170385Y-110737729D01*
X159170387Y-110737738D01*
X159231412Y-110978717D01*
X159331267Y-111206367D01*
X159431562Y-111359881D01*
X160172037Y-110619408D01*
X160189075Y-110682993D01*
X160254901Y-110797007D01*
X160347993Y-110890099D01*
X160462007Y-110955925D01*
X160525591Y-110972962D01*
X159784943Y-111713609D01*
X159831768Y-111750055D01*
X159831771Y-111750057D01*
X160050385Y-111868364D01*
X160050396Y-111868369D01*
X160285506Y-111949083D01*
X160530707Y-111990000D01*
X160779293Y-111990000D01*
X161024493Y-111949083D01*
X161259603Y-111868369D01*
X161259614Y-111868364D01*
X161478230Y-111750056D01*
X161478236Y-111750051D01*
X161525055Y-111713610D01*
X161525056Y-111713609D01*
X160784408Y-110972962D01*
X160847993Y-110955925D01*
X160962007Y-110890099D01*
X161055099Y-110797007D01*
X161120925Y-110682993D01*
X161137962Y-110619409D01*
X161878435Y-111359882D01*
X161978733Y-111206364D01*
X162078587Y-110978717D01*
X162139612Y-110737738D01*
X162139614Y-110737729D01*
X162160141Y-110490005D01*
X162160141Y-110489994D01*
X162139614Y-110242270D01*
X162139612Y-110242261D01*
X162078587Y-110001282D01*
X161978732Y-109773632D01*
X161878435Y-109620116D01*
X161137962Y-110360590D01*
X161120925Y-110297007D01*
X161055099Y-110182993D01*
X160962007Y-110089901D01*
X160847993Y-110024075D01*
X160784409Y-110007037D01*
X161525055Y-109266389D01*
X161525055Y-109266388D01*
X161478236Y-109229947D01*
X161478231Y-109229944D01*
X161259614Y-109111635D01*
X161259603Y-109111630D01*
X161024493Y-109030916D01*
X160779293Y-108990000D01*
X160530707Y-108990000D01*
X160285506Y-109030916D01*
X160050396Y-109111630D01*
X160050385Y-109111635D01*
X159831770Y-109229943D01*
X159784943Y-109266389D01*
X160525591Y-110007037D01*
X160462007Y-110024075D01*
X160347993Y-110089901D01*
X160254901Y-110182993D01*
X160189075Y-110297007D01*
X160172037Y-110360591D01*
X159431563Y-109620117D01*
X159331267Y-109773633D01*
X159331265Y-109773637D01*
X159231412Y-110001282D01*
X159170387Y-110242261D01*
X159170385Y-110242270D01*
X159149859Y-110489994D01*
X151722661Y-110489994D01*
X150529845Y-109256046D01*
X150497405Y-109194164D01*
X150495000Y-109169863D01*
X150495000Y-102928100D01*
X150514685Y-102861061D01*
X150539641Y-102832820D01*
X151765000Y-101812297D01*
X151765000Y-100203000D01*
X151765000Y-99848024D01*
X151765035Y-99845087D01*
X151786644Y-98933000D01*
X151786644Y-98932999D01*
X151075528Y-98235100D01*
X150659374Y-97826679D01*
X150625316Y-97765674D01*
X150622231Y-97737637D01*
X150626495Y-96773705D01*
X150633451Y-96733309D01*
X150645368Y-96699255D01*
X150665565Y-96520000D01*
X150645368Y-96340745D01*
X150635674Y-96313043D01*
X150628717Y-96271542D01*
X150633625Y-95162187D01*
X150653606Y-95095237D01*
X150669938Y-95075061D01*
X152363681Y-93381319D01*
X152425004Y-93347834D01*
X152451362Y-93345000D01*
X165048638Y-93345000D01*
X165115677Y-93364685D01*
G37*
%TD.AperFunction*%
%TD*%
M02*
